<?xml version="1.0" encoding="utf-8" standalone="no"?>
<!DOCTYPE svg PUBLIC "-//W3C//DTD SVG 1.1//EN"
  "http://www.w3.org/Graphics/SVG/1.1/DTD/svg11.dtd">
<svg xmlns:xlink="http://www.w3.org/1999/xlink" width="576pt" height="576pt" viewBox="0 0 576 576" xmlns="http://www.w3.org/2000/svg" version="1.1">
 <metadata>
  <rdf:RDF xmlns:dc="http://purl.org/dc/elements/1.1/" xmlns:cc="http://creativecommons.org/ns#" xmlns:rdf="http://www.w3.org/1999/02/22-rdf-syntax-ns#">
   <cc:Work>
    <dc:type rdf:resource="http://purl.org/dc/dcmitype/StillImage"/>
    <dc:date>2026-07-11T00:56:50.870728</dc:date>
    <dc:format>image/svg+xml</dc:format>
    <dc:creator>
     <cc:Agent>
      <dc:title>Matplotlib v3.10.8, https://matplotlib.org/</dc:title>
     </cc:Agent>
    </dc:creator>
   </cc:Work>
  </rdf:RDF>
 </metadata>
 <defs>
  <style type="text/css">*{stroke-linejoin: round; stroke-linecap: butt}</style>
 </defs>
 <g id="figure_1">
  <g id="patch_1">
   <path d="M 0 576 
L 576 576 
L 576 0 
L 0 0 
z
" style="fill: #ffffff"/>
  </g>
  <g id="axes_1">
   <g id="patch_2">
    <path d="M 59.495 527.56 
L 558.735 527.56 
L 558.735 28.32 
L 59.495 28.32 
z
" style="fill: #ffffff"/>
   </g>
   <g id="matplotlib.axis_1">
    <g id="xtick_1">
     <g id="line2d_1">
      <defs>
       <path id="m62979775aa" d="M 0 0 
L 0 3.5 
" style="stroke: #000000; stroke-width: 0.8"/>
      </defs>
      <g>
       <use xlink:href="#m62979775aa" x="69.095769" y="527.56" style="stroke: #000000; stroke-width: 0.8"/>
      </g>
     </g>
     <g id="text_1">
      <!-- 0.0 -->
      <g transform="translate(59.553894 543.678125) scale(0.12 -0.12)">
       <defs>
        <path id="DejaVuSans-30" d="M 2034 4250 
Q 1547 4250 1301 3770 
Q 1056 3291 1056 2328 
Q 1056 1369 1301 889 
Q 1547 409 2034 409 
Q 2525 409 2770 889 
Q 3016 1369 3016 2328 
Q 3016 3291 2770 3770 
Q 2525 4250 2034 4250 
z
M 2034 4750 
Q 2819 4750 3233 4129 
Q 3647 3509 3647 2328 
Q 3647 1150 3233 529 
Q 2819 -91 2034 -91 
Q 1250 -91 836 529 
Q 422 1150 422 2328 
Q 422 3509 836 4129 
Q 1250 4750 2034 4750 
z
" transform="scale(0.015625)"/>
        <path id="DejaVuSans-2e" d="M 684 794 
L 1344 794 
L 1344 0 
L 684 0 
L 684 794 
z
" transform="scale(0.015625)"/>
       </defs>
       <use xlink:href="#DejaVuSans-30"/>
       <use xlink:href="#DejaVuSans-2e" transform="translate(63.623047 0)"/>
       <use xlink:href="#DejaVuSans-30" transform="translate(95.410156 0)"/>
      </g>
     </g>
    </g>
    <g id="xtick_2">
     <g id="line2d_2">
      <g>
       <use xlink:href="#m62979775aa" x="165.103462" y="527.56" style="stroke: #000000; stroke-width: 0.8"/>
      </g>
     </g>
     <g id="text_2">
      <!-- 0.2 -->
      <g transform="translate(155.561587 543.678125) scale(0.12 -0.12)">
       <defs>
        <path id="DejaVuSans-32" d="M 1228 531 
L 3431 531 
L 3431 0 
L 469 0 
L 469 531 
Q 828 903 1448 1529 
Q 2069 2156 2228 2338 
Q 2531 2678 2651 2914 
Q 2772 3150 2772 3378 
Q 2772 3750 2511 3984 
Q 2250 4219 1831 4219 
Q 1534 4219 1204 4116 
Q 875 4013 500 3803 
L 500 4441 
Q 881 4594 1212 4672 
Q 1544 4750 1819 4750 
Q 2544 4750 2975 4387 
Q 3406 4025 3406 3419 
Q 3406 3131 3298 2873 
Q 3191 2616 2906 2266 
Q 2828 2175 2409 1742 
Q 1991 1309 1228 531 
z
" transform="scale(0.015625)"/>
       </defs>
       <use xlink:href="#DejaVuSans-30"/>
       <use xlink:href="#DejaVuSans-2e" transform="translate(63.623047 0)"/>
       <use xlink:href="#DejaVuSans-32" transform="translate(95.410156 0)"/>
      </g>
     </g>
    </g>
    <g id="xtick_3">
     <g id="line2d_3">
      <g>
       <use xlink:href="#m62979775aa" x="261.111154" y="527.56" style="stroke: #000000; stroke-width: 0.8"/>
      </g>
     </g>
     <g id="text_3">
      <!-- 0.4 -->
      <g transform="translate(251.569279 543.678125) scale(0.12 -0.12)">
       <defs>
        <path id="DejaVuSans-34" d="M 2419 4116 
L 825 1625 
L 2419 1625 
L 2419 4116 
z
M 2253 4666 
L 3047 4666 
L 3047 1625 
L 3713 1625 
L 3713 1100 
L 3047 1100 
L 3047 0 
L 2419 0 
L 2419 1100 
L 313 1100 
L 313 1709 
L 2253 4666 
z
" transform="scale(0.015625)"/>
       </defs>
       <use xlink:href="#DejaVuSans-30"/>
       <use xlink:href="#DejaVuSans-2e" transform="translate(63.623047 0)"/>
       <use xlink:href="#DejaVuSans-34" transform="translate(95.410156 0)"/>
      </g>
     </g>
    </g>
    <g id="xtick_4">
     <g id="line2d_4">
      <g>
       <use xlink:href="#m62979775aa" x="357.118846" y="527.56" style="stroke: #000000; stroke-width: 0.8"/>
      </g>
     </g>
     <g id="text_4">
      <!-- 0.6 -->
      <g transform="translate(347.576971 543.678125) scale(0.12 -0.12)">
       <defs>
        <path id="DejaVuSans-36" d="M 2113 2584 
Q 1688 2584 1439 2293 
Q 1191 2003 1191 1497 
Q 1191 994 1439 701 
Q 1688 409 2113 409 
Q 2538 409 2786 701 
Q 3034 994 3034 1497 
Q 3034 2003 2786 2293 
Q 2538 2584 2113 2584 
z
M 3366 4563 
L 3366 3988 
Q 3128 4100 2886 4159 
Q 2644 4219 2406 4219 
Q 1781 4219 1451 3797 
Q 1122 3375 1075 2522 
Q 1259 2794 1537 2939 
Q 1816 3084 2150 3084 
Q 2853 3084 3261 2657 
Q 3669 2231 3669 1497 
Q 3669 778 3244 343 
Q 2819 -91 2113 -91 
Q 1303 -91 875 529 
Q 447 1150 447 2328 
Q 447 3434 972 4092 
Q 1497 4750 2381 4750 
Q 2619 4750 2861 4703 
Q 3103 4656 3366 4563 
z
" transform="scale(0.015625)"/>
       </defs>
       <use xlink:href="#DejaVuSans-30"/>
       <use xlink:href="#DejaVuSans-2e" transform="translate(63.623047 0)"/>
       <use xlink:href="#DejaVuSans-36" transform="translate(95.410156 0)"/>
      </g>
     </g>
    </g>
    <g id="xtick_5">
     <g id="line2d_5">
      <g>
       <use xlink:href="#m62979775aa" x="453.126538" y="527.56" style="stroke: #000000; stroke-width: 0.8"/>
      </g>
     </g>
     <g id="text_5">
      <!-- 0.8 -->
      <g transform="translate(443.584663 543.678125) scale(0.12 -0.12)">
       <defs>
        <path id="DejaVuSans-38" d="M 2034 2216 
Q 1584 2216 1326 1975 
Q 1069 1734 1069 1313 
Q 1069 891 1326 650 
Q 1584 409 2034 409 
Q 2484 409 2743 651 
Q 3003 894 3003 1313 
Q 3003 1734 2745 1975 
Q 2488 2216 2034 2216 
z
M 1403 2484 
Q 997 2584 770 2862 
Q 544 3141 544 3541 
Q 544 4100 942 4425 
Q 1341 4750 2034 4750 
Q 2731 4750 3128 4425 
Q 3525 4100 3525 3541 
Q 3525 3141 3298 2862 
Q 3072 2584 2669 2484 
Q 3125 2378 3379 2068 
Q 3634 1759 3634 1313 
Q 3634 634 3220 271 
Q 2806 -91 2034 -91 
Q 1263 -91 848 271 
Q 434 634 434 1313 
Q 434 1759 690 2068 
Q 947 2378 1403 2484 
z
M 1172 3481 
Q 1172 3119 1398 2916 
Q 1625 2713 2034 2713 
Q 2441 2713 2670 2916 
Q 2900 3119 2900 3481 
Q 2900 3844 2670 4047 
Q 2441 4250 2034 4250 
Q 1625 4250 1398 4047 
Q 1172 3844 1172 3481 
z
" transform="scale(0.015625)"/>
       </defs>
       <use xlink:href="#DejaVuSans-30"/>
       <use xlink:href="#DejaVuSans-2e" transform="translate(63.623047 0)"/>
       <use xlink:href="#DejaVuSans-38" transform="translate(95.410156 0)"/>
      </g>
     </g>
    </g>
    <g id="xtick_6">
     <g id="line2d_6">
      <g>
       <use xlink:href="#m62979775aa" x="549.134231" y="527.56" style="stroke: #000000; stroke-width: 0.8"/>
      </g>
     </g>
     <g id="text_6">
      <!-- 1.0 -->
      <g transform="translate(539.592356 543.678125) scale(0.12 -0.12)">
       <defs>
        <path id="DejaVuSans-31" d="M 794 531 
L 1825 531 
L 1825 4091 
L 703 3866 
L 703 4441 
L 1819 4666 
L 2450 4666 
L 2450 531 
L 3481 531 
L 3481 0 
L 794 0 
L 794 531 
z
" transform="scale(0.015625)"/>
       </defs>
       <use xlink:href="#DejaVuSans-31"/>
       <use xlink:href="#DejaVuSans-2e" transform="translate(63.623047 0)"/>
       <use xlink:href="#DejaVuSans-30" transform="translate(95.410156 0)"/>
      </g>
     </g>
    </g>
    <g id="text_7">
     <!-- 1 - Specificity -->
     <g transform="translate(255.213906 560.811562) scale(0.14 -0.14)">
      <defs>
       <path id="DejaVuSans-Bold-31" d="M 750 831 
L 1813 831 
L 1813 3847 
L 722 3622 
L 722 4441 
L 1806 4666 
L 2950 4666 
L 2950 831 
L 4013 831 
L 4013 0 
L 750 0 
L 750 831 
z
" transform="scale(0.015625)"/>
       <path id="DejaVuSans-Bold-20" transform="scale(0.015625)"/>
       <path id="DejaVuSans-Bold-2d" d="M 347 2297 
L 2309 2297 
L 2309 1388 
L 347 1388 
L 347 2297 
z
" transform="scale(0.015625)"/>
       <path id="DejaVuSans-Bold-53" d="M 3834 4519 
L 3834 3531 
Q 3450 3703 3084 3790 
Q 2719 3878 2394 3878 
Q 1963 3878 1756 3759 
Q 1550 3641 1550 3391 
Q 1550 3203 1689 3098 
Q 1828 2994 2194 2919 
L 2706 2816 
Q 3484 2659 3812 2340 
Q 4141 2022 4141 1434 
Q 4141 663 3683 286 
Q 3225 -91 2284 -91 
Q 1841 -91 1394 -6 
Q 947 78 500 244 
L 500 1259 
Q 947 1022 1364 901 
Q 1781 781 2169 781 
Q 2563 781 2772 912 
Q 2981 1044 2981 1288 
Q 2981 1506 2839 1625 
Q 2697 1744 2272 1838 
L 1806 1941 
Q 1106 2091 782 2419 
Q 459 2747 459 3303 
Q 459 4000 909 4375 
Q 1359 4750 2203 4750 
Q 2588 4750 2994 4692 
Q 3400 4634 3834 4519 
z
" transform="scale(0.015625)"/>
       <path id="DejaVuSans-Bold-70" d="M 1656 506 
L 1656 -1331 
L 538 -1331 
L 538 3500 
L 1656 3500 
L 1656 2988 
Q 1888 3294 2169 3439 
Q 2450 3584 2816 3584 
Q 3463 3584 3878 3070 
Q 4294 2556 4294 1747 
Q 4294 938 3878 423 
Q 3463 -91 2816 -91 
Q 2450 -91 2169 54 
Q 1888 200 1656 506 
z
M 2400 2772 
Q 2041 2772 1848 2508 
Q 1656 2244 1656 1747 
Q 1656 1250 1848 986 
Q 2041 722 2400 722 
Q 2759 722 2948 984 
Q 3138 1247 3138 1747 
Q 3138 2247 2948 2509 
Q 2759 2772 2400 2772 
z
" transform="scale(0.015625)"/>
       <path id="DejaVuSans-Bold-65" d="M 4031 1759 
L 4031 1441 
L 1416 1441 
Q 1456 1047 1700 850 
Q 1944 653 2381 653 
Q 2734 653 3104 758 
Q 3475 863 3866 1075 
L 3866 213 
Q 3469 63 3072 -14 
Q 2675 -91 2278 -91 
Q 1328 -91 801 392 
Q 275 875 275 1747 
Q 275 2603 792 3093 
Q 1309 3584 2216 3584 
Q 3041 3584 3536 3087 
Q 4031 2591 4031 1759 
z
M 2881 2131 
Q 2881 2450 2695 2645 
Q 2509 2841 2209 2841 
Q 1884 2841 1681 2658 
Q 1478 2475 1428 2131 
L 2881 2131 
z
" transform="scale(0.015625)"/>
       <path id="DejaVuSans-Bold-63" d="M 3366 3391 
L 3366 2478 
Q 3138 2634 2908 2709 
Q 2678 2784 2431 2784 
Q 1963 2784 1702 2511 
Q 1441 2238 1441 1747 
Q 1441 1256 1702 982 
Q 1963 709 2431 709 
Q 2694 709 2930 787 
Q 3166 866 3366 1019 
L 3366 103 
Q 3103 6 2833 -42 
Q 2563 -91 2291 -91 
Q 1344 -91 809 395 
Q 275 881 275 1747 
Q 275 2613 809 3098 
Q 1344 3584 2291 3584 
Q 2566 3584 2833 3536 
Q 3100 3488 3366 3391 
z
" transform="scale(0.015625)"/>
       <path id="DejaVuSans-Bold-69" d="M 538 3500 
L 1656 3500 
L 1656 0 
L 538 0 
L 538 3500 
z
M 538 4863 
L 1656 4863 
L 1656 3950 
L 538 3950 
L 538 4863 
z
" transform="scale(0.015625)"/>
       <path id="DejaVuSans-Bold-66" d="M 2841 4863 
L 2841 4128 
L 2222 4128 
Q 1984 4128 1890 4042 
Q 1797 3956 1797 3744 
L 1797 3500 
L 2753 3500 
L 2753 2700 
L 1797 2700 
L 1797 0 
L 678 0 
L 678 2700 
L 122 2700 
L 122 3500 
L 678 3500 
L 678 3744 
Q 678 4316 997 4589 
Q 1316 4863 1984 4863 
L 2841 4863 
z
" transform="scale(0.015625)"/>
       <path id="DejaVuSans-Bold-74" d="M 1759 4494 
L 1759 3500 
L 2913 3500 
L 2913 2700 
L 1759 2700 
L 1759 1216 
Q 1759 972 1856 886 
Q 1953 800 2241 800 
L 2816 800 
L 2816 0 
L 1856 0 
Q 1194 0 917 276 
Q 641 553 641 1216 
L 641 2700 
L 84 2700 
L 84 3500 
L 641 3500 
L 641 4494 
L 1759 4494 
z
" transform="scale(0.015625)"/>
       <path id="DejaVuSans-Bold-79" d="M 78 3500 
L 1197 3500 
L 2138 1125 
L 2938 3500 
L 4056 3500 
L 2584 -331 
Q 2363 -916 2067 -1148 
Q 1772 -1381 1288 -1381 
L 641 -1381 
L 641 -647 
L 991 -647 
Q 1275 -647 1404 -556 
Q 1534 -466 1606 -231 
L 1638 -134 
L 78 3500 
z
" transform="scale(0.015625)"/>
      </defs>
      <use xlink:href="#DejaVuSans-Bold-31"/>
      <use xlink:href="#DejaVuSans-Bold-20" transform="translate(69.580078 0)"/>
      <use xlink:href="#DejaVuSans-Bold-2d" transform="translate(104.394531 0)"/>
      <use xlink:href="#DejaVuSans-Bold-20" transform="translate(145.898438 0)"/>
      <use xlink:href="#DejaVuSans-Bold-53" transform="translate(180.712891 0)"/>
      <use xlink:href="#DejaVuSans-Bold-70" transform="translate(252.734375 0)"/>
      <use xlink:href="#DejaVuSans-Bold-65" transform="translate(324.316406 0)"/>
      <use xlink:href="#DejaVuSans-Bold-63" transform="translate(392.138672 0)"/>
      <use xlink:href="#DejaVuSans-Bold-69" transform="translate(451.416016 0)"/>
      <use xlink:href="#DejaVuSans-Bold-66" transform="translate(485.693359 0)"/>
      <use xlink:href="#DejaVuSans-Bold-69" transform="translate(529.199219 0)"/>
      <use xlink:href="#DejaVuSans-Bold-63" transform="translate(563.476562 0)"/>
      <use xlink:href="#DejaVuSans-Bold-69" transform="translate(622.753906 0)"/>
      <use xlink:href="#DejaVuSans-Bold-74" transform="translate(657.03125 0)"/>
      <use xlink:href="#DejaVuSans-Bold-79" transform="translate(704.833984 0)"/>
     </g>
    </g>
   </g>
   <g id="matplotlib.axis_2">
    <g id="ytick_1">
     <g id="line2d_7">
      <defs>
       <path id="m4bfc36353a" d="M 0 0 
L -3.5 0 
" style="stroke: #000000; stroke-width: 0.8"/>
      </defs>
      <g>
       <use xlink:href="#m4bfc36353a" x="59.495" y="517.959231" style="stroke: #000000; stroke-width: 0.8"/>
      </g>
     </g>
     <g id="text_8">
      <!-- 0.0 -->
      <g transform="translate(33.41125 522.518293) scale(0.12 -0.12)">
       <use xlink:href="#DejaVuSans-30"/>
       <use xlink:href="#DejaVuSans-2e" transform="translate(63.623047 0)"/>
       <use xlink:href="#DejaVuSans-30" transform="translate(95.410156 0)"/>
      </g>
     </g>
    </g>
    <g id="ytick_2">
     <g id="line2d_8">
      <g>
       <use xlink:href="#m4bfc36353a" x="59.495" y="421.951538" style="stroke: #000000; stroke-width: 0.8"/>
      </g>
     </g>
     <g id="text_9">
      <!-- 0.2 -->
      <g transform="translate(33.41125 426.510601) scale(0.12 -0.12)">
       <use xlink:href="#DejaVuSans-30"/>
       <use xlink:href="#DejaVuSans-2e" transform="translate(63.623047 0)"/>
       <use xlink:href="#DejaVuSans-32" transform="translate(95.410156 0)"/>
      </g>
     </g>
    </g>
    <g id="ytick_3">
     <g id="line2d_9">
      <g>
       <use xlink:href="#m4bfc36353a" x="59.495" y="325.943846" style="stroke: #000000; stroke-width: 0.8"/>
      </g>
     </g>
     <g id="text_10">
      <!-- 0.4 -->
      <g transform="translate(33.41125 330.502909) scale(0.12 -0.12)">
       <use xlink:href="#DejaVuSans-30"/>
       <use xlink:href="#DejaVuSans-2e" transform="translate(63.623047 0)"/>
       <use xlink:href="#DejaVuSans-34" transform="translate(95.410156 0)"/>
      </g>
     </g>
    </g>
    <g id="ytick_4">
     <g id="line2d_10">
      <g>
       <use xlink:href="#m4bfc36353a" x="59.495" y="229.936154" style="stroke: #000000; stroke-width: 0.8"/>
      </g>
     </g>
     <g id="text_11">
      <!-- 0.6 -->
      <g transform="translate(33.41125 234.495216) scale(0.12 -0.12)">
       <use xlink:href="#DejaVuSans-30"/>
       <use xlink:href="#DejaVuSans-2e" transform="translate(63.623047 0)"/>
       <use xlink:href="#DejaVuSans-36" transform="translate(95.410156 0)"/>
      </g>
     </g>
    </g>
    <g id="ytick_5">
     <g id="line2d_11">
      <g>
       <use xlink:href="#m4bfc36353a" x="59.495" y="133.928462" style="stroke: #000000; stroke-width: 0.8"/>
      </g>
     </g>
     <g id="text_12">
      <!-- 0.8 -->
      <g transform="translate(33.41125 138.487524) scale(0.12 -0.12)">
       <use xlink:href="#DejaVuSans-30"/>
       <use xlink:href="#DejaVuSans-2e" transform="translate(63.623047 0)"/>
       <use xlink:href="#DejaVuSans-38" transform="translate(95.410156 0)"/>
      </g>
     </g>
    </g>
    <g id="ytick_6">
     <g id="line2d_12">
      <g>
       <use xlink:href="#m4bfc36353a" x="59.495" y="37.920769" style="stroke: #000000; stroke-width: 0.8"/>
      </g>
     </g>
     <g id="text_13">
      <!-- 1.0 -->
      <g transform="translate(33.41125 42.479832) scale(0.12 -0.12)">
       <use xlink:href="#DejaVuSans-31"/>
       <use xlink:href="#DejaVuSans-2e" transform="translate(63.623047 0)"/>
       <use xlink:href="#DejaVuSans-30" transform="translate(95.410156 0)"/>
      </g>
     </g>
    </g>
    <g id="text_14">
     <!-- Sensitivity -->
     <g transform="translate(26.390312 319.895156) rotate(-90) scale(0.14 -0.14)">
      <defs>
       <path id="DejaVuSans-Bold-6e" d="M 4056 2131 
L 4056 0 
L 2931 0 
L 2931 347 
L 2931 1631 
Q 2931 2084 2911 2256 
Q 2891 2428 2841 2509 
Q 2775 2619 2662 2680 
Q 2550 2741 2406 2741 
Q 2056 2741 1856 2470 
Q 1656 2200 1656 1722 
L 1656 0 
L 538 0 
L 538 3500 
L 1656 3500 
L 1656 2988 
Q 1909 3294 2193 3439 
Q 2478 3584 2822 3584 
Q 3428 3584 3742 3212 
Q 4056 2841 4056 2131 
z
" transform="scale(0.015625)"/>
       <path id="DejaVuSans-Bold-73" d="M 3272 3391 
L 3272 2541 
Q 2913 2691 2578 2766 
Q 2244 2841 1947 2841 
Q 1628 2841 1473 2761 
Q 1319 2681 1319 2516 
Q 1319 2381 1436 2309 
Q 1553 2238 1856 2203 
L 2053 2175 
Q 2913 2066 3209 1816 
Q 3506 1566 3506 1031 
Q 3506 472 3093 190 
Q 2681 -91 1863 -91 
Q 1516 -91 1145 -36 
Q 775 19 384 128 
L 384 978 
Q 719 816 1070 734 
Q 1422 653 1784 653 
Q 2113 653 2278 743 
Q 2444 834 2444 1013 
Q 2444 1163 2330 1236 
Q 2216 1309 1875 1350 
L 1678 1375 
Q 931 1469 631 1722 
Q 331 1975 331 2491 
Q 331 3047 712 3315 
Q 1094 3584 1881 3584 
Q 2191 3584 2531 3537 
Q 2872 3491 3272 3391 
z
" transform="scale(0.015625)"/>
       <path id="DejaVuSans-Bold-76" d="M 97 3500 
L 1216 3500 
L 2088 1081 
L 2956 3500 
L 4078 3500 
L 2700 0 
L 1472 0 
L 97 3500 
z
" transform="scale(0.015625)"/>
      </defs>
      <use xlink:href="#DejaVuSans-Bold-53"/>
      <use xlink:href="#DejaVuSans-Bold-65" transform="translate(72.021484 0)"/>
      <use xlink:href="#DejaVuSans-Bold-6e" transform="translate(139.84375 0)"/>
      <use xlink:href="#DejaVuSans-Bold-73" transform="translate(211.035156 0)"/>
      <use xlink:href="#DejaVuSans-Bold-69" transform="translate(270.556641 0)"/>
      <use xlink:href="#DejaVuSans-Bold-74" transform="translate(304.833984 0)"/>
      <use xlink:href="#DejaVuSans-Bold-69" transform="translate(352.636719 0)"/>
      <use xlink:href="#DejaVuSans-Bold-76" transform="translate(386.914062 0)"/>
      <use xlink:href="#DejaVuSans-Bold-69" transform="translate(452.099609 0)"/>
      <use xlink:href="#DejaVuSans-Bold-74" transform="translate(486.376953 0)"/>
      <use xlink:href="#DejaVuSans-Bold-79" transform="translate(534.179688 0)"/>
     </g>
    </g>
   </g>
   <g id="line2d_13">
    <path d="M 69.095769 517.959231 
L 73.944643 355.344329 
L 78.793516 265.184518 
L 83.642389 199.432754 
L 88.491263 172.602092 
L 93.340136 149.295443 
L 98.189009 131.203702 
L 103.037883 119.613704 
L 107.886756 113.22852 
L 112.735629 107.211499 
L 117.584503 103.242297 
L 122.433376 99.289217 
L 127.282249 96.50427 
L 132.131123 93.668648 
L 136.979996 90.936959 
L 141.828869 88.633416 
L 146.677743 86.620556 
L 151.526616 84.673795 
L 156.37549 83.016447 
L 161.224363 81.637838 
L 166.073236 80.511927 
L 170.92211 79.342907 
L 175.770983 78.180861 
L 180.619856 77.345031 
L 185.46873 76.544243 
L 190.317603 75.778662 
L 195.166476 75.147353 
L 200.01535 74.58802 
L 204.864223 74.185943 
L 209.713096 73.83433 
L 214.56197 73.451106 
L 219.410843 73.218733 
L 224.259716 72.993792 
L 229.10859 72.765574 
L 233.957463 72.595062 
L 238.806336 72.380628 
L 243.65521 72.07396 
L 248.504083 71.725597 
L 253.352956 71.330797 
L 258.20183 70.821283 
L 263.050703 70.130922 
L 267.899577 69.524338 
L 272.74845 68.644951 
L 277.597323 67.714442 
L 282.446197 66.607239 
L 287.29507 65.477055 
L 292.143943 64.317318 
L 296.992817 62.886218 
L 301.84169 61.555 
L 306.690563 59.693691 
L 311.539437 58.724116 
L 316.38831 56.913367 
L 321.237183 55.617806 
L 326.086057 54.004329 
L 330.93493 52.827932 
L 335.783803 51.682558 
L 340.632677 50.624493 
L 345.48155 49.581218 
L 350.330423 48.857182 
L 355.179297 48.200707 
L 360.02817 47.689605 
L 364.877044 47.359861 
L 369.725917 47.127986 
L 374.57479 46.923263 
L 379.423664 46.80145 
L 384.272537 46.732147 
L 389.12141 46.664296 
L 393.970284 46.645113 
L 398.819157 46.62724 
L 403.66803 46.62724 
L 408.516904 46.615103 
L 413.365777 46.612055 
L 418.21465 46.599322 
L 423.063524 46.599322 
L 427.912397 46.582239 
L 432.76127 46.568873 
L 437.610144 46.532046 
L 442.459017 46.480056 
L 447.30789 46.37968 
L 452.156764 46.178418 
L 457.005637 45.943556 
L 461.85451 45.578419 
L 466.703384 45.122431 
L 471.552257 44.519564 
L 476.401131 43.850268 
L 481.250004 43.115367 
L 486.098877 42.220392 
L 490.947751 41.385576 
L 495.796624 40.490559 
L 500.645497 39.789511 
L 505.494371 39.171229 
L 510.343244 38.654622 
L 515.192117 38.345485 
L 520.040991 38.120034 
L 524.889864 37.99447 
L 529.738737 37.941141 
L 534.587611 37.930597 
L 539.436484 37.925341 
L 544.285357 37.920769 
L 549.134231 37.920769 
" clip-path="url(#pd7d5f39e6c)" style="fill: none; stroke: #3c5488; stroke-width: 2; stroke-linecap: square"/>
   </g>
   <g id="line2d_14">
    <path d="M 69.095769 517.959231 
L 73.944643 197.391867 
L 78.793516 197.391867 
L 83.642389 197.391867 
L 88.491263 197.391867 
L 93.340136 197.391867 
L 98.189009 197.391867 
L 103.037883 197.391867 
L 107.886756 197.391867 
L 112.735629 197.391867 
L 117.584503 197.391867 
L 122.433376 197.327862 
L 127.282249 197.327862 
L 132.131123 197.015837 
L 136.979996 197.015837 
L 141.828869 195.863744 
L 146.677743 195.863744 
L 151.526616 193.703571 
L 156.37549 193.703571 
L 161.224363 193.703571 
L 166.073236 190.91249 
L 170.92211 190.91249 
L 175.770983 190.65647 
L 180.619856 190.65647 
L 185.46873 190.65647 
L 190.317603 186.024099 
L 195.166476 186.024099 
L 200.01535 185.832083 
L 204.864223 185.832083 
L 209.713096 183.124666 
L 214.56197 182.836643 
L 219.410843 182.836643 
L 224.259716 182.836643 
L 229.10859 174.681323 
L 233.957463 174.681323 
L 238.806336 174.681323 
L 243.65521 174.585316 
L 248.504083 174.585316 
L 253.352956 171.873098 
L 258.20183 171.873098 
L 263.050703 164.370783 
L 267.899577 164.370783 
L 272.74845 164.370783 
L 277.597323 158.130283 
L 282.446197 156.914185 
L 287.29507 156.914185 
L 292.143943 156.914185 
L 296.992817 156.914185 
L 301.84169 156.914185 
L 306.690563 156.914185 
L 311.539437 134.202766 
L 316.38831 134.202766 
L 321.237183 134.202766 
L 326.086057 134.202766 
L 330.93493 134.202766 
L 335.783803 132.154602 
L 340.632677 132.154602 
L 345.48155 122.918662 
L 350.330423 122.918662 
L 355.179297 122.918662 
L 360.02817 112.234377 
L 364.877044 112.234377 
L 369.725917 107.121967 
L 374.57479 107.02596 
L 379.423664 107.02596 
L 384.272537 107.02596 
L 389.12141 90.896667 
L 393.970284 90.896667 
L 398.819157 90.896667 
L 403.66803 90.896667 
L 408.516904 90.17661 
L 413.365777 82.956831 
L 418.21465 82.956831 
L 423.063524 82.956831 
L 427.912397 82.956831 
L 432.76127 72.648005 
L 437.610144 72.648005 
L 442.459017 71.047877 
L 447.30789 71.047877 
L 452.156764 71.047877 
L 457.005637 62.900939 
L 461.85451 62.900939 
L 466.703384 62.900939 
L 471.552257 56.324412 
L 476.401131 56.324412 
L 481.250004 52.714522 
L 486.098877 52.714522 
L 490.947751 50.506346 
L 495.796624 49.770287 
L 500.645497 49.770287 
L 505.494371 49.43426 
L 510.343244 49.43426 
L 515.192117 49.43426 
L 520.040991 49.43426 
L 524.889864 49.43426 
L 529.738737 49.43426 
L 534.587611 49.43426 
L 539.436484 49.43426 
L 544.285357 49.43426 
L 549.134231 37.920769 
" clip-path="url(#pd7d5f39e6c)" style="fill: none; stroke: #dc0000; stroke-width: 2; stroke-linecap: square"/>
   </g>
   <g id="line2d_15">
    <path d="M 69.095769 517.959231 
L 549.134231 37.920769 
" clip-path="url(#pd7d5f39e6c)" style="fill: none; stroke-dasharray: 3.7,1.6; stroke-dashoffset: 0; stroke: #999999"/>
   </g>
   <g id="patch_3">
    <path d="M 59.495 527.56 
L 59.495 28.32 
" style="fill: none; stroke: #000000; stroke-width: 1.5; stroke-linejoin: miter; stroke-linecap: square"/>
   </g>
   <g id="patch_4">
    <path d="M 558.735 527.56 
L 558.735 28.32 
" style="fill: none; stroke: #000000; stroke-width: 1.5; stroke-linejoin: miter; stroke-linecap: square"/>
   </g>
   <g id="patch_5">
    <path d="M 59.495 527.56 
L 558.735 527.56 
" style="fill: none; stroke: #000000; stroke-width: 1.5; stroke-linejoin: miter; stroke-linecap: square"/>
   </g>
   <g id="patch_6">
    <path d="M 59.495 28.32 
L 558.735 28.32 
" style="fill: none; stroke: #000000; stroke-width: 1.5; stroke-linejoin: miter; stroke-linecap: square"/>
   </g>
   <g id="text_15">
    <!-- ROC Curve - KNN (n_neighbors=51) -->
    <g transform="translate(150.02375 22.32) scale(0.16 -0.16)">
     <defs>
      <path id="DejaVuSans-Bold-52" d="M 2297 2597 
Q 2675 2597 2839 2737 
Q 3003 2878 3003 3200 
Q 3003 3519 2839 3656 
Q 2675 3794 2297 3794 
L 1791 3794 
L 1791 2597 
L 2297 2597 
z
M 1791 1766 
L 1791 0 
L 588 0 
L 588 4666 
L 2425 4666 
Q 3347 4666 3776 4356 
Q 4206 4047 4206 3378 
Q 4206 2916 3982 2619 
Q 3759 2322 3309 2181 
Q 3556 2125 3751 1926 
Q 3947 1728 4147 1325 
L 4800 0 
L 3519 0 
L 2950 1159 
Q 2778 1509 2601 1637 
Q 2425 1766 2131 1766 
L 1791 1766 
z
" transform="scale(0.015625)"/>
      <path id="DejaVuSans-Bold-4f" d="M 2719 3878 
Q 2169 3878 1866 3472 
Q 1563 3066 1563 2328 
Q 1563 1594 1866 1187 
Q 2169 781 2719 781 
Q 3272 781 3575 1187 
Q 3878 1594 3878 2328 
Q 3878 3066 3575 3472 
Q 3272 3878 2719 3878 
z
M 2719 4750 
Q 3844 4750 4481 4106 
Q 5119 3463 5119 2328 
Q 5119 1197 4481 553 
Q 3844 -91 2719 -91 
Q 1597 -91 958 553 
Q 319 1197 319 2328 
Q 319 3463 958 4106 
Q 1597 4750 2719 4750 
z
" transform="scale(0.015625)"/>
      <path id="DejaVuSans-Bold-43" d="M 4288 256 
Q 3956 84 3597 -3 
Q 3238 -91 2847 -91 
Q 1681 -91 1000 561 
Q 319 1213 319 2328 
Q 319 3447 1000 4098 
Q 1681 4750 2847 4750 
Q 3238 4750 3597 4662 
Q 3956 4575 4288 4403 
L 4288 3438 
Q 3953 3666 3628 3772 
Q 3303 3878 2944 3878 
Q 2300 3878 1931 3465 
Q 1563 3053 1563 2328 
Q 1563 1606 1931 1193 
Q 2300 781 2944 781 
Q 3303 781 3628 887 
Q 3953 994 4288 1222 
L 4288 256 
z
" transform="scale(0.015625)"/>
      <path id="DejaVuSans-Bold-75" d="M 500 1363 
L 500 3500 
L 1625 3500 
L 1625 3150 
Q 1625 2866 1622 2436 
Q 1619 2006 1619 1863 
Q 1619 1441 1641 1255 
Q 1663 1069 1716 984 
Q 1784 875 1895 815 
Q 2006 756 2150 756 
Q 2500 756 2700 1025 
Q 2900 1294 2900 1772 
L 2900 3500 
L 4019 3500 
L 4019 0 
L 2900 0 
L 2900 506 
Q 2647 200 2364 54 
Q 2081 -91 1741 -91 
Q 1134 -91 817 281 
Q 500 653 500 1363 
z
" transform="scale(0.015625)"/>
      <path id="DejaVuSans-Bold-72" d="M 3138 2547 
Q 2991 2616 2845 2648 
Q 2700 2681 2553 2681 
Q 2122 2681 1889 2404 
Q 1656 2128 1656 1613 
L 1656 0 
L 538 0 
L 538 3500 
L 1656 3500 
L 1656 2925 
Q 1872 3269 2151 3426 
Q 2431 3584 2822 3584 
Q 2878 3584 2943 3579 
Q 3009 3575 3134 3559 
L 3138 2547 
z
" transform="scale(0.015625)"/>
      <path id="DejaVuSans-Bold-4b" d="M 588 4666 
L 1791 4666 
L 1791 2963 
L 3525 4666 
L 4922 4666 
L 2675 2456 
L 5153 0 
L 3647 0 
L 1791 1838 
L 1791 0 
L 588 0 
L 588 4666 
z
" transform="scale(0.015625)"/>
      <path id="DejaVuSans-Bold-4e" d="M 588 4666 
L 1931 4666 
L 3628 1466 
L 3628 4666 
L 4769 4666 
L 4769 0 
L 3425 0 
L 1728 3200 
L 1728 0 
L 588 0 
L 588 4666 
z
" transform="scale(0.015625)"/>
      <path id="DejaVuSans-Bold-28" d="M 2413 -844 
L 1484 -844 
Q 1006 -72 778 623 
Q 550 1319 550 2003 
Q 550 2688 779 3389 
Q 1009 4091 1484 4856 
L 2413 4856 
Q 2013 4116 1813 3408 
Q 1613 2700 1613 2009 
Q 1613 1319 1811 609 
Q 2009 -100 2413 -844 
z
" transform="scale(0.015625)"/>
      <path id="DejaVuSans-Bold-5f" d="M 3200 -916 
L 3200 -1509 
L 0 -1509 
L 0 -916 
L 3200 -916 
z
" transform="scale(0.015625)"/>
      <path id="DejaVuSans-Bold-67" d="M 2919 594 
Q 2688 288 2409 144 
Q 2131 0 1766 0 
Q 1125 0 706 504 
Q 288 1009 288 1791 
Q 288 2575 706 3076 
Q 1125 3578 1766 3578 
Q 2131 3578 2409 3434 
Q 2688 3291 2919 2981 
L 2919 3500 
L 4044 3500 
L 4044 353 
Q 4044 -491 3511 -936 
Q 2978 -1381 1966 -1381 
Q 1638 -1381 1331 -1331 
Q 1025 -1281 716 -1178 
L 716 -306 
Q 1009 -475 1290 -558 
Q 1572 -641 1856 -641 
Q 2406 -641 2662 -400 
Q 2919 -159 2919 353 
L 2919 594 
z
M 2181 2772 
Q 1834 2772 1640 2515 
Q 1447 2259 1447 1791 
Q 1447 1309 1634 1061 
Q 1822 813 2181 813 
Q 2531 813 2725 1069 
Q 2919 1325 2919 1791 
Q 2919 2259 2725 2515 
Q 2531 2772 2181 2772 
z
" transform="scale(0.015625)"/>
      <path id="DejaVuSans-Bold-68" d="M 4056 2131 
L 4056 0 
L 2931 0 
L 2931 347 
L 2931 1625 
Q 2931 2084 2911 2256 
Q 2891 2428 2841 2509 
Q 2775 2619 2662 2680 
Q 2550 2741 2406 2741 
Q 2056 2741 1856 2470 
Q 1656 2200 1656 1722 
L 1656 0 
L 538 0 
L 538 4863 
L 1656 4863 
L 1656 2988 
Q 1909 3294 2193 3439 
Q 2478 3584 2822 3584 
Q 3428 3584 3742 3212 
Q 4056 2841 4056 2131 
z
" transform="scale(0.015625)"/>
      <path id="DejaVuSans-Bold-62" d="M 2400 722 
Q 2759 722 2948 984 
Q 3138 1247 3138 1747 
Q 3138 2247 2948 2509 
Q 2759 2772 2400 2772 
Q 2041 2772 1848 2508 
Q 1656 2244 1656 1747 
Q 1656 1250 1848 986 
Q 2041 722 2400 722 
z
M 1656 2988 
Q 1888 3294 2169 3439 
Q 2450 3584 2816 3584 
Q 3463 3584 3878 3070 
Q 4294 2556 4294 1747 
Q 4294 938 3878 423 
Q 3463 -91 2816 -91 
Q 2450 -91 2169 54 
Q 1888 200 1656 506 
L 1656 0 
L 538 0 
L 538 4863 
L 1656 4863 
L 1656 2988 
z
" transform="scale(0.015625)"/>
      <path id="DejaVuSans-Bold-6f" d="M 2203 2784 
Q 1831 2784 1636 2517 
Q 1441 2250 1441 1747 
Q 1441 1244 1636 976 
Q 1831 709 2203 709 
Q 2569 709 2762 976 
Q 2956 1244 2956 1747 
Q 2956 2250 2762 2517 
Q 2569 2784 2203 2784 
z
M 2203 3584 
Q 3106 3584 3614 3096 
Q 4122 2609 4122 1747 
Q 4122 884 3614 396 
Q 3106 -91 2203 -91 
Q 1297 -91 786 396 
Q 275 884 275 1747 
Q 275 2609 786 3096 
Q 1297 3584 2203 3584 
z
" transform="scale(0.015625)"/>
      <path id="DejaVuSans-Bold-3d" d="M 678 3084 
L 4684 3084 
L 4684 2350 
L 678 2350 
L 678 3084 
z
M 678 1663 
L 4684 1663 
L 4684 922 
L 678 922 
L 678 1663 
z
" transform="scale(0.015625)"/>
      <path id="DejaVuSans-Bold-35" d="M 678 4666 
L 3669 4666 
L 3669 3781 
L 1638 3781 
L 1638 3059 
Q 1775 3097 1914 3117 
Q 2053 3138 2203 3138 
Q 3056 3138 3531 2711 
Q 4006 2284 4006 1522 
Q 4006 766 3489 337 
Q 2972 -91 2053 -91 
Q 1656 -91 1267 -14 
Q 878 63 494 219 
L 494 1166 
Q 875 947 1217 837 
Q 1559 728 1863 728 
Q 2300 728 2551 942 
Q 2803 1156 2803 1522 
Q 2803 1891 2551 2103 
Q 2300 2316 1863 2316 
Q 1603 2316 1309 2248 
Q 1016 2181 678 2041 
L 678 4666 
z
" transform="scale(0.015625)"/>
      <path id="DejaVuSans-Bold-29" d="M 513 -844 
Q 913 -100 1113 609 
Q 1313 1319 1313 2009 
Q 1313 2700 1113 3408 
Q 913 4116 513 4856 
L 1441 4856 
Q 1916 4091 2145 3389 
Q 2375 2688 2375 2003 
Q 2375 1319 2147 623 
Q 1919 -72 1441 -844 
L 513 -844 
z
" transform="scale(0.015625)"/>
     </defs>
     <use xlink:href="#DejaVuSans-Bold-52"/>
     <use xlink:href="#DejaVuSans-Bold-4f" transform="translate(77.001953 0)"/>
     <use xlink:href="#DejaVuSans-Bold-43" transform="translate(162.011719 0)"/>
     <use xlink:href="#DejaVuSans-Bold-20" transform="translate(235.400391 0)"/>
     <use xlink:href="#DejaVuSans-Bold-43" transform="translate(270.214844 0)"/>
     <use xlink:href="#DejaVuSans-Bold-75" transform="translate(343.603516 0)"/>
     <use xlink:href="#DejaVuSans-Bold-72" transform="translate(414.794922 0)"/>
     <use xlink:href="#DejaVuSans-Bold-76" transform="translate(464.111328 0)"/>
     <use xlink:href="#DejaVuSans-Bold-65" transform="translate(529.296875 0)"/>
     <use xlink:href="#DejaVuSans-Bold-20" transform="translate(597.119141 0)"/>
     <use xlink:href="#DejaVuSans-Bold-2d" transform="translate(631.933594 0)"/>
     <use xlink:href="#DejaVuSans-Bold-20" transform="translate(673.4375 0)"/>
     <use xlink:href="#DejaVuSans-Bold-4b" transform="translate(708.251953 0)"/>
     <use xlink:href="#DejaVuSans-Bold-4e" transform="translate(785.742188 0)"/>
     <use xlink:href="#DejaVuSans-Bold-4e" transform="translate(869.433594 0)"/>
     <use xlink:href="#DejaVuSans-Bold-20" transform="translate(953.125 0)"/>
     <use xlink:href="#DejaVuSans-Bold-28" transform="translate(987.939453 0)"/>
     <use xlink:href="#DejaVuSans-Bold-6e" transform="translate(1033.642578 0)"/>
     <use xlink:href="#DejaVuSans-Bold-5f" transform="translate(1104.833984 0)"/>
     <use xlink:href="#DejaVuSans-Bold-6e" transform="translate(1154.833984 0)"/>
     <use xlink:href="#DejaVuSans-Bold-65" transform="translate(1226.025391 0)"/>
     <use xlink:href="#DejaVuSans-Bold-69" transform="translate(1293.847656 0)"/>
     <use xlink:href="#DejaVuSans-Bold-67" transform="translate(1328.125 0)"/>
     <use xlink:href="#DejaVuSans-Bold-68" transform="translate(1399.707031 0)"/>
     <use xlink:href="#DejaVuSans-Bold-62" transform="translate(1470.898438 0)"/>
     <use xlink:href="#DejaVuSans-Bold-6f" transform="translate(1542.480469 0)"/>
     <use xlink:href="#DejaVuSans-Bold-72" transform="translate(1611.181641 0)"/>
     <use xlink:href="#DejaVuSans-Bold-73" transform="translate(1660.498047 0)"/>
     <use xlink:href="#DejaVuSans-Bold-3d" transform="translate(1720.019531 0)"/>
     <use xlink:href="#DejaVuSans-Bold-35" transform="translate(1803.808594 0)"/>
     <use xlink:href="#DejaVuSans-Bold-31" transform="translate(1873.388672 0)"/>
     <use xlink:href="#DejaVuSans-Bold-29" transform="translate(1942.96875 0)"/>
    </g>
   </g>
   <g id="legend_1">
    <g id="line2d_16">
     <path d="M 178.583594 495.376406 
L 189.583594 495.376406 
L 200.583594 495.376406 
" style="fill: none; stroke: #3c5488; stroke-width: 2; stroke-linecap: square"/>
    </g>
    <g id="text_16">
     <!-- KNN(51) GSE225846 (AUC=0.930, 95%CI=0.875-0.973) -->
     <g transform="translate(209.383594 499.226406) scale(0.11 -0.11)">
      <defs>
       <path id="DejaVuSans-Bold-47" d="M 4781 347 
Q 4331 128 3847 18 
Q 3363 -91 2847 -91 
Q 1681 -91 1000 561 
Q 319 1213 319 2328 
Q 319 3456 1012 4103 
Q 1706 4750 2913 4750 
Q 3378 4750 3804 4662 
Q 4231 4575 4609 4403 
L 4609 3438 
Q 4219 3659 3833 3768 
Q 3447 3878 3059 3878 
Q 2341 3878 1952 3476 
Q 1563 3075 1563 2328 
Q 1563 1588 1938 1184 
Q 2313 781 3003 781 
Q 3191 781 3352 804 
Q 3513 828 3641 878 
L 3641 1784 
L 2906 1784 
L 2906 2591 
L 4781 2591 
L 4781 347 
z
" transform="scale(0.015625)"/>
       <path id="DejaVuSans-Bold-45" d="M 588 4666 
L 3834 4666 
L 3834 3756 
L 1791 3756 
L 1791 2888 
L 3713 2888 
L 3713 1978 
L 1791 1978 
L 1791 909 
L 3903 909 
L 3903 0 
L 588 0 
L 588 4666 
z
" transform="scale(0.015625)"/>
       <path id="DejaVuSans-Bold-32" d="M 1844 884 
L 3897 884 
L 3897 0 
L 506 0 
L 506 884 
L 2209 2388 
Q 2438 2594 2547 2791 
Q 2656 2988 2656 3200 
Q 2656 3528 2436 3728 
Q 2216 3928 1850 3928 
Q 1569 3928 1234 3808 
Q 900 3688 519 3450 
L 519 4475 
Q 925 4609 1322 4679 
Q 1719 4750 2100 4750 
Q 2938 4750 3402 4381 
Q 3866 4013 3866 3353 
Q 3866 2972 3669 2642 
Q 3472 2313 2841 1759 
L 1844 884 
z
" transform="scale(0.015625)"/>
       <path id="DejaVuSans-Bold-38" d="M 2228 2088 
Q 1891 2088 1709 1903 
Q 1528 1719 1528 1375 
Q 1528 1031 1709 848 
Q 1891 666 2228 666 
Q 2563 666 2741 848 
Q 2919 1031 2919 1375 
Q 2919 1722 2741 1905 
Q 2563 2088 2228 2088 
z
M 1350 2484 
Q 925 2613 709 2878 
Q 494 3144 494 3541 
Q 494 4131 934 4440 
Q 1375 4750 2228 4750 
Q 3075 4750 3515 4442 
Q 3956 4134 3956 3541 
Q 3956 3144 3739 2878 
Q 3522 2613 3097 2484 
Q 3572 2353 3814 2058 
Q 4056 1763 4056 1313 
Q 4056 619 3595 264 
Q 3134 -91 2228 -91 
Q 1319 -91 855 264 
Q 391 619 391 1313 
Q 391 1763 633 2058 
Q 875 2353 1350 2484 
z
M 1631 3419 
Q 1631 3141 1786 2991 
Q 1941 2841 2228 2841 
Q 2509 2841 2662 2991 
Q 2816 3141 2816 3419 
Q 2816 3697 2662 3845 
Q 2509 3994 2228 3994 
Q 1941 3994 1786 3844 
Q 1631 3694 1631 3419 
z
" transform="scale(0.015625)"/>
       <path id="DejaVuSans-Bold-34" d="M 2356 3675 
L 1038 1722 
L 2356 1722 
L 2356 3675 
z
M 2156 4666 
L 3494 4666 
L 3494 1722 
L 4159 1722 
L 4159 850 
L 3494 850 
L 3494 0 
L 2356 0 
L 2356 850 
L 288 850 
L 288 1881 
L 2156 4666 
z
" transform="scale(0.015625)"/>
       <path id="DejaVuSans-Bold-36" d="M 2316 2303 
Q 2000 2303 1842 2098 
Q 1684 1894 1684 1484 
Q 1684 1075 1842 870 
Q 2000 666 2316 666 
Q 2634 666 2792 870 
Q 2950 1075 2950 1484 
Q 2950 1894 2792 2098 
Q 2634 2303 2316 2303 
z
M 3803 4544 
L 3803 3681 
Q 3506 3822 3243 3889 
Q 2981 3956 2731 3956 
Q 2194 3956 1894 3657 
Q 1594 3359 1544 2772 
Q 1750 2925 1990 3001 
Q 2231 3078 2516 3078 
Q 3231 3078 3670 2659 
Q 4109 2241 4109 1563 
Q 4109 813 3618 361 
Q 3128 -91 2303 -91 
Q 1394 -91 895 523 
Q 397 1138 397 2266 
Q 397 3422 980 4083 
Q 1563 4744 2578 4744 
Q 2900 4744 3203 4694 
Q 3506 4644 3803 4544 
z
" transform="scale(0.015625)"/>
       <path id="DejaVuSans-Bold-41" d="M 3419 850 
L 1538 850 
L 1241 0 
L 31 0 
L 1759 4666 
L 3194 4666 
L 4922 0 
L 3713 0 
L 3419 850 
z
M 1838 1716 
L 3116 1716 
L 2478 3572 
L 1838 1716 
z
" transform="scale(0.015625)"/>
       <path id="DejaVuSans-Bold-55" d="M 588 4666 
L 1791 4666 
L 1791 1869 
Q 1791 1291 1980 1042 
Q 2169 794 2597 794 
Q 3028 794 3217 1042 
Q 3406 1291 3406 1869 
L 3406 4666 
L 4609 4666 
L 4609 1869 
Q 4609 878 4112 393 
Q 3616 -91 2597 -91 
Q 1581 -91 1084 393 
Q 588 878 588 1869 
L 588 4666 
z
" transform="scale(0.015625)"/>
       <path id="DejaVuSans-Bold-30" d="M 2944 2338 
Q 2944 3213 2780 3570 
Q 2616 3928 2228 3928 
Q 1841 3928 1675 3570 
Q 1509 3213 1509 2338 
Q 1509 1453 1675 1090 
Q 1841 728 2228 728 
Q 2613 728 2778 1090 
Q 2944 1453 2944 2338 
z
M 4147 2328 
Q 4147 1169 3647 539 
Q 3147 -91 2228 -91 
Q 1306 -91 806 539 
Q 306 1169 306 2328 
Q 306 3491 806 4120 
Q 1306 4750 2228 4750 
Q 3147 4750 3647 4120 
Q 4147 3491 4147 2328 
z
" transform="scale(0.015625)"/>
       <path id="DejaVuSans-Bold-2e" d="M 653 1209 
L 1778 1209 
L 1778 0 
L 653 0 
L 653 1209 
z
" transform="scale(0.015625)"/>
       <path id="DejaVuSans-Bold-39" d="M 641 103 
L 641 966 
Q 928 831 1190 764 
Q 1453 697 1709 697 
Q 2247 697 2547 995 
Q 2847 1294 2900 1881 
Q 2688 1725 2447 1647 
Q 2206 1569 1925 1569 
Q 1209 1569 770 1986 
Q 331 2403 331 3084 
Q 331 3838 820 4291 
Q 1309 4744 2131 4744 
Q 3044 4744 3544 4128 
Q 4044 3513 4044 2388 
Q 4044 1231 3459 570 
Q 2875 -91 1856 -91 
Q 1528 -91 1228 -42 
Q 928 6 641 103 
z
M 2125 2350 
Q 2441 2350 2600 2554 
Q 2759 2759 2759 3169 
Q 2759 3575 2600 3781 
Q 2441 3988 2125 3988 
Q 1809 3988 1650 3781 
Q 1491 3575 1491 3169 
Q 1491 2759 1650 2554 
Q 1809 2350 2125 2350 
z
" transform="scale(0.015625)"/>
       <path id="DejaVuSans-Bold-33" d="M 2981 2516 
Q 3453 2394 3698 2092 
Q 3944 1791 3944 1325 
Q 3944 631 3412 270 
Q 2881 -91 1863 -91 
Q 1503 -91 1142 -33 
Q 781 25 428 141 
L 428 1069 
Q 766 900 1098 814 
Q 1431 728 1753 728 
Q 2231 728 2486 893 
Q 2741 1059 2741 1369 
Q 2741 1688 2480 1852 
Q 2219 2016 1709 2016 
L 1228 2016 
L 1228 2791 
L 1734 2791 
Q 2188 2791 2409 2933 
Q 2631 3075 2631 3366 
Q 2631 3634 2415 3781 
Q 2200 3928 1806 3928 
Q 1516 3928 1219 3862 
Q 922 3797 628 3669 
L 628 4550 
Q 984 4650 1334 4700 
Q 1684 4750 2022 4750 
Q 2931 4750 3382 4451 
Q 3834 4153 3834 3553 
Q 3834 3144 3618 2883 
Q 3403 2622 2981 2516 
z
" transform="scale(0.015625)"/>
       <path id="DejaVuSans-Bold-2c" d="M 653 1209 
L 1778 1209 
L 1778 256 
L 1006 -909 
L 341 -909 
L 653 256 
L 653 1209 
z
" transform="scale(0.015625)"/>
       <path id="DejaVuSans-Bold-25" d="M 4959 1925 
Q 4738 1925 4616 1733 
Q 4494 1541 4494 1184 
Q 4494 825 4614 633 
Q 4734 441 4959 441 
Q 5184 441 5303 633 
Q 5422 825 5422 1184 
Q 5422 1541 5301 1733 
Q 5181 1925 4959 1925 
z
M 4959 2450 
Q 5541 2450 5875 2112 
Q 6209 1775 6209 1184 
Q 6209 594 5875 251 
Q 5541 -91 4959 -91 
Q 4378 -91 4042 251 
Q 3706 594 3706 1184 
Q 3706 1772 4042 2111 
Q 4378 2450 4959 2450 
z
M 2094 -91 
L 1403 -91 
L 4319 4750 
L 5013 4750 
L 2094 -91 
z
M 1453 4750 
Q 2034 4750 2367 4411 
Q 2700 4072 2700 3481 
Q 2700 2891 2367 2550 
Q 2034 2209 1453 2209 
Q 872 2209 539 2550 
Q 206 2891 206 3481 
Q 206 4072 539 4411 
Q 872 4750 1453 4750 
z
M 1453 4225 
Q 1228 4225 1106 4031 
Q 984 3838 984 3481 
Q 984 3122 1106 2926 
Q 1228 2731 1453 2731 
Q 1678 2731 1798 2926 
Q 1919 3122 1919 3481 
Q 1919 3838 1797 4031 
Q 1675 4225 1453 4225 
z
" transform="scale(0.015625)"/>
       <path id="DejaVuSans-Bold-49" d="M 588 4666 
L 1791 4666 
L 1791 0 
L 588 0 
L 588 4666 
z
" transform="scale(0.015625)"/>
       <path id="DejaVuSans-Bold-37" d="M 428 4666 
L 3944 4666 
L 3944 3988 
L 2125 0 
L 953 0 
L 2675 3781 
L 428 3781 
L 428 4666 
z
" transform="scale(0.015625)"/>
      </defs>
      <use xlink:href="#DejaVuSans-Bold-4b"/>
      <use xlink:href="#DejaVuSans-Bold-4e" transform="translate(77.490234 0)"/>
      <use xlink:href="#DejaVuSans-Bold-4e" transform="translate(161.181641 0)"/>
      <use xlink:href="#DejaVuSans-Bold-28" transform="translate(244.873047 0)"/>
      <use xlink:href="#DejaVuSans-Bold-35" transform="translate(290.576172 0)"/>
      <use xlink:href="#DejaVuSans-Bold-31" transform="translate(360.15625 0)"/>
      <use xlink:href="#DejaVuSans-Bold-29" transform="translate(429.736328 0)"/>
      <use xlink:href="#DejaVuSans-Bold-20" transform="translate(475.439453 0)"/>
      <use xlink:href="#DejaVuSans-Bold-47" transform="translate(510.253906 0)"/>
      <use xlink:href="#DejaVuSans-Bold-53" transform="translate(592.333984 0)"/>
      <use xlink:href="#DejaVuSans-Bold-45" transform="translate(664.355469 0)"/>
      <use xlink:href="#DejaVuSans-Bold-32" transform="translate(732.666016 0)"/>
      <use xlink:href="#DejaVuSans-Bold-32" transform="translate(802.246094 0)"/>
      <use xlink:href="#DejaVuSans-Bold-35" transform="translate(871.826172 0)"/>
      <use xlink:href="#DejaVuSans-Bold-38" transform="translate(941.40625 0)"/>
      <use xlink:href="#DejaVuSans-Bold-34" transform="translate(1010.986328 0)"/>
      <use xlink:href="#DejaVuSans-Bold-36" transform="translate(1080.566406 0)"/>
      <use xlink:href="#DejaVuSans-Bold-20" transform="translate(1150.146484 0)"/>
      <use xlink:href="#DejaVuSans-Bold-28" transform="translate(1184.960938 0)"/>
      <use xlink:href="#DejaVuSans-Bold-41" transform="translate(1230.664062 0)"/>
      <use xlink:href="#DejaVuSans-Bold-55" transform="translate(1304.931641 0)"/>
      <use xlink:href="#DejaVuSans-Bold-43" transform="translate(1386.132812 0)"/>
      <use xlink:href="#DejaVuSans-Bold-3d" transform="translate(1459.521484 0)"/>
      <use xlink:href="#DejaVuSans-Bold-30" transform="translate(1543.310547 0)"/>
      <use xlink:href="#DejaVuSans-Bold-2e" transform="translate(1612.890625 0)"/>
      <use xlink:href="#DejaVuSans-Bold-39" transform="translate(1650.878906 0)"/>
      <use xlink:href="#DejaVuSans-Bold-33" transform="translate(1720.458984 0)"/>
      <use xlink:href="#DejaVuSans-Bold-30" transform="translate(1790.039062 0)"/>
      <use xlink:href="#DejaVuSans-Bold-2c" transform="translate(1859.619141 0)"/>
      <use xlink:href="#DejaVuSans-Bold-20" transform="translate(1897.607422 0)"/>
      <use xlink:href="#DejaVuSans-Bold-39" transform="translate(1932.421875 0)"/>
      <use xlink:href="#DejaVuSans-Bold-35" transform="translate(2002.001953 0)"/>
      <use xlink:href="#DejaVuSans-Bold-25" transform="translate(2071.582031 0)"/>
      <use xlink:href="#DejaVuSans-Bold-43" transform="translate(2171.777344 0)"/>
      <use xlink:href="#DejaVuSans-Bold-49" transform="translate(2245.166016 0)"/>
      <use xlink:href="#DejaVuSans-Bold-3d" transform="translate(2282.373047 0)"/>
      <use xlink:href="#DejaVuSans-Bold-30" transform="translate(2366.162109 0)"/>
      <use xlink:href="#DejaVuSans-Bold-2e" transform="translate(2435.742188 0)"/>
      <use xlink:href="#DejaVuSans-Bold-38" transform="translate(2473.730469 0)"/>
      <use xlink:href="#DejaVuSans-Bold-37" transform="translate(2543.310547 0)"/>
      <use xlink:href="#DejaVuSans-Bold-35" transform="translate(2612.890625 0)"/>
      <use xlink:href="#DejaVuSans-Bold-2d" transform="translate(2682.470703 0)"/>
      <use xlink:href="#DejaVuSans-Bold-30" transform="translate(2723.974609 0)"/>
      <use xlink:href="#DejaVuSans-Bold-2e" transform="translate(2793.554688 0)"/>
      <use xlink:href="#DejaVuSans-Bold-39" transform="translate(2831.542969 0)"/>
      <use xlink:href="#DejaVuSans-Bold-37" transform="translate(2901.123047 0)"/>
      <use xlink:href="#DejaVuSans-Bold-33" transform="translate(2970.703125 0)"/>
      <use xlink:href="#DejaVuSans-Bold-29" transform="translate(3040.283203 0)"/>
     </g>
    </g>
    <g id="line2d_17">
     <path d="M 178.583594 511.522344 
L 189.583594 511.522344 
L 200.583594 511.522344 
" style="fill: none; stroke: #dc0000; stroke-width: 2; stroke-linecap: square"/>
    </g>
    <g id="text_17">
     <!-- KNN(51) GSE229571 (AUC=0.801, 95%CI=0.481-1.000) -->
     <g transform="translate(209.383594 515.372344) scale(0.11 -0.11)">
      <use xlink:href="#DejaVuSans-Bold-4b"/>
      <use xlink:href="#DejaVuSans-Bold-4e" transform="translate(77.490234 0)"/>
      <use xlink:href="#DejaVuSans-Bold-4e" transform="translate(161.181641 0)"/>
      <use xlink:href="#DejaVuSans-Bold-28" transform="translate(244.873047 0)"/>
      <use xlink:href="#DejaVuSans-Bold-35" transform="translate(290.576172 0)"/>
      <use xlink:href="#DejaVuSans-Bold-31" transform="translate(360.15625 0)"/>
      <use xlink:href="#DejaVuSans-Bold-29" transform="translate(429.736328 0)"/>
      <use xlink:href="#DejaVuSans-Bold-20" transform="translate(475.439453 0)"/>
      <use xlink:href="#DejaVuSans-Bold-47" transform="translate(510.253906 0)"/>
      <use xlink:href="#DejaVuSans-Bold-53" transform="translate(592.333984 0)"/>
      <use xlink:href="#DejaVuSans-Bold-45" transform="translate(664.355469 0)"/>
      <use xlink:href="#DejaVuSans-Bold-32" transform="translate(732.666016 0)"/>
      <use xlink:href="#DejaVuSans-Bold-32" transform="translate(802.246094 0)"/>
      <use xlink:href="#DejaVuSans-Bold-39" transform="translate(871.826172 0)"/>
      <use xlink:href="#DejaVuSans-Bold-35" transform="translate(941.40625 0)"/>
      <use xlink:href="#DejaVuSans-Bold-37" transform="translate(1010.986328 0)"/>
      <use xlink:href="#DejaVuSans-Bold-31" transform="translate(1080.566406 0)"/>
      <use xlink:href="#DejaVuSans-Bold-20" transform="translate(1150.146484 0)"/>
      <use xlink:href="#DejaVuSans-Bold-28" transform="translate(1184.960938 0)"/>
      <use xlink:href="#DejaVuSans-Bold-41" transform="translate(1230.664062 0)"/>
      <use xlink:href="#DejaVuSans-Bold-55" transform="translate(1304.931641 0)"/>
      <use xlink:href="#DejaVuSans-Bold-43" transform="translate(1386.132812 0)"/>
      <use xlink:href="#DejaVuSans-Bold-3d" transform="translate(1459.521484 0)"/>
      <use xlink:href="#DejaVuSans-Bold-30" transform="translate(1543.310547 0)"/>
      <use xlink:href="#DejaVuSans-Bold-2e" transform="translate(1612.890625 0)"/>
      <use xlink:href="#DejaVuSans-Bold-38" transform="translate(1650.878906 0)"/>
      <use xlink:href="#DejaVuSans-Bold-30" transform="translate(1720.458984 0)"/>
      <use xlink:href="#DejaVuSans-Bold-31" transform="translate(1790.039062 0)"/>
      <use xlink:href="#DejaVuSans-Bold-2c" transform="translate(1859.619141 0)"/>
      <use xlink:href="#DejaVuSans-Bold-20" transform="translate(1897.607422 0)"/>
      <use xlink:href="#DejaVuSans-Bold-39" transform="translate(1932.421875 0)"/>
      <use xlink:href="#DejaVuSans-Bold-35" transform="translate(2002.001953 0)"/>
      <use xlink:href="#DejaVuSans-Bold-25" transform="translate(2071.582031 0)"/>
      <use xlink:href="#DejaVuSans-Bold-43" transform="translate(2171.777344 0)"/>
      <use xlink:href="#DejaVuSans-Bold-49" transform="translate(2245.166016 0)"/>
      <use xlink:href="#DejaVuSans-Bold-3d" transform="translate(2282.373047 0)"/>
      <use xlink:href="#DejaVuSans-Bold-30" transform="translate(2366.162109 0)"/>
      <use xlink:href="#DejaVuSans-Bold-2e" transform="translate(2435.742188 0)"/>
      <use xlink:href="#DejaVuSans-Bold-34" transform="translate(2473.730469 0)"/>
      <use xlink:href="#DejaVuSans-Bold-38" transform="translate(2543.310547 0)"/>
      <use xlink:href="#DejaVuSans-Bold-31" transform="translate(2612.890625 0)"/>
      <use xlink:href="#DejaVuSans-Bold-2d" transform="translate(2682.470703 0)"/>
      <use xlink:href="#DejaVuSans-Bold-31" transform="translate(2723.974609 0)"/>
      <use xlink:href="#DejaVuSans-Bold-2e" transform="translate(2793.554688 0)"/>
      <use xlink:href="#DejaVuSans-Bold-30" transform="translate(2831.542969 0)"/>
      <use xlink:href="#DejaVuSans-Bold-30" transform="translate(2901.123047 0)"/>
      <use xlink:href="#DejaVuSans-Bold-30" transform="translate(2970.703125 0)"/>
      <use xlink:href="#DejaVuSans-Bold-29" transform="translate(3040.283203 0)"/>
     </g>
    </g>
   </g>
  </g>
 </g>
 <defs>
  <clipPath id="pd7d5f39e6c">
   <rect x="59.495" y="28.32" width="499.24" height="499.24"/>
  </clipPath>
 </defs>
</svg>
