<?xml version="1.0" encoding="utf-8" standalone="no"?>
<!DOCTYPE svg PUBLIC "-//W3C//DTD SVG 1.1//EN"
  "http://www.w3.org/Graphics/SVG/1.1/DTD/svg11.dtd">
<svg xmlns:xlink="http://www.w3.org/1999/xlink" width="576pt" height="576pt" viewBox="0 0 576 576" xmlns="http://www.w3.org/2000/svg" version="1.1">
 <metadata>
  <rdf:RDF xmlns:dc="http://purl.org/dc/elements/1.1/" xmlns:cc="http://creativecommons.org/ns#" xmlns:rdf="http://www.w3.org/1999/02/22-rdf-syntax-ns#">
   <cc:Work>
    <dc:type rdf:resource="http://purl.org/dc/dcmitype/StillImage"/>
    <dc:date>2026-07-11T16:33:03.987879</dc:date>
    <dc:format>image/svg+xml</dc:format>
    <dc:creator>
     <cc:Agent>
      <dc:title>Matplotlib v3.8.4, https://matplotlib.org/</dc:title>
     </cc:Agent>
    </dc:creator>
   </cc:Work>
  </rdf:RDF>
 </metadata>
 <defs>
  <style type="text/css">*{stroke-linejoin: round; stroke-linecap: butt}</style>
 </defs>
 <g id="figure_1">
  <g id="patch_1">
   <path d="M 0 576 
L 576 576 
L 576 0 
L 0 0 
z
" style="fill: #ffffff"/>
  </g>
  <g id="axes_1">
   <g id="patch_2">
    <path d="M 59.495 527.56 
L 558.735 527.56 
L 558.735 28.32 
L 59.495 28.32 
z
" style="fill: #ffffff"/>
   </g>
   <g id="matplotlib.axis_1">
    <g id="xtick_1">
     <g id="line2d_1">
      <defs>
       <path id="m51bf0b330e" d="M 0 0 
L 0 3.5 
" style="stroke: #000000; stroke-width: 0.8"/>
      </defs>
      <g>
       <use xlink:href="#m51bf0b330e" x="69.095769" y="527.56" style="stroke: #000000; stroke-width: 0.8"/>
      </g>
     </g>
     <g id="text_1">
      <!-- 0.0 -->
      <g transform="translate(59.553894 543.678125) scale(0.12 -0.12)">
       <defs>
        <path id="DejaVuSans-30" d="M 2034 4250 
Q 1547 4250 1301 3770 
Q 1056 3291 1056 2328 
Q 1056 1369 1301 889 
Q 1547 409 2034 409 
Q 2525 409 2770 889 
Q 3016 1369 3016 2328 
Q 3016 3291 2770 3770 
Q 2525 4250 2034 4250 
z
M 2034 4750 
Q 2819 4750 3233 4129 
Q 3647 3509 3647 2328 
Q 3647 1150 3233 529 
Q 2819 -91 2034 -91 
Q 1250 -91 836 529 
Q 422 1150 422 2328 
Q 422 3509 836 4129 
Q 1250 4750 2034 4750 
z
" transform="scale(0.015625)"/>
        <path id="DejaVuSans-2e" d="M 684 794 
L 1344 794 
L 1344 0 
L 684 0 
L 684 794 
z
" transform="scale(0.015625)"/>
       </defs>
       <use xlink:href="#DejaVuSans-30"/>
       <use xlink:href="#DejaVuSans-2e" x="63.623047"/>
       <use xlink:href="#DejaVuSans-30" x="95.410156"/>
      </g>
     </g>
    </g>
    <g id="xtick_2">
     <g id="line2d_2">
      <g>
       <use xlink:href="#m51bf0b330e" x="165.103462" y="527.56" style="stroke: #000000; stroke-width: 0.8"/>
      </g>
     </g>
     <g id="text_2">
      <!-- 0.2 -->
      <g transform="translate(155.561587 543.678125) scale(0.12 -0.12)">
       <defs>
        <path id="DejaVuSans-32" d="M 1228 531 
L 3431 531 
L 3431 0 
L 469 0 
L 469 531 
Q 828 903 1448 1529 
Q 2069 2156 2228 2338 
Q 2531 2678 2651 2914 
Q 2772 3150 2772 3378 
Q 2772 3750 2511 3984 
Q 2250 4219 1831 4219 
Q 1534 4219 1204 4116 
Q 875 4013 500 3803 
L 500 4441 
Q 881 4594 1212 4672 
Q 1544 4750 1819 4750 
Q 2544 4750 2975 4387 
Q 3406 4025 3406 3419 
Q 3406 3131 3298 2873 
Q 3191 2616 2906 2266 
Q 2828 2175 2409 1742 
Q 1991 1309 1228 531 
z
" transform="scale(0.015625)"/>
       </defs>
       <use xlink:href="#DejaVuSans-30"/>
       <use xlink:href="#DejaVuSans-2e" x="63.623047"/>
       <use xlink:href="#DejaVuSans-32" x="95.410156"/>
      </g>
     </g>
    </g>
    <g id="xtick_3">
     <g id="line2d_3">
      <g>
       <use xlink:href="#m51bf0b330e" x="261.111154" y="527.56" style="stroke: #000000; stroke-width: 0.8"/>
      </g>
     </g>
     <g id="text_3">
      <!-- 0.4 -->
      <g transform="translate(251.569279 543.678125) scale(0.12 -0.12)">
       <defs>
        <path id="DejaVuSans-34" d="M 2419 4116 
L 825 1625 
L 2419 1625 
L 2419 4116 
z
M 2253 4666 
L 3047 4666 
L 3047 1625 
L 3713 1625 
L 3713 1100 
L 3047 1100 
L 3047 0 
L 2419 0 
L 2419 1100 
L 313 1100 
L 313 1709 
L 2253 4666 
z
" transform="scale(0.015625)"/>
       </defs>
       <use xlink:href="#DejaVuSans-30"/>
       <use xlink:href="#DejaVuSans-2e" x="63.623047"/>
       <use xlink:href="#DejaVuSans-34" x="95.410156"/>
      </g>
     </g>
    </g>
    <g id="xtick_4">
     <g id="line2d_4">
      <g>
       <use xlink:href="#m51bf0b330e" x="357.118846" y="527.56" style="stroke: #000000; stroke-width: 0.8"/>
      </g>
     </g>
     <g id="text_4">
      <!-- 0.6 -->
      <g transform="translate(347.576971 543.678125) scale(0.12 -0.12)">
       <defs>
        <path id="DejaVuSans-36" d="M 2113 2584 
Q 1688 2584 1439 2293 
Q 1191 2003 1191 1497 
Q 1191 994 1439 701 
Q 1688 409 2113 409 
Q 2538 409 2786 701 
Q 3034 994 3034 1497 
Q 3034 2003 2786 2293 
Q 2538 2584 2113 2584 
z
M 3366 4563 
L 3366 3988 
Q 3128 4100 2886 4159 
Q 2644 4219 2406 4219 
Q 1781 4219 1451 3797 
Q 1122 3375 1075 2522 
Q 1259 2794 1537 2939 
Q 1816 3084 2150 3084 
Q 2853 3084 3261 2657 
Q 3669 2231 3669 1497 
Q 3669 778 3244 343 
Q 2819 -91 2113 -91 
Q 1303 -91 875 529 
Q 447 1150 447 2328 
Q 447 3434 972 4092 
Q 1497 4750 2381 4750 
Q 2619 4750 2861 4703 
Q 3103 4656 3366 4563 
z
" transform="scale(0.015625)"/>
       </defs>
       <use xlink:href="#DejaVuSans-30"/>
       <use xlink:href="#DejaVuSans-2e" x="63.623047"/>
       <use xlink:href="#DejaVuSans-36" x="95.410156"/>
      </g>
     </g>
    </g>
    <g id="xtick_5">
     <g id="line2d_5">
      <g>
       <use xlink:href="#m51bf0b330e" x="453.126538" y="527.56" style="stroke: #000000; stroke-width: 0.8"/>
      </g>
     </g>
     <g id="text_5">
      <!-- 0.8 -->
      <g transform="translate(443.584663 543.678125) scale(0.12 -0.12)">
       <defs>
        <path id="DejaVuSans-38" d="M 2034 2216 
Q 1584 2216 1326 1975 
Q 1069 1734 1069 1313 
Q 1069 891 1326 650 
Q 1584 409 2034 409 
Q 2484 409 2743 651 
Q 3003 894 3003 1313 
Q 3003 1734 2745 1975 
Q 2488 2216 2034 2216 
z
M 1403 2484 
Q 997 2584 770 2862 
Q 544 3141 544 3541 
Q 544 4100 942 4425 
Q 1341 4750 2034 4750 
Q 2731 4750 3128 4425 
Q 3525 4100 3525 3541 
Q 3525 3141 3298 2862 
Q 3072 2584 2669 2484 
Q 3125 2378 3379 2068 
Q 3634 1759 3634 1313 
Q 3634 634 3220 271 
Q 2806 -91 2034 -91 
Q 1263 -91 848 271 
Q 434 634 434 1313 
Q 434 1759 690 2068 
Q 947 2378 1403 2484 
z
M 1172 3481 
Q 1172 3119 1398 2916 
Q 1625 2713 2034 2713 
Q 2441 2713 2670 2916 
Q 2900 3119 2900 3481 
Q 2900 3844 2670 4047 
Q 2441 4250 2034 4250 
Q 1625 4250 1398 4047 
Q 1172 3844 1172 3481 
z
" transform="scale(0.015625)"/>
       </defs>
       <use xlink:href="#DejaVuSans-30"/>
       <use xlink:href="#DejaVuSans-2e" x="63.623047"/>
       <use xlink:href="#DejaVuSans-38" x="95.410156"/>
      </g>
     </g>
    </g>
    <g id="xtick_6">
     <g id="line2d_6">
      <g>
       <use xlink:href="#m51bf0b330e" x="549.134231" y="527.56" style="stroke: #000000; stroke-width: 0.8"/>
      </g>
     </g>
     <g id="text_6">
      <!-- 1.0 -->
      <g transform="translate(539.592356 543.678125) scale(0.12 -0.12)">
       <defs>
        <path id="DejaVuSans-31" d="M 794 531 
L 1825 531 
L 1825 4091 
L 703 3866 
L 703 4441 
L 1819 4666 
L 2450 4666 
L 2450 531 
L 3481 531 
L 3481 0 
L 794 0 
L 794 531 
z
" transform="scale(0.015625)"/>
       </defs>
       <use xlink:href="#DejaVuSans-31"/>
       <use xlink:href="#DejaVuSans-2e" x="63.623047"/>
       <use xlink:href="#DejaVuSans-30" x="95.410156"/>
      </g>
     </g>
    </g>
    <g id="text_7">
     <!-- 1 - Specificity -->
     <g transform="translate(255.213906 560.811562) scale(0.14 -0.14)">
      <defs>
       <path id="DejaVuSans-Bold-31" d="M 750 831 
L 1813 831 
L 1813 3847 
L 722 3622 
L 722 4441 
L 1806 4666 
L 2950 4666 
L 2950 831 
L 4013 831 
L 4013 0 
L 750 0 
L 750 831 
z
" transform="scale(0.015625)"/>
       <path id="DejaVuSans-Bold-20" transform="scale(0.015625)"/>
       <path id="DejaVuSans-Bold-2d" d="M 347 2297 
L 2309 2297 
L 2309 1388 
L 347 1388 
L 347 2297 
z
" transform="scale(0.015625)"/>
       <path id="DejaVuSans-Bold-53" d="M 3834 4519 
L 3834 3531 
Q 3450 3703 3084 3790 
Q 2719 3878 2394 3878 
Q 1963 3878 1756 3759 
Q 1550 3641 1550 3391 
Q 1550 3203 1689 3098 
Q 1828 2994 2194 2919 
L 2706 2816 
Q 3484 2659 3812 2340 
Q 4141 2022 4141 1434 
Q 4141 663 3683 286 
Q 3225 -91 2284 -91 
Q 1841 -91 1394 -6 
Q 947 78 500 244 
L 500 1259 
Q 947 1022 1364 901 
Q 1781 781 2169 781 
Q 2563 781 2772 912 
Q 2981 1044 2981 1288 
Q 2981 1506 2839 1625 
Q 2697 1744 2272 1838 
L 1806 1941 
Q 1106 2091 782 2419 
Q 459 2747 459 3303 
Q 459 4000 909 4375 
Q 1359 4750 2203 4750 
Q 2588 4750 2994 4692 
Q 3400 4634 3834 4519 
z
" transform="scale(0.015625)"/>
       <path id="DejaVuSans-Bold-70" d="M 1656 506 
L 1656 -1331 
L 538 -1331 
L 538 3500 
L 1656 3500 
L 1656 2988 
Q 1888 3294 2169 3439 
Q 2450 3584 2816 3584 
Q 3463 3584 3878 3070 
Q 4294 2556 4294 1747 
Q 4294 938 3878 423 
Q 3463 -91 2816 -91 
Q 2450 -91 2169 54 
Q 1888 200 1656 506 
z
M 2400 2772 
Q 2041 2772 1848 2508 
Q 1656 2244 1656 1747 
Q 1656 1250 1848 986 
Q 2041 722 2400 722 
Q 2759 722 2948 984 
Q 3138 1247 3138 1747 
Q 3138 2247 2948 2509 
Q 2759 2772 2400 2772 
z
" transform="scale(0.015625)"/>
       <path id="DejaVuSans-Bold-65" d="M 4031 1759 
L 4031 1441 
L 1416 1441 
Q 1456 1047 1700 850 
Q 1944 653 2381 653 
Q 2734 653 3104 758 
Q 3475 863 3866 1075 
L 3866 213 
Q 3469 63 3072 -14 
Q 2675 -91 2278 -91 
Q 1328 -91 801 392 
Q 275 875 275 1747 
Q 275 2603 792 3093 
Q 1309 3584 2216 3584 
Q 3041 3584 3536 3087 
Q 4031 2591 4031 1759 
z
M 2881 2131 
Q 2881 2450 2695 2645 
Q 2509 2841 2209 2841 
Q 1884 2841 1681 2658 
Q 1478 2475 1428 2131 
L 2881 2131 
z
" transform="scale(0.015625)"/>
       <path id="DejaVuSans-Bold-63" d="M 3366 3391 
L 3366 2478 
Q 3138 2634 2908 2709 
Q 2678 2784 2431 2784 
Q 1963 2784 1702 2511 
Q 1441 2238 1441 1747 
Q 1441 1256 1702 982 
Q 1963 709 2431 709 
Q 2694 709 2930 787 
Q 3166 866 3366 1019 
L 3366 103 
Q 3103 6 2833 -42 
Q 2563 -91 2291 -91 
Q 1344 -91 809 395 
Q 275 881 275 1747 
Q 275 2613 809 3098 
Q 1344 3584 2291 3584 
Q 2566 3584 2833 3536 
Q 3100 3488 3366 3391 
z
" transform="scale(0.015625)"/>
       <path id="DejaVuSans-Bold-69" d="M 538 3500 
L 1656 3500 
L 1656 0 
L 538 0 
L 538 3500 
z
M 538 4863 
L 1656 4863 
L 1656 3950 
L 538 3950 
L 538 4863 
z
" transform="scale(0.015625)"/>
       <path id="DejaVuSans-Bold-66" d="M 2841 4863 
L 2841 4128 
L 2222 4128 
Q 1984 4128 1890 4042 
Q 1797 3956 1797 3744 
L 1797 3500 
L 2753 3500 
L 2753 2700 
L 1797 2700 
L 1797 0 
L 678 0 
L 678 2700 
L 122 2700 
L 122 3500 
L 678 3500 
L 678 3744 
Q 678 4316 997 4589 
Q 1316 4863 1984 4863 
L 2841 4863 
z
" transform="scale(0.015625)"/>
       <path id="DejaVuSans-Bold-74" d="M 1759 4494 
L 1759 3500 
L 2913 3500 
L 2913 2700 
L 1759 2700 
L 1759 1216 
Q 1759 972 1856 886 
Q 1953 800 2241 800 
L 2816 800 
L 2816 0 
L 1856 0 
Q 1194 0 917 276 
Q 641 553 641 1216 
L 641 2700 
L 84 2700 
L 84 3500 
L 641 3500 
L 641 4494 
L 1759 4494 
z
" transform="scale(0.015625)"/>
       <path id="DejaVuSans-Bold-79" d="M 78 3500 
L 1197 3500 
L 2138 1125 
L 2938 3500 
L 4056 3500 
L 2584 -331 
Q 2363 -916 2067 -1148 
Q 1772 -1381 1288 -1381 
L 641 -1381 
L 641 -647 
L 991 -647 
Q 1275 -647 1404 -556 
Q 1534 -466 1606 -231 
L 1638 -134 
L 78 3500 
z
" transform="scale(0.015625)"/>
      </defs>
      <use xlink:href="#DejaVuSans-Bold-31"/>
      <use xlink:href="#DejaVuSans-Bold-20" x="69.580078"/>
      <use xlink:href="#DejaVuSans-Bold-2d" x="104.394531"/>
      <use xlink:href="#DejaVuSans-Bold-20" x="145.898438"/>
      <use xlink:href="#DejaVuSans-Bold-53" x="180.712891"/>
      <use xlink:href="#DejaVuSans-Bold-70" x="252.734375"/>
      <use xlink:href="#DejaVuSans-Bold-65" x="324.316406"/>
      <use xlink:href="#DejaVuSans-Bold-63" x="392.138672"/>
      <use xlink:href="#DejaVuSans-Bold-69" x="451.416016"/>
      <use xlink:href="#DejaVuSans-Bold-66" x="485.693359"/>
      <use xlink:href="#DejaVuSans-Bold-69" x="529.199219"/>
      <use xlink:href="#DejaVuSans-Bold-63" x="563.476562"/>
      <use xlink:href="#DejaVuSans-Bold-69" x="622.753906"/>
      <use xlink:href="#DejaVuSans-Bold-74" x="657.03125"/>
      <use xlink:href="#DejaVuSans-Bold-79" x="704.833984"/>
     </g>
    </g>
   </g>
   <g id="matplotlib.axis_2">
    <g id="ytick_1">
     <g id="line2d_7">
      <defs>
       <path id="m2e1c129a40" d="M 0 0 
L -3.5 0 
" style="stroke: #000000; stroke-width: 0.8"/>
      </defs>
      <g>
       <use xlink:href="#m2e1c129a40" x="59.495" y="517.959231" style="stroke: #000000; stroke-width: 0.8"/>
      </g>
     </g>
     <g id="text_8">
      <!-- 0.0 -->
      <g transform="translate(33.41125 522.518293) scale(0.12 -0.12)">
       <use xlink:href="#DejaVuSans-30"/>
       <use xlink:href="#DejaVuSans-2e" x="63.623047"/>
       <use xlink:href="#DejaVuSans-30" x="95.410156"/>
      </g>
     </g>
    </g>
    <g id="ytick_2">
     <g id="line2d_8">
      <g>
       <use xlink:href="#m2e1c129a40" x="59.495" y="421.951538" style="stroke: #000000; stroke-width: 0.8"/>
      </g>
     </g>
     <g id="text_9">
      <!-- 0.2 -->
      <g transform="translate(33.41125 426.510601) scale(0.12 -0.12)">
       <use xlink:href="#DejaVuSans-30"/>
       <use xlink:href="#DejaVuSans-2e" x="63.623047"/>
       <use xlink:href="#DejaVuSans-32" x="95.410156"/>
      </g>
     </g>
    </g>
    <g id="ytick_3">
     <g id="line2d_9">
      <g>
       <use xlink:href="#m2e1c129a40" x="59.495" y="325.943846" style="stroke: #000000; stroke-width: 0.8"/>
      </g>
     </g>
     <g id="text_10">
      <!-- 0.4 -->
      <g transform="translate(33.41125 330.502909) scale(0.12 -0.12)">
       <use xlink:href="#DejaVuSans-30"/>
       <use xlink:href="#DejaVuSans-2e" x="63.623047"/>
       <use xlink:href="#DejaVuSans-34" x="95.410156"/>
      </g>
     </g>
    </g>
    <g id="ytick_4">
     <g id="line2d_10">
      <g>
       <use xlink:href="#m2e1c129a40" x="59.495" y="229.936154" style="stroke: #000000; stroke-width: 0.8"/>
      </g>
     </g>
     <g id="text_11">
      <!-- 0.6 -->
      <g transform="translate(33.41125 234.495216) scale(0.12 -0.12)">
       <use xlink:href="#DejaVuSans-30"/>
       <use xlink:href="#DejaVuSans-2e" x="63.623047"/>
       <use xlink:href="#DejaVuSans-36" x="95.410156"/>
      </g>
     </g>
    </g>
    <g id="ytick_5">
     <g id="line2d_11">
      <g>
       <use xlink:href="#m2e1c129a40" x="59.495" y="133.928462" style="stroke: #000000; stroke-width: 0.8"/>
      </g>
     </g>
     <g id="text_12">
      <!-- 0.8 -->
      <g transform="translate(33.41125 138.487524) scale(0.12 -0.12)">
       <use xlink:href="#DejaVuSans-30"/>
       <use xlink:href="#DejaVuSans-2e" x="63.623047"/>
       <use xlink:href="#DejaVuSans-38" x="95.410156"/>
      </g>
     </g>
    </g>
    <g id="ytick_6">
     <g id="line2d_12">
      <g>
       <use xlink:href="#m2e1c129a40" x="59.495" y="37.920769" style="stroke: #000000; stroke-width: 0.8"/>
      </g>
     </g>
     <g id="text_13">
      <!-- 1.0 -->
      <g transform="translate(33.41125 42.479832) scale(0.12 -0.12)">
       <use xlink:href="#DejaVuSans-31"/>
       <use xlink:href="#DejaVuSans-2e" x="63.623047"/>
       <use xlink:href="#DejaVuSans-30" x="95.410156"/>
      </g>
     </g>
    </g>
    <g id="text_14">
     <!-- Sensitivity -->
     <g transform="translate(26.390312 319.895156) rotate(-90) scale(0.14 -0.14)">
      <defs>
       <path id="DejaVuSans-Bold-6e" d="M 4056 2131 
L 4056 0 
L 2931 0 
L 2931 347 
L 2931 1631 
Q 2931 2084 2911 2256 
Q 2891 2428 2841 2509 
Q 2775 2619 2662 2680 
Q 2550 2741 2406 2741 
Q 2056 2741 1856 2470 
Q 1656 2200 1656 1722 
L 1656 0 
L 538 0 
L 538 3500 
L 1656 3500 
L 1656 2988 
Q 1909 3294 2193 3439 
Q 2478 3584 2822 3584 
Q 3428 3584 3742 3212 
Q 4056 2841 4056 2131 
z
" transform="scale(0.015625)"/>
       <path id="DejaVuSans-Bold-73" d="M 3272 3391 
L 3272 2541 
Q 2913 2691 2578 2766 
Q 2244 2841 1947 2841 
Q 1628 2841 1473 2761 
Q 1319 2681 1319 2516 
Q 1319 2381 1436 2309 
Q 1553 2238 1856 2203 
L 2053 2175 
Q 2913 2066 3209 1816 
Q 3506 1566 3506 1031 
Q 3506 472 3093 190 
Q 2681 -91 1863 -91 
Q 1516 -91 1145 -36 
Q 775 19 384 128 
L 384 978 
Q 719 816 1070 734 
Q 1422 653 1784 653 
Q 2113 653 2278 743 
Q 2444 834 2444 1013 
Q 2444 1163 2330 1236 
Q 2216 1309 1875 1350 
L 1678 1375 
Q 931 1469 631 1722 
Q 331 1975 331 2491 
Q 331 3047 712 3315 
Q 1094 3584 1881 3584 
Q 2191 3584 2531 3537 
Q 2872 3491 3272 3391 
z
" transform="scale(0.015625)"/>
       <path id="DejaVuSans-Bold-76" d="M 97 3500 
L 1216 3500 
L 2088 1081 
L 2956 3500 
L 4078 3500 
L 2700 0 
L 1472 0 
L 97 3500 
z
" transform="scale(0.015625)"/>
      </defs>
      <use xlink:href="#DejaVuSans-Bold-53"/>
      <use xlink:href="#DejaVuSans-Bold-65" x="72.021484"/>
      <use xlink:href="#DejaVuSans-Bold-6e" x="139.84375"/>
      <use xlink:href="#DejaVuSans-Bold-73" x="211.035156"/>
      <use xlink:href="#DejaVuSans-Bold-69" x="270.556641"/>
      <use xlink:href="#DejaVuSans-Bold-74" x="304.833984"/>
      <use xlink:href="#DejaVuSans-Bold-69" x="352.636719"/>
      <use xlink:href="#DejaVuSans-Bold-76" x="386.914062"/>
      <use xlink:href="#DejaVuSans-Bold-69" x="452.099609"/>
      <use xlink:href="#DejaVuSans-Bold-74" x="486.376953"/>
      <use xlink:href="#DejaVuSans-Bold-79" x="534.179688"/>
     </g>
    </g>
   </g>
   <g id="line2d_13">
    <path d="M 69.095769 517.959231 
L 73.944643 142.259598 
L 78.793516 142.259598 
L 83.642389 142.259598 
L 88.491263 142.259598 
L 93.340136 142.259598 
L 98.189009 142.259598 
L 103.037883 142.259598 
L 107.886756 142.259598 
L 112.735629 141.971575 
L 117.584503 140.867487 
L 122.433376 137.66723 
L 127.282249 137.66723 
L 132.131123 131.258717 
L 136.979996 131.258717 
L 141.828869 119.372965 
L 146.677743 119.372965 
L 151.526616 106.027895 
L 156.37549 106.027895 
L 161.224363 106.027895 
L 166.073236 91.887334 
L 170.92211 91.887334 
L 175.770983 89.231121 
L 180.619856 89.231121 
L 185.46873 89.231121 
L 190.317603 75.574027 
L 195.166476 75.574027 
L 200.01535 75.574027 
L 204.864223 75.574027 
L 209.713096 68.584667 
L 214.56197 68.24864 
L 219.410843 68.24864 
L 224.259716 68.24864 
L 229.10859 56.935733 
L 233.957463 56.935733 
L 238.806336 56.935733 
L 243.65521 56.935733 
L 248.504083 56.935733 
L 253.352956 54.943574 
L 258.20183 54.943574 
L 263.050703 49.402558 
L 267.899577 49.402558 
L 272.74845 49.402558 
L 277.597323 46.771948 
L 282.446197 46.387917 
L 287.29507 46.387917 
L 292.143943 46.387917 
L 296.992817 46.387917 
L 301.84169 46.387917 
L 306.690563 46.387917 
L 311.539437 40.823471 
L 316.38831 40.823471 
L 321.237183 40.823471 
L 326.086057 40.823471 
L 330.93493 40.823471 
L 335.783803 40.727463 
L 340.632677 40.727463 
L 345.48155 40.362634 
L 350.330423 40.362634 
L 355.179297 40.362634 
L 360.02817 39.759157 
L 364.877044 39.759157 
L 369.725917 39.711153 
L 374.57479 39.711153 
L 379.423664 39.711153 
L 384.272537 39.711153 
L 389.12141 38.681738 
L 393.970284 38.681738 
L 398.819157 38.681738 
L 403.66803 38.681738 
L 408.516904 38.681738 
L 413.365777 38.643334 
L 418.21465 38.643334 
L 423.063524 38.643334 
L 427.912397 38.643334 
L 432.76127 38.403315 
L 437.610144 38.403315 
L 442.459017 38.403315 
L 447.30789 38.403315 
L 452.156764 38.403315 
L 457.005637 38.279877 
L 461.85451 38.279877 
L 466.703384 38.279877 
L 471.552257 38.215872 
L 476.401131 38.215872 
L 481.250004 38.215872 
L 486.098877 38.215872 
L 490.947751 38.215872 
L 495.796624 38.215872 
L 500.645497 38.215872 
L 505.494371 38.215872 
L 510.343244 38.215872 
L 515.192117 38.215872 
L 520.040991 38.215872 
L 524.889864 38.215872 
L 529.738737 38.215872 
L 534.587611 38.215872 
L 539.436484 38.215872 
L 544.285357 38.215872 
L 549.134231 37.920769 
" clip-path="url(#pe3bd643476)" style="fill: none; stroke: #e64b35; stroke-width: 1.5; stroke-linecap: square"/>
   </g>
   <g id="line2d_14">
    <path d="M 69.095769 517.959231 
L 73.944643 221.396734 
L 78.793516 221.396734 
L 83.642389 221.396734 
L 88.491263 221.396734 
L 93.340136 221.396734 
L 98.189009 221.396734 
L 103.037883 221.396734 
L 107.886756 221.396734 
L 112.735629 221.012703 
L 117.584503 220.148634 
L 122.433376 217.076388 
L 127.282249 217.076388 
L 132.131123 210.547864 
L 136.979996 210.547864 
L 141.828869 199.084546 
L 146.677743 199.084546 
L 151.526616 185.723476 
L 156.37549 185.53146 
L 161.224363 185.53146 
L 166.073236 171.589772 
L 170.92211 171.589772 
L 175.770983 169.413597 
L 180.619856 169.413597 
L 185.46873 169.413597 
L 190.317603 156.128533 
L 195.166476 156.128533 
L 200.01535 156.128533 
L 204.864223 156.128533 
L 209.713096 149.331188 
L 214.56197 148.995161 
L 219.410843 148.995161 
L 224.259716 148.995161 
L 229.10859 137.580913 
L 233.957463 137.580913 
L 238.806336 137.580913 
L 243.65521 137.580913 
L 248.504083 137.580913 
L 253.352956 135.444742 
L 258.20183 135.444742 
L 263.050703 129.636277 
L 267.899577 129.636277 
L 272.74845 129.636277 
L 277.597323 126.813651 
L 282.446197 126.333612 
L 287.29507 126.333612 
L 292.143943 126.333612 
L 296.992817 126.333612 
L 301.84169 126.333612 
L 306.690563 126.333612 
L 311.539437 118.212962 
L 316.38831 118.212962 
L 321.237183 118.212962 
L 326.086057 118.212962 
L 330.93493 118.116954 
L 335.783803 117.892936 
L 340.632677 117.892936 
L 345.48155 116.433619 
L 350.330423 116.433619 
L 355.179297 116.433619 
L 360.02817 113.402519 
L 364.877044 113.402519 
L 369.725917 112.130417 
L 374.57479 112.130417 
L 379.423664 112.130417 
L 384.272537 112.130417 
L 389.12141 105.735238 
L 393.970284 105.735238 
L 398.819157 105.735238 
L 403.66803 105.735238 
L 408.516904 105.351207 
L 413.365777 101.376489 
L 418.21465 101.376489 
L 423.063524 101.376489 
L 427.912397 101.376489 
L 432.76127 94.835965 
L 437.610144 94.835965 
L 442.459017 93.331844 
L 447.30789 93.331844 
L 452.156764 93.331844 
L 457.005637 86.474152 
L 461.85451 86.474152 
L 466.703384 86.474152 
L 471.552257 78.953549 
L 476.401131 78.953549 
L 481.250004 73.250693 
L 486.098877 73.250693 
L 490.947751 69.482391 
L 495.796624 67.658244 
L 500.645497 67.658244 
L 505.494371 66.938187 
L 510.343244 66.938187 
L 515.192117 66.938187 
L 520.040991 66.938187 
L 524.889864 66.938187 
L 529.738737 66.938187 
L 534.587611 66.938187 
L 539.436484 66.938187 
L 544.285357 66.938187 
L 549.134231 37.920769 
" clip-path="url(#pe3bd643476)" style="fill: none; stroke: #4dbbd5; stroke-width: 1.5; stroke-linecap: square"/>
   </g>
   <g id="line2d_15">
    <path d="M 69.095769 517.959231 
L 73.944643 90.169859 
L 78.793516 90.169859 
L 83.642389 90.169859 
L 88.491263 90.169859 
L 93.340136 90.169859 
L 98.189009 90.169859 
L 103.037883 90.169859 
L 107.886756 90.169859 
L 112.735629 89.881836 
L 117.584503 89.353794 
L 122.433376 87.849674 
L 127.282249 87.849674 
L 132.131123 84.657418 
L 136.979996 84.657418 
L 141.828869 78.666538 
L 146.677743 78.666538 
L 151.526616 71.897995 
L 156.37549 71.897995 
L 161.224363 71.897995 
L 166.073236 65.033445 
L 170.92211 65.033445 
L 175.770983 63.977361 
L 180.619856 63.977361 
L 185.46873 63.977361 
L 190.317603 57.328828 
L 195.166476 57.328828 
L 200.01535 57.328828 
L 204.864223 57.328828 
L 209.713096 53.814947 
L 214.56197 53.622931 
L 219.410843 53.622931 
L 224.259716 53.622931 
L 229.10859 47.681122 
L 233.957463 47.681122 
L 238.806336 47.681122 
L 243.65521 47.681122 
L 248.504083 47.681122 
L 253.352956 46.673041 
L 258.20183 46.673041 
L 263.050703 43.895676 
L 267.899577 43.895676 
L 272.74845 43.895676 
L 277.597323 42.532366 
L 282.446197 42.340351 
L 287.29507 42.340351 
L 292.143943 42.340351 
L 296.992817 42.340351 
L 301.84169 42.340351 
L 306.690563 42.340351 
L 311.539437 39.387314 
L 316.38831 39.387314 
L 321.237183 39.387314 
L 326.086057 39.387314 
L 330.93493 39.387314 
L 335.783803 39.323309 
L 340.632677 39.323309 
L 345.48155 39.169697 
L 350.330423 39.169697 
L 355.179297 39.169697 
L 360.02817 38.881674 
L 364.877044 38.881674 
L 369.725917 38.857672 
L 374.57479 38.857672 
L 379.423664 38.857672 
L 384.272537 38.857672 
L 389.12141 38.265625 
L 393.970284 38.265625 
L 398.819157 38.265625 
L 403.66803 38.265625 
L 408.516904 38.265625 
L 413.365777 38.227221 
L 418.21465 38.227221 
L 423.063524 38.227221 
L 427.912397 38.227221 
L 432.76127 38.119213 
L 437.610144 38.119213 
L 442.459017 38.119213 
L 447.30789 38.119213 
L 452.156764 38.119213 
L 457.005637 38.078067 
L 461.85451 38.078067 
L 466.703384 38.078067 
L 471.552257 38.062065 
L 476.401131 38.062065 
L 481.250004 38.062065 
L 486.098877 38.062065 
L 490.947751 38.062065 
L 495.796624 38.062065 
L 500.645497 38.062065 
L 505.494371 38.062065 
L 510.343244 38.062065 
L 515.192117 38.062065 
L 520.040991 38.062065 
L 524.889864 38.062065 
L 529.738737 38.062065 
L 534.587611 38.062065 
L 539.436484 38.062065 
L 544.285357 38.062065 
L 549.134231 37.920769 
" clip-path="url(#pe3bd643476)" style="fill: none; stroke: #00a087; stroke-width: 1.5; stroke-linecap: square"/>
   </g>
   <g id="line2d_16">
    <path d="M 69.095769 517.959231 
L 73.944643 197.391867 
L 78.793516 197.391867 
L 83.642389 197.391867 
L 88.491263 197.391867 
L 93.340136 197.391867 
L 98.189009 197.391867 
L 103.037883 197.391867 
L 107.886756 197.391867 
L 112.735629 197.391867 
L 117.584503 197.391867 
L 122.433376 197.327862 
L 127.282249 197.327862 
L 132.131123 197.015837 
L 136.979996 197.015837 
L 141.828869 195.863744 
L 146.677743 195.863744 
L 151.526616 193.703571 
L 156.37549 193.703571 
L 161.224363 193.703571 
L 166.073236 190.91249 
L 170.92211 190.91249 
L 175.770983 190.65647 
L 180.619856 190.65647 
L 185.46873 190.65647 
L 190.317603 186.024099 
L 195.166476 186.024099 
L 200.01535 185.832083 
L 204.864223 185.832083 
L 209.713096 183.124666 
L 214.56197 182.836643 
L 219.410843 182.836643 
L 224.259716 182.836643 
L 229.10859 174.681323 
L 233.957463 174.681323 
L 238.806336 174.681323 
L 243.65521 174.585316 
L 248.504083 174.585316 
L 253.352956 171.873098 
L 258.20183 171.873098 
L 263.050703 164.370783 
L 267.899577 164.370783 
L 272.74845 164.370783 
L 277.597323 158.130283 
L 282.446197 156.914185 
L 287.29507 156.914185 
L 292.143943 156.914185 
L 296.992817 156.914185 
L 301.84169 156.914185 
L 306.690563 156.914185 
L 311.539437 134.202766 
L 316.38831 134.202766 
L 321.237183 134.202766 
L 326.086057 134.202766 
L 330.93493 134.202766 
L 335.783803 132.154602 
L 340.632677 132.154602 
L 345.48155 122.918662 
L 350.330423 122.918662 
L 355.179297 122.918662 
L 360.02817 112.234377 
L 364.877044 112.234377 
L 369.725917 107.121967 
L 374.57479 107.02596 
L 379.423664 107.02596 
L 384.272537 107.02596 
L 389.12141 90.896667 
L 393.970284 90.896667 
L 398.819157 90.896667 
L 403.66803 90.896667 
L 408.516904 90.17661 
L 413.365777 82.956831 
L 418.21465 82.956831 
L 423.063524 82.956831 
L 427.912397 82.956831 
L 432.76127 72.648005 
L 437.610144 72.648005 
L 442.459017 71.047877 
L 447.30789 71.047877 
L 452.156764 71.047877 
L 457.005637 62.900939 
L 461.85451 62.900939 
L 466.703384 62.900939 
L 471.552257 56.324412 
L 476.401131 56.324412 
L 481.250004 52.714522 
L 486.098877 52.714522 
L 490.947751 50.506346 
L 495.796624 49.770287 
L 500.645497 49.770287 
L 505.494371 49.43426 
L 510.343244 49.43426 
L 515.192117 49.43426 
L 520.040991 49.43426 
L 524.889864 49.43426 
L 529.738737 49.43426 
L 534.587611 49.43426 
L 539.436484 49.43426 
L 544.285357 49.43426 
L 549.134231 37.920769 
" clip-path="url(#pe3bd643476)" style="fill: none; stroke: #3c5488; stroke-width: 1.5; stroke-linecap: square"/>
   </g>
   <g id="line2d_17">
    <path d="M 69.095769 517.959231 
L 73.944643 90.169859 
L 78.793516 90.169859 
L 83.642389 90.169859 
L 88.491263 90.169859 
L 93.340136 90.169859 
L 98.189009 90.169859 
L 103.037883 90.169859 
L 107.886756 90.169859 
L 112.735629 89.881836 
L 117.584503 89.353794 
L 122.433376 87.849674 
L 127.282249 87.849674 
L 132.131123 84.657418 
L 136.979996 84.657418 
L 141.828869 78.666538 
L 146.677743 78.666538 
L 151.526616 71.897995 
L 156.37549 71.897995 
L 161.224363 71.897995 
L 166.073236 65.033445 
L 170.92211 65.033445 
L 175.770983 63.977361 
L 180.619856 63.977361 
L 185.46873 63.977361 
L 190.317603 57.328828 
L 195.166476 57.328828 
L 200.01535 57.328828 
L 204.864223 57.328828 
L 209.713096 53.814947 
L 214.56197 53.622931 
L 219.410843 53.622931 
L 224.259716 53.622931 
L 229.10859 47.681122 
L 233.957463 47.681122 
L 238.806336 47.681122 
L 243.65521 47.681122 
L 248.504083 47.681122 
L 253.352956 46.673041 
L 258.20183 46.673041 
L 263.050703 43.895676 
L 267.899577 43.895676 
L 272.74845 43.895676 
L 277.597323 42.532366 
L 282.446197 42.340351 
L 287.29507 42.340351 
L 292.143943 42.340351 
L 296.992817 42.340351 
L 301.84169 42.340351 
L 306.690563 42.340351 
L 311.539437 39.387314 
L 316.38831 39.387314 
L 321.237183 39.387314 
L 326.086057 39.387314 
L 330.93493 39.387314 
L 335.783803 39.323309 
L 340.632677 39.323309 
L 345.48155 39.169697 
L 350.330423 39.169697 
L 355.179297 39.169697 
L 360.02817 38.881674 
L 364.877044 38.881674 
L 369.725917 38.857672 
L 374.57479 38.857672 
L 379.423664 38.857672 
L 384.272537 38.857672 
L 389.12141 38.265625 
L 393.970284 38.265625 
L 398.819157 38.265625 
L 403.66803 38.265625 
L 408.516904 38.265625 
L 413.365777 38.227221 
L 418.21465 38.227221 
L 423.063524 38.227221 
L 427.912397 38.227221 
L 432.76127 38.119213 
L 437.610144 38.119213 
L 442.459017 38.119213 
L 447.30789 38.119213 
L 452.156764 38.119213 
L 457.005637 38.078067 
L 461.85451 38.078067 
L 466.703384 38.078067 
L 471.552257 38.062065 
L 476.401131 38.062065 
L 481.250004 38.062065 
L 486.098877 38.062065 
L 490.947751 38.062065 
L 495.796624 38.062065 
L 500.645497 38.062065 
L 505.494371 38.062065 
L 510.343244 38.062065 
L 515.192117 38.062065 
L 520.040991 38.062065 
L 524.889864 38.062065 
L 529.738737 38.062065 
L 534.587611 38.062065 
L 539.436484 38.062065 
L 544.285357 38.062065 
L 549.134231 37.920769 
" clip-path="url(#pe3bd643476)" style="fill: none; stroke: #f39b7f; stroke-width: 1.5; stroke-linecap: square"/>
   </g>
   <g id="line2d_18">
    <path d="M 69.095769 517.959231 
L 73.944643 37.920769 
L 78.793516 37.920769 
L 83.642389 37.920769 
L 88.491263 37.920769 
L 93.340136 37.920769 
L 98.189009 37.920769 
L 103.037883 37.920769 
L 107.886756 37.920769 
L 112.735629 37.920769 
L 117.584503 37.920769 
L 122.433376 37.920769 
L 127.282249 37.920769 
L 132.131123 37.920769 
L 136.979996 37.920769 
L 141.828869 37.920769 
L 146.677743 37.920769 
L 151.526616 37.920769 
L 156.37549 37.920769 
L 161.224363 37.920769 
L 166.073236 37.920769 
L 170.92211 37.920769 
L 175.770983 37.920769 
L 180.619856 37.920769 
L 185.46873 37.920769 
L 190.317603 37.920769 
L 195.166476 37.920769 
L 200.01535 37.920769 
L 204.864223 37.920769 
L 209.713096 37.920769 
L 214.56197 37.920769 
L 219.410843 37.920769 
L 224.259716 37.920769 
L 229.10859 37.920769 
L 233.957463 37.920769 
L 238.806336 37.920769 
L 243.65521 37.920769 
L 248.504083 37.920769 
L 253.352956 37.920769 
L 258.20183 37.920769 
L 263.050703 37.920769 
L 267.899577 37.920769 
L 272.74845 37.920769 
L 277.597323 37.920769 
L 282.446197 37.920769 
L 287.29507 37.920769 
L 292.143943 37.920769 
L 296.992817 37.920769 
L 301.84169 37.920769 
L 306.690563 37.920769 
L 311.539437 37.920769 
L 316.38831 37.920769 
L 321.237183 37.920769 
L 326.086057 37.920769 
L 330.93493 37.920769 
L 335.783803 37.920769 
L 340.632677 37.920769 
L 345.48155 37.920769 
L 350.330423 37.920769 
L 355.179297 37.920769 
L 360.02817 37.920769 
L 364.877044 37.920769 
L 369.725917 37.920769 
L 374.57479 37.920769 
L 379.423664 37.920769 
L 384.272537 37.920769 
L 389.12141 37.920769 
L 393.970284 37.920769 
L 398.819157 37.920769 
L 403.66803 37.920769 
L 408.516904 37.920769 
L 413.365777 37.920769 
L 418.21465 37.920769 
L 423.063524 37.920769 
L 427.912397 37.920769 
L 432.76127 37.920769 
L 437.610144 37.920769 
L 442.459017 37.920769 
L 447.30789 37.920769 
L 452.156764 37.920769 
L 457.005637 37.920769 
L 461.85451 37.920769 
L 466.703384 37.920769 
L 471.552257 37.920769 
L 476.401131 37.920769 
L 481.250004 37.920769 
L 486.098877 37.920769 
L 490.947751 37.920769 
L 495.796624 37.920769 
L 500.645497 37.920769 
L 505.494371 37.920769 
L 510.343244 37.920769 
L 515.192117 37.920769 
L 520.040991 37.920769 
L 524.889864 37.920769 
L 529.738737 37.920769 
L 534.587611 37.920769 
L 539.436484 37.920769 
L 544.285357 37.920769 
L 549.134231 37.920769 
" clip-path="url(#pe3bd643476)" style="fill: none; stroke: #8491b4; stroke-width: 1.5; stroke-linecap: square"/>
   </g>
   <g id="line2d_19">
    <path d="M 69.095769 517.959231 
L 73.944643 197.791771 
L 78.793516 197.791771 
L 83.642389 197.791771 
L 88.491263 197.791771 
L 93.340136 197.791771 
L 98.189009 197.791771 
L 103.037883 197.791771 
L 107.886756 197.791771 
L 112.735629 197.791771 
L 117.584503 197.791771 
L 122.433376 197.727765 
L 127.282249 197.727765 
L 132.131123 197.41574 
L 136.979996 197.41574 
L 141.828869 196.28285 
L 146.677743 196.28285 
L 151.526616 194.394698 
L 156.37549 194.394698 
L 161.224363 194.394698 
L 166.073236 192.001364 
L 170.92211 192.001364 
L 175.770983 191.777346 
L 180.619856 191.777346 
L 185.46873 191.777346 
L 190.317603 187.889034 
L 195.166476 187.889034 
L 200.01535 187.697019 
L 204.864223 187.697019 
L 209.713096 185.296827 
L 214.56197 185.056807 
L 219.410843 185.056807 
L 224.259716 185.056807 
L 229.10859 178.853644 
L 233.957463 178.853644 
L 238.806336 178.853644 
L 243.65521 178.757636 
L 248.504083 178.757636 
L 253.352956 176.525457 
L 258.20183 176.525457 
L 263.050703 171.217603 
L 267.899577 171.217603 
L 272.74845 171.217603 
L 277.597323 166.513226 
L 282.446197 165.617155 
L 287.29507 165.617155 
L 292.143943 165.617155 
L 296.992817 165.617155 
L 301.84169 165.617155 
L 306.690563 165.617155 
L 311.539437 149.984702 
L 316.38831 149.984702 
L 321.237183 149.984702 
L 326.086057 149.984702 
L 330.93493 149.984702 
L 335.783803 148.736602 
L 340.632677 148.736602 
L 345.48155 143.302567 
L 350.330423 143.302567 
L 355.179297 143.302567 
L 360.02817 135.21049 
L 364.877044 135.21049 
L 369.725917 132.162246 
L 374.57479 132.066238 
L 379.423664 132.066238 
L 384.272537 132.066238 
L 389.12141 119.510565 
L 393.970284 119.510565 
L 398.819157 119.510565 
L 403.66803 119.510565 
L 408.516904 119.078531 
L 413.365777 112.722821 
L 418.21465 112.722821 
L 423.063524 112.722821 
L 427.912397 112.722821 
L 432.76127 102.882033 
L 437.610144 102.882033 
L 442.459017 101.025884 
L 447.30789 101.025884 
L 452.156764 101.025884 
L 457.005637 91.692565 
L 461.85451 91.692565 
L 466.703384 91.692565 
L 471.552257 82.251809 
L 476.401131 82.251809 
L 481.250004 75.761689 
L 486.098877 75.761689 
L 490.947751 71.633358 
L 495.796624 69.745207 
L 500.645497 69.745207 
L 505.494371 69.025149 
L 510.343244 69.025149 
L 515.192117 69.025149 
L 520.040991 69.025149 
L 524.889864 69.025149 
L 529.738737 69.025149 
L 534.587611 69.025149 
L 539.436484 69.025149 
L 544.285357 69.025149 
L 549.134231 37.920769 
" clip-path="url(#pe3bd643476)" style="fill: none; stroke: #91d1c2; stroke-width: 1.5; stroke-linecap: square"/>
   </g>
   <g id="line2d_20">
    <path d="M 69.095769 517.959231 
L 73.944643 117.091452 
L 78.793516 117.091452 
L 83.642389 117.091452 
L 88.491263 117.091452 
L 93.340136 117.091452 
L 98.189009 117.091452 
L 103.037883 117.091452 
L 107.886756 117.091452 
L 112.735629 117.091452 
L 117.584503 117.091452 
L 122.433376 117.027447 
L 127.282249 117.027447 
L 132.131123 116.715422 
L 136.979996 116.715422 
L 141.828869 115.582531 
L 146.677743 115.582531 
L 151.526616 113.69438 
L 156.37549 113.69438 
L 161.224363 113.69438 
L 166.073236 111.342191 
L 170.92211 111.342191 
L 175.770983 111.182178 
L 180.619856 111.182178 
L 185.46873 111.182178 
L 190.317603 107.593891 
L 195.166476 107.593891 
L 200.01535 107.401876 
L 204.864223 107.401876 
L 209.713096 105.001683 
L 214.56197 104.761664 
L 219.410843 104.761664 
L 224.259716 104.761664 
L 229.10859 98.819855 
L 233.957463 98.819855 
L 238.806336 98.819855 
L 243.65521 98.723847 
L 248.504083 98.723847 
L 253.352956 96.491668 
L 258.20183 96.491668 
L 263.050703 91.458122 
L 267.899577 91.458122 
L 272.74845 91.458122 
L 277.597323 86.964962 
L 282.446197 86.132895 
L 287.29507 86.132895 
L 292.143943 86.132895 
L 296.992817 86.132895 
L 301.84169 86.132895 
L 306.690563 86.132895 
L 311.539437 72.71022 
L 316.38831 72.71022 
L 321.237183 72.71022 
L 326.086057 72.71022 
L 330.93493 72.71022 
L 335.783803 71.622133 
L 340.632677 71.622133 
L 345.48155 67.22498 
L 350.330423 67.22498 
L 355.179297 67.22498 
L 360.02817 61.601673 
L 364.877044 61.601673 
L 369.725917 59.801528 
L 374.57479 59.705521 
L 379.423664 59.705521 
L 384.272537 59.705521 
L 389.12141 52.376934 
L 393.970284 52.376934 
L 398.819157 52.376934 
L 403.66803 52.376934 
L 408.516904 52.32893 
L 413.365777 49.851931 
L 418.21465 49.851931 
L 423.063524 49.851931 
L 427.912397 49.851931 
L 432.76127 46.359651 
L 437.610144 46.359651 
L 442.459017 46.007623 
L 447.30789 46.007623 
L 452.156764 46.007623 
L 457.005637 43.449704 
L 461.85451 43.449704 
L 466.703384 43.449704 
L 471.552257 41.497548 
L 476.401131 41.497548 
L 481.250004 40.710285 
L 486.098877 40.710285 
L 490.947751 40.350256 
L 495.796624 40.286251 
L 500.645497 40.286251 
L 505.494371 40.286251 
L 510.343244 40.286251 
L 515.192117 40.286251 
L 520.040991 40.286251 
L 524.889864 40.286251 
L 529.738737 40.286251 
L 534.587611 40.286251 
L 539.436484 40.286251 
L 544.285357 40.286251 
L 549.134231 37.920769 
" clip-path="url(#pe3bd643476)" style="fill: none; stroke: #dc0000; stroke-width: 1.5; stroke-linecap: square"/>
   </g>
   <g id="line2d_21">
    <path d="M 69.095769 517.959231 
L 73.944643 37.920769 
L 78.793516 37.920769 
L 83.642389 37.920769 
L 88.491263 37.920769 
L 93.340136 37.920769 
L 98.189009 37.920769 
L 103.037883 37.920769 
L 107.886756 37.920769 
L 112.735629 37.920769 
L 117.584503 37.920769 
L 122.433376 37.920769 
L 127.282249 37.920769 
L 132.131123 37.920769 
L 136.979996 37.920769 
L 141.828869 37.920769 
L 146.677743 37.920769 
L 151.526616 37.920769 
L 156.37549 37.920769 
L 161.224363 37.920769 
L 166.073236 37.920769 
L 170.92211 37.920769 
L 175.770983 37.920769 
L 180.619856 37.920769 
L 185.46873 37.920769 
L 190.317603 37.920769 
L 195.166476 37.920769 
L 200.01535 37.920769 
L 204.864223 37.920769 
L 209.713096 37.920769 
L 214.56197 37.920769 
L 219.410843 37.920769 
L 224.259716 37.920769 
L 229.10859 37.920769 
L 233.957463 37.920769 
L 238.806336 37.920769 
L 243.65521 37.920769 
L 248.504083 37.920769 
L 253.352956 37.920769 
L 258.20183 37.920769 
L 263.050703 37.920769 
L 267.899577 37.920769 
L 272.74845 37.920769 
L 277.597323 37.920769 
L 282.446197 37.920769 
L 287.29507 37.920769 
L 292.143943 37.920769 
L 296.992817 37.920769 
L 301.84169 37.920769 
L 306.690563 37.920769 
L 311.539437 37.920769 
L 316.38831 37.920769 
L 321.237183 37.920769 
L 326.086057 37.920769 
L 330.93493 37.920769 
L 335.783803 37.920769 
L 340.632677 37.920769 
L 345.48155 37.920769 
L 350.330423 37.920769 
L 355.179297 37.920769 
L 360.02817 37.920769 
L 364.877044 37.920769 
L 369.725917 37.920769 
L 374.57479 37.920769 
L 379.423664 37.920769 
L 384.272537 37.920769 
L 389.12141 37.920769 
L 393.970284 37.920769 
L 398.819157 37.920769 
L 403.66803 37.920769 
L 408.516904 37.920769 
L 413.365777 37.920769 
L 418.21465 37.920769 
L 423.063524 37.920769 
L 427.912397 37.920769 
L 432.76127 37.920769 
L 437.610144 37.920769 
L 442.459017 37.920769 
L 447.30789 37.920769 
L 452.156764 37.920769 
L 457.005637 37.920769 
L 461.85451 37.920769 
L 466.703384 37.920769 
L 471.552257 37.920769 
L 476.401131 37.920769 
L 481.250004 37.920769 
L 486.098877 37.920769 
L 490.947751 37.920769 
L 495.796624 37.920769 
L 500.645497 37.920769 
L 505.494371 37.920769 
L 510.343244 37.920769 
L 515.192117 37.920769 
L 520.040991 37.920769 
L 524.889864 37.920769 
L 529.738737 37.920769 
L 534.587611 37.920769 
L 539.436484 37.920769 
L 544.285357 37.920769 
L 549.134231 37.920769 
" clip-path="url(#pe3bd643476)" style="fill: none; stroke: #7e6148; stroke-width: 1.5; stroke-linecap: square"/>
   </g>
   <g id="line2d_22">
    <path d="M 69.095769 517.959231 
L 73.944643 37.920769 
L 78.793516 37.920769 
L 83.642389 37.920769 
L 88.491263 37.920769 
L 93.340136 37.920769 
L 98.189009 37.920769 
L 103.037883 37.920769 
L 107.886756 37.920769 
L 112.735629 37.920769 
L 117.584503 37.920769 
L 122.433376 37.920769 
L 127.282249 37.920769 
L 132.131123 37.920769 
L 136.979996 37.920769 
L 141.828869 37.920769 
L 146.677743 37.920769 
L 151.526616 37.920769 
L 156.37549 37.920769 
L 161.224363 37.920769 
L 166.073236 37.920769 
L 170.92211 37.920769 
L 175.770983 37.920769 
L 180.619856 37.920769 
L 185.46873 37.920769 
L 190.317603 37.920769 
L 195.166476 37.920769 
L 200.01535 37.920769 
L 204.864223 37.920769 
L 209.713096 37.920769 
L 214.56197 37.920769 
L 219.410843 37.920769 
L 224.259716 37.920769 
L 229.10859 37.920769 
L 233.957463 37.920769 
L 238.806336 37.920769 
L 243.65521 37.920769 
L 248.504083 37.920769 
L 253.352956 37.920769 
L 258.20183 37.920769 
L 263.050703 37.920769 
L 267.899577 37.920769 
L 272.74845 37.920769 
L 277.597323 37.920769 
L 282.446197 37.920769 
L 287.29507 37.920769 
L 292.143943 37.920769 
L 296.992817 37.920769 
L 301.84169 37.920769 
L 306.690563 37.920769 
L 311.539437 37.920769 
L 316.38831 37.920769 
L 321.237183 37.920769 
L 326.086057 37.920769 
L 330.93493 37.920769 
L 335.783803 37.920769 
L 340.632677 37.920769 
L 345.48155 37.920769 
L 350.330423 37.920769 
L 355.179297 37.920769 
L 360.02817 37.920769 
L 364.877044 37.920769 
L 369.725917 37.920769 
L 374.57479 37.920769 
L 379.423664 37.920769 
L 384.272537 37.920769 
L 389.12141 37.920769 
L 393.970284 37.920769 
L 398.819157 37.920769 
L 403.66803 37.920769 
L 408.516904 37.920769 
L 413.365777 37.920769 
L 418.21465 37.920769 
L 423.063524 37.920769 
L 427.912397 37.920769 
L 432.76127 37.920769 
L 437.610144 37.920769 
L 442.459017 37.920769 
L 447.30789 37.920769 
L 452.156764 37.920769 
L 457.005637 37.920769 
L 461.85451 37.920769 
L 466.703384 37.920769 
L 471.552257 37.920769 
L 476.401131 37.920769 
L 481.250004 37.920769 
L 486.098877 37.920769 
L 490.947751 37.920769 
L 495.796624 37.920769 
L 500.645497 37.920769 
L 505.494371 37.920769 
L 510.343244 37.920769 
L 515.192117 37.920769 
L 520.040991 37.920769 
L 524.889864 37.920769 
L 529.738737 37.920769 
L 534.587611 37.920769 
L 539.436484 37.920769 
L 544.285357 37.920769 
L 549.134231 37.920769 
" clip-path="url(#pe3bd643476)" style="fill: none; stroke: #b09c85; stroke-width: 1.5; stroke-linecap: square"/>
   </g>
   <g id="line2d_23">
    <path d="M 69.095769 517.959231 
L 549.134231 37.920769 
" clip-path="url(#pe3bd643476)" style="fill: none; stroke-dasharray: 3.7,1.6; stroke-dashoffset: 0; stroke: #999999"/>
   </g>
   <g id="patch_3">
    <path d="M 59.495 527.56 
L 59.495 28.32 
" style="fill: none; stroke: #000000; stroke-width: 1.5; stroke-linejoin: miter; stroke-linecap: square"/>
   </g>
   <g id="patch_4">
    <path d="M 558.735 527.56 
L 558.735 28.32 
" style="fill: none; stroke: #000000; stroke-width: 1.5; stroke-linejoin: miter; stroke-linecap: square"/>
   </g>
   <g id="patch_5">
    <path d="M 59.495 527.56 
L 558.735 527.56 
" style="fill: none; stroke: #000000; stroke-width: 1.5; stroke-linejoin: miter; stroke-linecap: square"/>
   </g>
   <g id="patch_6">
    <path d="M 59.495 28.32 
L 558.735 28.32 
" style="fill: none; stroke: #000000; stroke-width: 1.5; stroke-linejoin: miter; stroke-linecap: square"/>
   </g>
   <g id="text_15">
    <!-- ROC Curve (GSE229571 Validation) -->
    <g transform="translate(151.755 22.32) scale(0.16 -0.16)">
     <defs>
      <path id="DejaVuSans-Bold-52" d="M 2297 2597 
Q 2675 2597 2839 2737 
Q 3003 2878 3003 3200 
Q 3003 3519 2839 3656 
Q 2675 3794 2297 3794 
L 1791 3794 
L 1791 2597 
L 2297 2597 
z
M 1791 1766 
L 1791 0 
L 588 0 
L 588 4666 
L 2425 4666 
Q 3347 4666 3776 4356 
Q 4206 4047 4206 3378 
Q 4206 2916 3982 2619 
Q 3759 2322 3309 2181 
Q 3556 2125 3751 1926 
Q 3947 1728 4147 1325 
L 4800 0 
L 3519 0 
L 2950 1159 
Q 2778 1509 2601 1637 
Q 2425 1766 2131 1766 
L 1791 1766 
z
" transform="scale(0.015625)"/>
      <path id="DejaVuSans-Bold-4f" d="M 2719 3878 
Q 2169 3878 1866 3472 
Q 1563 3066 1563 2328 
Q 1563 1594 1866 1187 
Q 2169 781 2719 781 
Q 3272 781 3575 1187 
Q 3878 1594 3878 2328 
Q 3878 3066 3575 3472 
Q 3272 3878 2719 3878 
z
M 2719 4750 
Q 3844 4750 4481 4106 
Q 5119 3463 5119 2328 
Q 5119 1197 4481 553 
Q 3844 -91 2719 -91 
Q 1597 -91 958 553 
Q 319 1197 319 2328 
Q 319 3463 958 4106 
Q 1597 4750 2719 4750 
z
" transform="scale(0.015625)"/>
      <path id="DejaVuSans-Bold-43" d="M 4288 256 
Q 3956 84 3597 -3 
Q 3238 -91 2847 -91 
Q 1681 -91 1000 561 
Q 319 1213 319 2328 
Q 319 3447 1000 4098 
Q 1681 4750 2847 4750 
Q 3238 4750 3597 4662 
Q 3956 4575 4288 4403 
L 4288 3438 
Q 3953 3666 3628 3772 
Q 3303 3878 2944 3878 
Q 2300 3878 1931 3465 
Q 1563 3053 1563 2328 
Q 1563 1606 1931 1193 
Q 2300 781 2944 781 
Q 3303 781 3628 887 
Q 3953 994 4288 1222 
L 4288 256 
z
" transform="scale(0.015625)"/>
      <path id="DejaVuSans-Bold-75" d="M 500 1363 
L 500 3500 
L 1625 3500 
L 1625 3150 
Q 1625 2866 1622 2436 
Q 1619 2006 1619 1863 
Q 1619 1441 1641 1255 
Q 1663 1069 1716 984 
Q 1784 875 1895 815 
Q 2006 756 2150 756 
Q 2500 756 2700 1025 
Q 2900 1294 2900 1772 
L 2900 3500 
L 4019 3500 
L 4019 0 
L 2900 0 
L 2900 506 
Q 2647 200 2364 54 
Q 2081 -91 1741 -91 
Q 1134 -91 817 281 
Q 500 653 500 1363 
z
" transform="scale(0.015625)"/>
      <path id="DejaVuSans-Bold-72" d="M 3138 2547 
Q 2991 2616 2845 2648 
Q 2700 2681 2553 2681 
Q 2122 2681 1889 2404 
Q 1656 2128 1656 1613 
L 1656 0 
L 538 0 
L 538 3500 
L 1656 3500 
L 1656 2925 
Q 1872 3269 2151 3426 
Q 2431 3584 2822 3584 
Q 2878 3584 2943 3579 
Q 3009 3575 3134 3559 
L 3138 2547 
z
" transform="scale(0.015625)"/>
      <path id="DejaVuSans-Bold-28" d="M 2413 -844 
L 1484 -844 
Q 1006 -72 778 623 
Q 550 1319 550 2003 
Q 550 2688 779 3389 
Q 1009 4091 1484 4856 
L 2413 4856 
Q 2013 4116 1813 3408 
Q 1613 2700 1613 2009 
Q 1613 1319 1811 609 
Q 2009 -100 2413 -844 
z
" transform="scale(0.015625)"/>
      <path id="DejaVuSans-Bold-47" d="M 4781 347 
Q 4331 128 3847 18 
Q 3363 -91 2847 -91 
Q 1681 -91 1000 561 
Q 319 1213 319 2328 
Q 319 3456 1012 4103 
Q 1706 4750 2913 4750 
Q 3378 4750 3804 4662 
Q 4231 4575 4609 4403 
L 4609 3438 
Q 4219 3659 3833 3768 
Q 3447 3878 3059 3878 
Q 2341 3878 1952 3476 
Q 1563 3075 1563 2328 
Q 1563 1588 1938 1184 
Q 2313 781 3003 781 
Q 3191 781 3352 804 
Q 3513 828 3641 878 
L 3641 1784 
L 2906 1784 
L 2906 2591 
L 4781 2591 
L 4781 347 
z
" transform="scale(0.015625)"/>
      <path id="DejaVuSans-Bold-45" d="M 588 4666 
L 3834 4666 
L 3834 3756 
L 1791 3756 
L 1791 2888 
L 3713 2888 
L 3713 1978 
L 1791 1978 
L 1791 909 
L 3903 909 
L 3903 0 
L 588 0 
L 588 4666 
z
" transform="scale(0.015625)"/>
      <path id="DejaVuSans-Bold-32" d="M 1844 884 
L 3897 884 
L 3897 0 
L 506 0 
L 506 884 
L 2209 2388 
Q 2438 2594 2547 2791 
Q 2656 2988 2656 3200 
Q 2656 3528 2436 3728 
Q 2216 3928 1850 3928 
Q 1569 3928 1234 3808 
Q 900 3688 519 3450 
L 519 4475 
Q 925 4609 1322 4679 
Q 1719 4750 2100 4750 
Q 2938 4750 3402 4381 
Q 3866 4013 3866 3353 
Q 3866 2972 3669 2642 
Q 3472 2313 2841 1759 
L 1844 884 
z
" transform="scale(0.015625)"/>
      <path id="DejaVuSans-Bold-39" d="M 641 103 
L 641 966 
Q 928 831 1190 764 
Q 1453 697 1709 697 
Q 2247 697 2547 995 
Q 2847 1294 2900 1881 
Q 2688 1725 2447 1647 
Q 2206 1569 1925 1569 
Q 1209 1569 770 1986 
Q 331 2403 331 3084 
Q 331 3838 820 4291 
Q 1309 4744 2131 4744 
Q 3044 4744 3544 4128 
Q 4044 3513 4044 2388 
Q 4044 1231 3459 570 
Q 2875 -91 1856 -91 
Q 1528 -91 1228 -42 
Q 928 6 641 103 
z
M 2125 2350 
Q 2441 2350 2600 2554 
Q 2759 2759 2759 3169 
Q 2759 3575 2600 3781 
Q 2441 3988 2125 3988 
Q 1809 3988 1650 3781 
Q 1491 3575 1491 3169 
Q 1491 2759 1650 2554 
Q 1809 2350 2125 2350 
z
" transform="scale(0.015625)"/>
      <path id="DejaVuSans-Bold-35" d="M 678 4666 
L 3669 4666 
L 3669 3781 
L 1638 3781 
L 1638 3059 
Q 1775 3097 1914 3117 
Q 2053 3138 2203 3138 
Q 3056 3138 3531 2711 
Q 4006 2284 4006 1522 
Q 4006 766 3489 337 
Q 2972 -91 2053 -91 
Q 1656 -91 1267 -14 
Q 878 63 494 219 
L 494 1166 
Q 875 947 1217 837 
Q 1559 728 1863 728 
Q 2300 728 2551 942 
Q 2803 1156 2803 1522 
Q 2803 1891 2551 2103 
Q 2300 2316 1863 2316 
Q 1603 2316 1309 2248 
Q 1016 2181 678 2041 
L 678 4666 
z
" transform="scale(0.015625)"/>
      <path id="DejaVuSans-Bold-37" d="M 428 4666 
L 3944 4666 
L 3944 3988 
L 2125 0 
L 953 0 
L 2675 3781 
L 428 3781 
L 428 4666 
z
" transform="scale(0.015625)"/>
      <path id="DejaVuSans-Bold-56" d="M 31 4666 
L 1241 4666 
L 2478 1222 
L 3713 4666 
L 4922 4666 
L 3194 0 
L 1759 0 
L 31 4666 
z
" transform="scale(0.015625)"/>
      <path id="DejaVuSans-Bold-61" d="M 2106 1575 
Q 1756 1575 1579 1456 
Q 1403 1338 1403 1106 
Q 1403 894 1545 773 
Q 1688 653 1941 653 
Q 2256 653 2472 879 
Q 2688 1106 2688 1447 
L 2688 1575 
L 2106 1575 
z
M 3816 1997 
L 3816 0 
L 2688 0 
L 2688 519 
Q 2463 200 2181 54 
Q 1900 -91 1497 -91 
Q 953 -91 614 226 
Q 275 544 275 1050 
Q 275 1666 698 1953 
Q 1122 2241 2028 2241 
L 2688 2241 
L 2688 2328 
Q 2688 2594 2478 2717 
Q 2269 2841 1825 2841 
Q 1466 2841 1156 2769 
Q 847 2697 581 2553 
L 581 3406 
Q 941 3494 1303 3539 
Q 1666 3584 2028 3584 
Q 2975 3584 3395 3211 
Q 3816 2838 3816 1997 
z
" transform="scale(0.015625)"/>
      <path id="DejaVuSans-Bold-6c" d="M 538 4863 
L 1656 4863 
L 1656 0 
L 538 0 
L 538 4863 
z
" transform="scale(0.015625)"/>
      <path id="DejaVuSans-Bold-64" d="M 2919 2988 
L 2919 4863 
L 4044 4863 
L 4044 0 
L 2919 0 
L 2919 506 
Q 2688 197 2409 53 
Q 2131 -91 1766 -91 
Q 1119 -91 703 423 
Q 288 938 288 1747 
Q 288 2556 703 3070 
Q 1119 3584 1766 3584 
Q 2128 3584 2408 3439 
Q 2688 3294 2919 2988 
z
M 2181 722 
Q 2541 722 2730 984 
Q 2919 1247 2919 1747 
Q 2919 2247 2730 2509 
Q 2541 2772 2181 2772 
Q 1825 2772 1636 2509 
Q 1447 2247 1447 1747 
Q 1447 1247 1636 984 
Q 1825 722 2181 722 
z
" transform="scale(0.015625)"/>
      <path id="DejaVuSans-Bold-6f" d="M 2203 2784 
Q 1831 2784 1636 2517 
Q 1441 2250 1441 1747 
Q 1441 1244 1636 976 
Q 1831 709 2203 709 
Q 2569 709 2762 976 
Q 2956 1244 2956 1747 
Q 2956 2250 2762 2517 
Q 2569 2784 2203 2784 
z
M 2203 3584 
Q 3106 3584 3614 3096 
Q 4122 2609 4122 1747 
Q 4122 884 3614 396 
Q 3106 -91 2203 -91 
Q 1297 -91 786 396 
Q 275 884 275 1747 
Q 275 2609 786 3096 
Q 1297 3584 2203 3584 
z
" transform="scale(0.015625)"/>
      <path id="DejaVuSans-Bold-29" d="M 513 -844 
Q 913 -100 1113 609 
Q 1313 1319 1313 2009 
Q 1313 2700 1113 3408 
Q 913 4116 513 4856 
L 1441 4856 
Q 1916 4091 2145 3389 
Q 2375 2688 2375 2003 
Q 2375 1319 2147 623 
Q 1919 -72 1441 -844 
L 513 -844 
z
" transform="scale(0.015625)"/>
     </defs>
     <use xlink:href="#DejaVuSans-Bold-52"/>
     <use xlink:href="#DejaVuSans-Bold-4f" x="77.001953"/>
     <use xlink:href="#DejaVuSans-Bold-43" x="162.011719"/>
     <use xlink:href="#DejaVuSans-Bold-20" x="235.400391"/>
     <use xlink:href="#DejaVuSans-Bold-43" x="270.214844"/>
     <use xlink:href="#DejaVuSans-Bold-75" x="343.603516"/>
     <use xlink:href="#DejaVuSans-Bold-72" x="414.794922"/>
     <use xlink:href="#DejaVuSans-Bold-76" x="464.111328"/>
     <use xlink:href="#DejaVuSans-Bold-65" x="529.296875"/>
     <use xlink:href="#DejaVuSans-Bold-20" x="597.119141"/>
     <use xlink:href="#DejaVuSans-Bold-28" x="631.933594"/>
     <use xlink:href="#DejaVuSans-Bold-47" x="677.636719"/>
     <use xlink:href="#DejaVuSans-Bold-53" x="759.716797"/>
     <use xlink:href="#DejaVuSans-Bold-45" x="831.738281"/>
     <use xlink:href="#DejaVuSans-Bold-32" x="900.048828"/>
     <use xlink:href="#DejaVuSans-Bold-32" x="969.628906"/>
     <use xlink:href="#DejaVuSans-Bold-39" x="1039.208984"/>
     <use xlink:href="#DejaVuSans-Bold-35" x="1108.789062"/>
     <use xlink:href="#DejaVuSans-Bold-37" x="1178.369141"/>
     <use xlink:href="#DejaVuSans-Bold-31" x="1247.949219"/>
     <use xlink:href="#DejaVuSans-Bold-20" x="1317.529297"/>
     <use xlink:href="#DejaVuSans-Bold-56" x="1352.34375"/>
     <use xlink:href="#DejaVuSans-Bold-61" x="1424.236328"/>
     <use xlink:href="#DejaVuSans-Bold-6c" x="1491.716797"/>
     <use xlink:href="#DejaVuSans-Bold-69" x="1525.994141"/>
     <use xlink:href="#DejaVuSans-Bold-64" x="1560.271484"/>
     <use xlink:href="#DejaVuSans-Bold-61" x="1631.853516"/>
     <use xlink:href="#DejaVuSans-Bold-74" x="1699.333984"/>
     <use xlink:href="#DejaVuSans-Bold-69" x="1747.136719"/>
     <use xlink:href="#DejaVuSans-Bold-6f" x="1781.414062"/>
     <use xlink:href="#DejaVuSans-Bold-6e" x="1850.115234"/>
     <use xlink:href="#DejaVuSans-Bold-29" x="1921.306641"/>
    </g>
   </g>
   <g id="legend_1">
    <g id="line2d_24">
     <path d="M 381.06 380.799062 
L 391.06 380.799062 
L 401.06 380.799062 
" style="fill: none; stroke: #e64b35; stroke-width: 1.5; stroke-linecap: square"/>
    </g>
    <g id="text_16">
     <!-- LR (AUC=0.944) -->
     <g transform="translate(409.06 384.299062) scale(0.1 -0.1)">
      <defs>
       <path id="DejaVuSans-Bold-4c" d="M 588 4666 
L 1791 4666 
L 1791 909 
L 3903 909 
L 3903 0 
L 588 0 
L 588 4666 
z
" transform="scale(0.015625)"/>
       <path id="DejaVuSans-Bold-41" d="M 3419 850 
L 1538 850 
L 1241 0 
L 31 0 
L 1759 4666 
L 3194 4666 
L 4922 0 
L 3713 0 
L 3419 850 
z
M 1838 1716 
L 3116 1716 
L 2478 3572 
L 1838 1716 
z
" transform="scale(0.015625)"/>
       <path id="DejaVuSans-Bold-55" d="M 588 4666 
L 1791 4666 
L 1791 1869 
Q 1791 1291 1980 1042 
Q 2169 794 2597 794 
Q 3028 794 3217 1042 
Q 3406 1291 3406 1869 
L 3406 4666 
L 4609 4666 
L 4609 1869 
Q 4609 878 4112 393 
Q 3616 -91 2597 -91 
Q 1581 -91 1084 393 
Q 588 878 588 1869 
L 588 4666 
z
" transform="scale(0.015625)"/>
       <path id="DejaVuSans-Bold-3d" d="M 678 3084 
L 4684 3084 
L 4684 2350 
L 678 2350 
L 678 3084 
z
M 678 1663 
L 4684 1663 
L 4684 922 
L 678 922 
L 678 1663 
z
" transform="scale(0.015625)"/>
       <path id="DejaVuSans-Bold-30" d="M 2944 2338 
Q 2944 3213 2780 3570 
Q 2616 3928 2228 3928 
Q 1841 3928 1675 3570 
Q 1509 3213 1509 2338 
Q 1509 1453 1675 1090 
Q 1841 728 2228 728 
Q 2613 728 2778 1090 
Q 2944 1453 2944 2338 
z
M 4147 2328 
Q 4147 1169 3647 539 
Q 3147 -91 2228 -91 
Q 1306 -91 806 539 
Q 306 1169 306 2328 
Q 306 3491 806 4120 
Q 1306 4750 2228 4750 
Q 3147 4750 3647 4120 
Q 4147 3491 4147 2328 
z
" transform="scale(0.015625)"/>
       <path id="DejaVuSans-Bold-2e" d="M 653 1209 
L 1778 1209 
L 1778 0 
L 653 0 
L 653 1209 
z
" transform="scale(0.015625)"/>
       <path id="DejaVuSans-Bold-34" d="M 2356 3675 
L 1038 1722 
L 2356 1722 
L 2356 3675 
z
M 2156 4666 
L 3494 4666 
L 3494 1722 
L 4159 1722 
L 4159 850 
L 3494 850 
L 3494 0 
L 2356 0 
L 2356 850 
L 288 850 
L 288 1881 
L 2156 4666 
z
" transform="scale(0.015625)"/>
      </defs>
      <use xlink:href="#DejaVuSans-Bold-4c"/>
      <use xlink:href="#DejaVuSans-Bold-52" x="63.720703"/>
      <use xlink:href="#DejaVuSans-Bold-20" x="140.722656"/>
      <use xlink:href="#DejaVuSans-Bold-28" x="175.537109"/>
      <use xlink:href="#DejaVuSans-Bold-41" x="221.240234"/>
      <use xlink:href="#DejaVuSans-Bold-55" x="295.507812"/>
      <use xlink:href="#DejaVuSans-Bold-43" x="376.708984"/>
      <use xlink:href="#DejaVuSans-Bold-3d" x="450.097656"/>
      <use xlink:href="#DejaVuSans-Bold-30" x="533.886719"/>
      <use xlink:href="#DejaVuSans-Bold-2e" x="603.466797"/>
      <use xlink:href="#DejaVuSans-Bold-39" x="641.455078"/>
      <use xlink:href="#DejaVuSans-Bold-34" x="711.035156"/>
      <use xlink:href="#DejaVuSans-Bold-34" x="780.615234"/>
      <use xlink:href="#DejaVuSans-Bold-29" x="850.195312"/>
     </g>
    </g>
    <g id="line2d_25">
     <path d="M 381.06 395.477188 
L 391.06 395.477188 
L 401.06 395.477188 
" style="fill: none; stroke: #4dbbd5; stroke-width: 1.5; stroke-linecap: square"/>
    </g>
    <g id="text_17">
     <!-- LDA (AUC=0.803) -->
     <g transform="translate(409.06 398.977188) scale(0.1 -0.1)">
      <defs>
       <path id="DejaVuSans-Bold-44" d="M 1791 3756 
L 1791 909 
L 2222 909 
Q 2959 909 3348 1275 
Q 3738 1641 3738 2338 
Q 3738 3031 3350 3393 
Q 2963 3756 2222 3756 
L 1791 3756 
z
M 588 4666 
L 1856 4666 
Q 2919 4666 3439 4514 
Q 3959 4363 4331 4000 
Q 4659 3684 4818 3271 
Q 4978 2859 4978 2338 
Q 4978 1809 4818 1395 
Q 4659 981 4331 666 
Q 3956 303 3431 151 
Q 2906 0 1856 0 
L 588 0 
L 588 4666 
z
" transform="scale(0.015625)"/>
       <path id="DejaVuSans-Bold-38" d="M 2228 2088 
Q 1891 2088 1709 1903 
Q 1528 1719 1528 1375 
Q 1528 1031 1709 848 
Q 1891 666 2228 666 
Q 2563 666 2741 848 
Q 2919 1031 2919 1375 
Q 2919 1722 2741 1905 
Q 2563 2088 2228 2088 
z
M 1350 2484 
Q 925 2613 709 2878 
Q 494 3144 494 3541 
Q 494 4131 934 4440 
Q 1375 4750 2228 4750 
Q 3075 4750 3515 4442 
Q 3956 4134 3956 3541 
Q 3956 3144 3739 2878 
Q 3522 2613 3097 2484 
Q 3572 2353 3814 2058 
Q 4056 1763 4056 1313 
Q 4056 619 3595 264 
Q 3134 -91 2228 -91 
Q 1319 -91 855 264 
Q 391 619 391 1313 
Q 391 1763 633 2058 
Q 875 2353 1350 2484 
z
M 1631 3419 
Q 1631 3141 1786 2991 
Q 1941 2841 2228 2841 
Q 2509 2841 2662 2991 
Q 2816 3141 2816 3419 
Q 2816 3697 2662 3845 
Q 2509 3994 2228 3994 
Q 1941 3994 1786 3844 
Q 1631 3694 1631 3419 
z
" transform="scale(0.015625)"/>
       <path id="DejaVuSans-Bold-33" d="M 2981 2516 
Q 3453 2394 3698 2092 
Q 3944 1791 3944 1325 
Q 3944 631 3412 270 
Q 2881 -91 1863 -91 
Q 1503 -91 1142 -33 
Q 781 25 428 141 
L 428 1069 
Q 766 900 1098 814 
Q 1431 728 1753 728 
Q 2231 728 2486 893 
Q 2741 1059 2741 1369 
Q 2741 1688 2480 1852 
Q 2219 2016 1709 2016 
L 1228 2016 
L 1228 2791 
L 1734 2791 
Q 2188 2791 2409 2933 
Q 2631 3075 2631 3366 
Q 2631 3634 2415 3781 
Q 2200 3928 1806 3928 
Q 1516 3928 1219 3862 
Q 922 3797 628 3669 
L 628 4550 
Q 984 4650 1334 4700 
Q 1684 4750 2022 4750 
Q 2931 4750 3382 4451 
Q 3834 4153 3834 3553 
Q 3834 3144 3618 2883 
Q 3403 2622 2981 2516 
z
" transform="scale(0.015625)"/>
      </defs>
      <use xlink:href="#DejaVuSans-Bold-4c"/>
      <use xlink:href="#DejaVuSans-Bold-44" x="63.720703"/>
      <use xlink:href="#DejaVuSans-Bold-41" x="146.728516"/>
      <use xlink:href="#DejaVuSans-Bold-20" x="224.121094"/>
      <use xlink:href="#DejaVuSans-Bold-28" x="258.935547"/>
      <use xlink:href="#DejaVuSans-Bold-41" x="304.638672"/>
      <use xlink:href="#DejaVuSans-Bold-55" x="378.90625"/>
      <use xlink:href="#DejaVuSans-Bold-43" x="460.107422"/>
      <use xlink:href="#DejaVuSans-Bold-3d" x="533.496094"/>
      <use xlink:href="#DejaVuSans-Bold-30" x="617.285156"/>
      <use xlink:href="#DejaVuSans-Bold-2e" x="686.865234"/>
      <use xlink:href="#DejaVuSans-Bold-38" x="724.853516"/>
      <use xlink:href="#DejaVuSans-Bold-30" x="794.433594"/>
      <use xlink:href="#DejaVuSans-Bold-33" x="864.013672"/>
      <use xlink:href="#DejaVuSans-Bold-29" x="933.59375"/>
     </g>
    </g>
    <g id="line2d_26">
     <path d="M 381.06 410.155313 
L 391.06 410.155313 
L 401.06 410.155313 
" style="fill: none; stroke: #00a087; stroke-width: 1.5; stroke-linecap: square"/>
    </g>
    <g id="text_18">
     <!-- NaiveBayes (AUC=0.972) -->
     <g transform="translate(409.06 413.655313) scale(0.1 -0.1)">
      <defs>
       <path id="DejaVuSans-Bold-4e" d="M 588 4666 
L 1931 4666 
L 3628 1466 
L 3628 4666 
L 4769 4666 
L 4769 0 
L 3425 0 
L 1728 3200 
L 1728 0 
L 588 0 
L 588 4666 
z
" transform="scale(0.015625)"/>
       <path id="DejaVuSans-Bold-42" d="M 2456 2859 
Q 2741 2859 2887 2984 
Q 3034 3109 3034 3353 
Q 3034 3594 2887 3720 
Q 2741 3847 2456 3847 
L 1791 3847 
L 1791 2859 
L 2456 2859 
z
M 2497 819 
Q 2859 819 3042 972 
Q 3225 1125 3225 1434 
Q 3225 1738 3044 1889 
Q 2863 2041 2497 2041 
L 1791 2041 
L 1791 819 
L 2497 819 
z
M 3616 2497 
Q 4003 2384 4215 2081 
Q 4428 1778 4428 1338 
Q 4428 663 3972 331 
Q 3516 0 2584 0 
L 588 0 
L 588 4666 
L 2394 4666 
Q 3366 4666 3802 4372 
Q 4238 4078 4238 3431 
Q 4238 3091 4078 2852 
Q 3919 2613 3616 2497 
z
" transform="scale(0.015625)"/>
      </defs>
      <use xlink:href="#DejaVuSans-Bold-4e"/>
      <use xlink:href="#DejaVuSans-Bold-61" x="83.691406"/>
      <use xlink:href="#DejaVuSans-Bold-69" x="151.171875"/>
      <use xlink:href="#DejaVuSans-Bold-76" x="185.449219"/>
      <use xlink:href="#DejaVuSans-Bold-65" x="250.634766"/>
      <use xlink:href="#DejaVuSans-Bold-42" x="318.457031"/>
      <use xlink:href="#DejaVuSans-Bold-61" x="394.677734"/>
      <use xlink:href="#DejaVuSans-Bold-79" x="459.033203"/>
      <use xlink:href="#DejaVuSans-Bold-65" x="524.21875"/>
      <use xlink:href="#DejaVuSans-Bold-73" x="592.041016"/>
      <use xlink:href="#DejaVuSans-Bold-20" x="651.5625"/>
      <use xlink:href="#DejaVuSans-Bold-28" x="686.376953"/>
      <use xlink:href="#DejaVuSans-Bold-41" x="732.080078"/>
      <use xlink:href="#DejaVuSans-Bold-55" x="806.347656"/>
      <use xlink:href="#DejaVuSans-Bold-43" x="887.548828"/>
      <use xlink:href="#DejaVuSans-Bold-3d" x="960.9375"/>
      <use xlink:href="#DejaVuSans-Bold-30" x="1044.726562"/>
      <use xlink:href="#DejaVuSans-Bold-2e" x="1114.306641"/>
      <use xlink:href="#DejaVuSans-Bold-39" x="1152.294922"/>
      <use xlink:href="#DejaVuSans-Bold-37" x="1221.875"/>
      <use xlink:href="#DejaVuSans-Bold-32" x="1291.455078"/>
      <use xlink:href="#DejaVuSans-Bold-29" x="1361.035156"/>
     </g>
    </g>
    <g id="line2d_27">
     <path d="M 381.06 424.911563 
L 391.06 424.911563 
L 401.06 424.911563 
" style="fill: none; stroke: #3c5488; stroke-width: 1.5; stroke-linecap: square"/>
    </g>
    <g id="text_19">
     <!-- KNN (AUC=0.801) -->
     <g transform="translate(409.06 428.411563) scale(0.1 -0.1)">
      <defs>
       <path id="DejaVuSans-Bold-4b" d="M 588 4666 
L 1791 4666 
L 1791 2963 
L 3525 4666 
L 4922 4666 
L 2675 2456 
L 5153 0 
L 3647 0 
L 1791 1838 
L 1791 0 
L 588 0 
L 588 4666 
z
" transform="scale(0.015625)"/>
      </defs>
      <use xlink:href="#DejaVuSans-Bold-4b"/>
      <use xlink:href="#DejaVuSans-Bold-4e" x="77.490234"/>
      <use xlink:href="#DejaVuSans-Bold-4e" x="161.181641"/>
      <use xlink:href="#DejaVuSans-Bold-20" x="244.873047"/>
      <use xlink:href="#DejaVuSans-Bold-28" x="279.6875"/>
      <use xlink:href="#DejaVuSans-Bold-41" x="325.390625"/>
      <use xlink:href="#DejaVuSans-Bold-55" x="399.658203"/>
      <use xlink:href="#DejaVuSans-Bold-43" x="480.859375"/>
      <use xlink:href="#DejaVuSans-Bold-3d" x="554.248047"/>
      <use xlink:href="#DejaVuSans-Bold-30" x="638.037109"/>
      <use xlink:href="#DejaVuSans-Bold-2e" x="707.617188"/>
      <use xlink:href="#DejaVuSans-Bold-38" x="745.605469"/>
      <use xlink:href="#DejaVuSans-Bold-30" x="815.185547"/>
      <use xlink:href="#DejaVuSans-Bold-31" x="884.765625"/>
      <use xlink:href="#DejaVuSans-Bold-29" x="954.345703"/>
     </g>
    </g>
    <g id="line2d_28">
     <path d="M 381.06 439.589688 
L 391.06 439.589688 
L 401.06 439.589688 
" style="fill: none; stroke: #f39b7f; stroke-width: 1.5; stroke-linecap: square"/>
    </g>
    <g id="text_20">
     <!-- RF (AUC=0.972) -->
     <g transform="translate(409.06 443.089688) scale(0.1 -0.1)">
      <defs>
       <path id="DejaVuSans-Bold-46" d="M 588 4666 
L 3834 4666 
L 3834 3756 
L 1791 3756 
L 1791 2888 
L 3713 2888 
L 3713 1978 
L 1791 1978 
L 1791 0 
L 588 0 
L 588 4666 
z
" transform="scale(0.015625)"/>
      </defs>
      <use xlink:href="#DejaVuSans-Bold-52"/>
      <use xlink:href="#DejaVuSans-Bold-46" x="77.001953"/>
      <use xlink:href="#DejaVuSans-Bold-20" x="145.3125"/>
      <use xlink:href="#DejaVuSans-Bold-28" x="180.126953"/>
      <use xlink:href="#DejaVuSans-Bold-41" x="225.830078"/>
      <use xlink:href="#DejaVuSans-Bold-55" x="300.097656"/>
      <use xlink:href="#DejaVuSans-Bold-43" x="381.298828"/>
      <use xlink:href="#DejaVuSans-Bold-3d" x="454.6875"/>
      <use xlink:href="#DejaVuSans-Bold-30" x="538.476562"/>
      <use xlink:href="#DejaVuSans-Bold-2e" x="608.056641"/>
      <use xlink:href="#DejaVuSans-Bold-39" x="646.044922"/>
      <use xlink:href="#DejaVuSans-Bold-37" x="715.625"/>
      <use xlink:href="#DejaVuSans-Bold-32" x="785.205078"/>
      <use xlink:href="#DejaVuSans-Bold-29" x="854.785156"/>
     </g>
    </g>
    <g id="line2d_29">
     <path d="M 381.06 454.267812 
L 391.06 454.267812 
L 401.06 454.267812 
" style="fill: none; stroke: #8491b4; stroke-width: 1.5; stroke-linecap: square"/>
    </g>
    <g id="text_21">
     <!-- ExtraTrees (AUC=1.000) -->
     <g transform="translate(409.06 457.767812) scale(0.1 -0.1)">
      <defs>
       <path id="DejaVuSans-Bold-78" d="M 1422 1791 
L 159 3500 
L 1344 3500 
L 2059 2463 
L 2784 3500 
L 3969 3500 
L 2706 1797 
L 4031 0 
L 2847 0 
L 2059 1106 
L 1281 0 
L 97 0 
L 1422 1791 
z
" transform="scale(0.015625)"/>
       <path id="DejaVuSans-Bold-54" d="M 31 4666 
L 4331 4666 
L 4331 3756 
L 2784 3756 
L 2784 0 
L 1581 0 
L 1581 3756 
L 31 3756 
L 31 4666 
z
" transform="scale(0.015625)"/>
      </defs>
      <use xlink:href="#DejaVuSans-Bold-45"/>
      <use xlink:href="#DejaVuSans-Bold-78" x="68.310547"/>
      <use xlink:href="#DejaVuSans-Bold-74" x="132.8125"/>
      <use xlink:href="#DejaVuSans-Bold-72" x="180.615234"/>
      <use xlink:href="#DejaVuSans-Bold-61" x="229.931641"/>
      <use xlink:href="#DejaVuSans-Bold-54" x="297.412109"/>
      <use xlink:href="#DejaVuSans-Bold-72" x="354.625"/>
      <use xlink:href="#DejaVuSans-Bold-65" x="403.941406"/>
      <use xlink:href="#DejaVuSans-Bold-65" x="471.763672"/>
      <use xlink:href="#DejaVuSans-Bold-73" x="539.585938"/>
      <use xlink:href="#DejaVuSans-Bold-20" x="599.107422"/>
      <use xlink:href="#DejaVuSans-Bold-28" x="633.921875"/>
      <use xlink:href="#DejaVuSans-Bold-41" x="679.625"/>
      <use xlink:href="#DejaVuSans-Bold-55" x="753.892578"/>
      <use xlink:href="#DejaVuSans-Bold-43" x="835.09375"/>
      <use xlink:href="#DejaVuSans-Bold-3d" x="908.482422"/>
      <use xlink:href="#DejaVuSans-Bold-31" x="992.271484"/>
      <use xlink:href="#DejaVuSans-Bold-2e" x="1061.851562"/>
      <use xlink:href="#DejaVuSans-Bold-30" x="1099.839844"/>
      <use xlink:href="#DejaVuSans-Bold-30" x="1169.419922"/>
      <use xlink:href="#DejaVuSans-Bold-30" x="1239"/>
      <use xlink:href="#DejaVuSans-Bold-29" x="1308.580078"/>
     </g>
    </g>
    <g id="line2d_30">
     <path d="M 381.06 468.945938 
L 391.06 468.945938 
L 401.06 468.945938 
" style="fill: none; stroke: #91d1c2; stroke-width: 1.5; stroke-linecap: square"/>
    </g>
    <g id="text_22">
     <!-- AdaBoost (AUC=0.774) -->
     <g transform="translate(409.06 472.445938) scale(0.1 -0.1)">
      <use xlink:href="#DejaVuSans-Bold-41"/>
      <use xlink:href="#DejaVuSans-Bold-64" x="77.392578"/>
      <use xlink:href="#DejaVuSans-Bold-61" x="148.974609"/>
      <use xlink:href="#DejaVuSans-Bold-42" x="216.455078"/>
      <use xlink:href="#DejaVuSans-Bold-6f" x="292.675781"/>
      <use xlink:href="#DejaVuSans-Bold-6f" x="361.376953"/>
      <use xlink:href="#DejaVuSans-Bold-73" x="430.078125"/>
      <use xlink:href="#DejaVuSans-Bold-74" x="489.599609"/>
      <use xlink:href="#DejaVuSans-Bold-20" x="537.402344"/>
      <use xlink:href="#DejaVuSans-Bold-28" x="572.216797"/>
      <use xlink:href="#DejaVuSans-Bold-41" x="617.919922"/>
      <use xlink:href="#DejaVuSans-Bold-55" x="692.1875"/>
      <use xlink:href="#DejaVuSans-Bold-43" x="773.388672"/>
      <use xlink:href="#DejaVuSans-Bold-3d" x="846.777344"/>
      <use xlink:href="#DejaVuSans-Bold-30" x="930.566406"/>
      <use xlink:href="#DejaVuSans-Bold-2e" x="1000.146484"/>
      <use xlink:href="#DejaVuSans-Bold-37" x="1038.134766"/>
      <use xlink:href="#DejaVuSans-Bold-37" x="1107.714844"/>
      <use xlink:href="#DejaVuSans-Bold-34" x="1177.294922"/>
      <use xlink:href="#DejaVuSans-Bold-29" x="1246.875"/>
     </g>
    </g>
    <g id="line2d_31">
     <path d="M 381.06 483.624062 
L 391.06 483.624062 
L 401.06 483.624062 
" style="fill: none; stroke: #dc0000; stroke-width: 1.5; stroke-linecap: square"/>
    </g>
    <g id="text_23">
     <!-- XGB (AUC=0.915) -->
     <g transform="translate(409.06 487.124062) scale(0.1 -0.1)">
      <defs>
       <path id="DejaVuSans-Bold-58" d="M 3188 2381 
L 4806 0 
L 3553 0 
L 2463 1594 
L 1381 0 
L 122 0 
L 1741 2381 
L 184 4666 
L 1441 4666 
L 2463 3163 
L 3481 4666 
L 4744 4666 
L 3188 2381 
z
" transform="scale(0.015625)"/>
      </defs>
      <use xlink:href="#DejaVuSans-Bold-58"/>
      <use xlink:href="#DejaVuSans-Bold-47" x="77.099609"/>
      <use xlink:href="#DejaVuSans-Bold-42" x="159.179688"/>
      <use xlink:href="#DejaVuSans-Bold-20" x="235.400391"/>
      <use xlink:href="#DejaVuSans-Bold-28" x="270.214844"/>
      <use xlink:href="#DejaVuSans-Bold-41" x="315.917969"/>
      <use xlink:href="#DejaVuSans-Bold-55" x="390.185547"/>
      <use xlink:href="#DejaVuSans-Bold-43" x="471.386719"/>
      <use xlink:href="#DejaVuSans-Bold-3d" x="544.775391"/>
      <use xlink:href="#DejaVuSans-Bold-30" x="628.564453"/>
      <use xlink:href="#DejaVuSans-Bold-2e" x="698.144531"/>
      <use xlink:href="#DejaVuSans-Bold-39" x="736.132812"/>
      <use xlink:href="#DejaVuSans-Bold-31" x="805.712891"/>
      <use xlink:href="#DejaVuSans-Bold-35" x="875.292969"/>
      <use xlink:href="#DejaVuSans-Bold-29" x="944.873047"/>
     </g>
    </g>
    <g id="line2d_32">
     <path d="M 381.06 498.302188 
L 391.06 498.302188 
L 401.06 498.302188 
" style="fill: none; stroke: #7e6148; stroke-width: 1.5; stroke-linecap: square"/>
    </g>
    <g id="text_24">
     <!-- MLP (AUC=1.000) -->
     <g transform="translate(409.06 501.802188) scale(0.1 -0.1)">
      <defs>
       <path id="DejaVuSans-Bold-4d" d="M 588 4666 
L 2119 4666 
L 3181 2169 
L 4250 4666 
L 5778 4666 
L 5778 0 
L 4641 0 
L 4641 3413 
L 3566 897 
L 2803 897 
L 1728 3413 
L 1728 0 
L 588 0 
L 588 4666 
z
" transform="scale(0.015625)"/>
       <path id="DejaVuSans-Bold-50" d="M 588 4666 
L 2584 4666 
Q 3475 4666 3951 4270 
Q 4428 3875 4428 3144 
Q 4428 2409 3951 2014 
Q 3475 1619 2584 1619 
L 1791 1619 
L 1791 0 
L 588 0 
L 588 4666 
z
M 1791 3794 
L 1791 2491 
L 2456 2491 
Q 2806 2491 2997 2661 
Q 3188 2831 3188 3144 
Q 3188 3456 2997 3625 
Q 2806 3794 2456 3794 
L 1791 3794 
z
" transform="scale(0.015625)"/>
      </defs>
      <use xlink:href="#DejaVuSans-Bold-4d"/>
      <use xlink:href="#DejaVuSans-Bold-4c" x="99.511719"/>
      <use xlink:href="#DejaVuSans-Bold-50" x="163.232422"/>
      <use xlink:href="#DejaVuSans-Bold-20" x="236.523438"/>
      <use xlink:href="#DejaVuSans-Bold-28" x="271.337891"/>
      <use xlink:href="#DejaVuSans-Bold-41" x="317.041016"/>
      <use xlink:href="#DejaVuSans-Bold-55" x="391.308594"/>
      <use xlink:href="#DejaVuSans-Bold-43" x="472.509766"/>
      <use xlink:href="#DejaVuSans-Bold-3d" x="545.898438"/>
      <use xlink:href="#DejaVuSans-Bold-31" x="629.6875"/>
      <use xlink:href="#DejaVuSans-Bold-2e" x="699.267578"/>
      <use xlink:href="#DejaVuSans-Bold-30" x="737.255859"/>
      <use xlink:href="#DejaVuSans-Bold-30" x="806.835938"/>
      <use xlink:href="#DejaVuSans-Bold-30" x="876.416016"/>
      <use xlink:href="#DejaVuSans-Bold-29" x="945.996094"/>
     </g>
    </g>
    <g id="line2d_33">
     <path d="M 381.06 512.980312 
L 391.06 512.980312 
L 401.06 512.980312 
" style="fill: none; stroke: #b09c85; stroke-width: 1.5; stroke-linecap: square"/>
    </g>
    <g id="text_25">
     <!-- CNN (AUC=1.000) -->
     <g transform="translate(409.06 516.480312) scale(0.1 -0.1)">
      <use xlink:href="#DejaVuSans-Bold-43"/>
      <use xlink:href="#DejaVuSans-Bold-4e" x="73.388672"/>
      <use xlink:href="#DejaVuSans-Bold-4e" x="157.080078"/>
      <use xlink:href="#DejaVuSans-Bold-20" x="240.771484"/>
      <use xlink:href="#DejaVuSans-Bold-28" x="275.585938"/>
      <use xlink:href="#DejaVuSans-Bold-41" x="321.289062"/>
      <use xlink:href="#DejaVuSans-Bold-55" x="395.556641"/>
      <use xlink:href="#DejaVuSans-Bold-43" x="476.757812"/>
      <use xlink:href="#DejaVuSans-Bold-3d" x="550.146484"/>
      <use xlink:href="#DejaVuSans-Bold-31" x="633.935547"/>
      <use xlink:href="#DejaVuSans-Bold-2e" x="703.515625"/>
      <use xlink:href="#DejaVuSans-Bold-30" x="741.503906"/>
      <use xlink:href="#DejaVuSans-Bold-30" x="811.083984"/>
      <use xlink:href="#DejaVuSans-Bold-30" x="880.664062"/>
      <use xlink:href="#DejaVuSans-Bold-29" x="950.244141"/>
     </g>
    </g>
   </g>
  </g>
 </g>
 <defs>
  <clipPath id="pe3bd643476">
   <rect x="59.495" y="28.32" width="499.24" height="499.24"/>
  </clipPath>
 </defs>
</svg>
