<?xml version="1.0" encoding="utf-8" standalone="no"?>
<!DOCTYPE svg PUBLIC "-//W3C//DTD SVG 1.1//EN"
  "http://www.w3.org/Graphics/SVG/1.1/DTD/svg11.dtd">
<svg xmlns:xlink="http://www.w3.org/1999/xlink" width="576pt" height="576pt" viewBox="0 0 576 576" xmlns="http://www.w3.org/2000/svg" version="1.1">
 <metadata>
  <rdf:RDF xmlns:dc="http://purl.org/dc/elements/1.1/" xmlns:cc="http://creativecommons.org/ns#" xmlns:rdf="http://www.w3.org/1999/02/22-rdf-syntax-ns#">
   <cc:Work>
    <dc:type rdf:resource="http://purl.org/dc/dcmitype/StillImage"/>
    <dc:date>2026-03-28T16:06:57.142554</dc:date>
    <dc:format>image/svg+xml</dc:format>
    <dc:creator>
     <cc:Agent>
      <dc:title>Matplotlib v3.9.4, https://matplotlib.org/</dc:title>
     </cc:Agent>
    </dc:creator>
   </cc:Work>
  </rdf:RDF>
 </metadata>
 <defs>
  <style type="text/css">*{stroke-linejoin: round; stroke-linecap: butt}</style>
 </defs>
 <g id="figure_1">
  <g id="patch_1">
   <path d="M 0 576 
L 576 576 
L 576 0 
L 0 0 
z
" style="fill: #ffffff"/>
  </g>
  <g id="axes_1">
   <g id="patch_2">
    <path d="M 63.68 529.72 
L 554.64 529.72 
L 554.64 38.76 
L 63.68 38.76 
z
" style="fill: #ffffff"/>
   </g>
   <g id="matplotlib.axis_1">
    <g id="xtick_1">
     <g id="line2d_1">
      <defs>
       <path id="m90a5114fe7" d="M 0 0 
L 0 3.5 
" style="stroke: #000000; stroke-width: 0.8"/>
      </defs>
      <g>
       <use xlink:href="#m90a5114fe7" x="73.121538" y="529.72" style="stroke: #000000; stroke-width: 0.8"/>
      </g>
     </g>
     <g id="text_1">
      <!-- 0.0 -->
      <g transform="translate(63.579663 545.838125) scale(0.12 -0.12)">
       <defs>
        <path id="DejaVuSans-30" d="M 2034 4250 
Q 1547 4250 1301 3770 
Q 1056 3291 1056 2328 
Q 1056 1369 1301 889 
Q 1547 409 2034 409 
Q 2525 409 2770 889 
Q 3016 1369 3016 2328 
Q 3016 3291 2770 3770 
Q 2525 4250 2034 4250 
z
M 2034 4750 
Q 2819 4750 3233 4129 
Q 3647 3509 3647 2328 
Q 3647 1150 3233 529 
Q 2819 -91 2034 -91 
Q 1250 -91 836 529 
Q 422 1150 422 2328 
Q 422 3509 836 4129 
Q 1250 4750 2034 4750 
z
" transform="scale(0.015625)"/>
        <path id="DejaVuSans-2e" d="M 684 794 
L 1344 794 
L 1344 0 
L 684 0 
L 684 794 
z
" transform="scale(0.015625)"/>
       </defs>
       <use xlink:href="#DejaVuSans-30"/>
       <use xlink:href="#DejaVuSans-2e" x="63.623047"/>
       <use xlink:href="#DejaVuSans-30" x="95.410156"/>
      </g>
     </g>
    </g>
    <g id="xtick_2">
     <g id="line2d_2">
      <g>
       <use xlink:href="#m90a5114fe7" x="167.536923" y="529.72" style="stroke: #000000; stroke-width: 0.8"/>
      </g>
     </g>
     <g id="text_2">
      <!-- 0.2 -->
      <g transform="translate(157.995048 545.838125) scale(0.12 -0.12)">
       <defs>
        <path id="DejaVuSans-32" d="M 1228 531 
L 3431 531 
L 3431 0 
L 469 0 
L 469 531 
Q 828 903 1448 1529 
Q 2069 2156 2228 2338 
Q 2531 2678 2651 2914 
Q 2772 3150 2772 3378 
Q 2772 3750 2511 3984 
Q 2250 4219 1831 4219 
Q 1534 4219 1204 4116 
Q 875 4013 500 3803 
L 500 4441 
Q 881 4594 1212 4672 
Q 1544 4750 1819 4750 
Q 2544 4750 2975 4387 
Q 3406 4025 3406 3419 
Q 3406 3131 3298 2873 
Q 3191 2616 2906 2266 
Q 2828 2175 2409 1742 
Q 1991 1309 1228 531 
z
" transform="scale(0.015625)"/>
       </defs>
       <use xlink:href="#DejaVuSans-30"/>
       <use xlink:href="#DejaVuSans-2e" x="63.623047"/>
       <use xlink:href="#DejaVuSans-32" x="95.410156"/>
      </g>
     </g>
    </g>
    <g id="xtick_3">
     <g id="line2d_3">
      <g>
       <use xlink:href="#m90a5114fe7" x="261.952308" y="529.72" style="stroke: #000000; stroke-width: 0.8"/>
      </g>
     </g>
     <g id="text_3">
      <!-- 0.4 -->
      <g transform="translate(252.410433 545.838125) scale(0.12 -0.12)">
       <defs>
        <path id="DejaVuSans-34" d="M 2419 4116 
L 825 1625 
L 2419 1625 
L 2419 4116 
z
M 2253 4666 
L 3047 4666 
L 3047 1625 
L 3713 1625 
L 3713 1100 
L 3047 1100 
L 3047 0 
L 2419 0 
L 2419 1100 
L 313 1100 
L 313 1709 
L 2253 4666 
z
" transform="scale(0.015625)"/>
       </defs>
       <use xlink:href="#DejaVuSans-30"/>
       <use xlink:href="#DejaVuSans-2e" x="63.623047"/>
       <use xlink:href="#DejaVuSans-34" x="95.410156"/>
      </g>
     </g>
    </g>
    <g id="xtick_4">
     <g id="line2d_4">
      <g>
       <use xlink:href="#m90a5114fe7" x="356.367692" y="529.72" style="stroke: #000000; stroke-width: 0.8"/>
      </g>
     </g>
     <g id="text_4">
      <!-- 0.6 -->
      <g transform="translate(346.825817 545.838125) scale(0.12 -0.12)">
       <defs>
        <path id="DejaVuSans-36" d="M 2113 2584 
Q 1688 2584 1439 2293 
Q 1191 2003 1191 1497 
Q 1191 994 1439 701 
Q 1688 409 2113 409 
Q 2538 409 2786 701 
Q 3034 994 3034 1497 
Q 3034 2003 2786 2293 
Q 2538 2584 2113 2584 
z
M 3366 4563 
L 3366 3988 
Q 3128 4100 2886 4159 
Q 2644 4219 2406 4219 
Q 1781 4219 1451 3797 
Q 1122 3375 1075 2522 
Q 1259 2794 1537 2939 
Q 1816 3084 2150 3084 
Q 2853 3084 3261 2657 
Q 3669 2231 3669 1497 
Q 3669 778 3244 343 
Q 2819 -91 2113 -91 
Q 1303 -91 875 529 
Q 447 1150 447 2328 
Q 447 3434 972 4092 
Q 1497 4750 2381 4750 
Q 2619 4750 2861 4703 
Q 3103 4656 3366 4563 
z
" transform="scale(0.015625)"/>
       </defs>
       <use xlink:href="#DejaVuSans-30"/>
       <use xlink:href="#DejaVuSans-2e" x="63.623047"/>
       <use xlink:href="#DejaVuSans-36" x="95.410156"/>
      </g>
     </g>
    </g>
    <g id="xtick_5">
     <g id="line2d_5">
      <g>
       <use xlink:href="#m90a5114fe7" x="450.783077" y="529.72" style="stroke: #000000; stroke-width: 0.8"/>
      </g>
     </g>
     <g id="text_5">
      <!-- 0.8 -->
      <g transform="translate(441.241202 545.838125) scale(0.12 -0.12)">
       <defs>
        <path id="DejaVuSans-38" d="M 2034 2216 
Q 1584 2216 1326 1975 
Q 1069 1734 1069 1313 
Q 1069 891 1326 650 
Q 1584 409 2034 409 
Q 2484 409 2743 651 
Q 3003 894 3003 1313 
Q 3003 1734 2745 1975 
Q 2488 2216 2034 2216 
z
M 1403 2484 
Q 997 2584 770 2862 
Q 544 3141 544 3541 
Q 544 4100 942 4425 
Q 1341 4750 2034 4750 
Q 2731 4750 3128 4425 
Q 3525 4100 3525 3541 
Q 3525 3141 3298 2862 
Q 3072 2584 2669 2484 
Q 3125 2378 3379 2068 
Q 3634 1759 3634 1313 
Q 3634 634 3220 271 
Q 2806 -91 2034 -91 
Q 1263 -91 848 271 
Q 434 634 434 1313 
Q 434 1759 690 2068 
Q 947 2378 1403 2484 
z
M 1172 3481 
Q 1172 3119 1398 2916 
Q 1625 2713 2034 2713 
Q 2441 2713 2670 2916 
Q 2900 3119 2900 3481 
Q 2900 3844 2670 4047 
Q 2441 4250 2034 4250 
Q 1625 4250 1398 4047 
Q 1172 3844 1172 3481 
z
" transform="scale(0.015625)"/>
       </defs>
       <use xlink:href="#DejaVuSans-30"/>
       <use xlink:href="#DejaVuSans-2e" x="63.623047"/>
       <use xlink:href="#DejaVuSans-38" x="95.410156"/>
      </g>
     </g>
    </g>
    <g id="xtick_6">
     <g id="line2d_6">
      <g>
       <use xlink:href="#m90a5114fe7" x="545.198462" y="529.72" style="stroke: #000000; stroke-width: 0.8"/>
      </g>
     </g>
     <g id="text_6">
      <!-- 1.0 -->
      <g transform="translate(535.656587 545.838125) scale(0.12 -0.12)">
       <defs>
        <path id="DejaVuSans-31" d="M 794 531 
L 1825 531 
L 1825 4091 
L 703 3866 
L 703 4441 
L 1819 4666 
L 2450 4666 
L 2450 531 
L 3481 531 
L 3481 0 
L 794 0 
L 794 531 
z
" transform="scale(0.015625)"/>
       </defs>
       <use xlink:href="#DejaVuSans-31"/>
       <use xlink:href="#DejaVuSans-2e" x="63.623047"/>
       <use xlink:href="#DejaVuSans-30" x="95.410156"/>
      </g>
     </g>
    </g>
    <g id="text_7">
     <!-- 1 - Specificity (False Positive Rate) -->
     <g transform="translate(171.371562 562.971563) scale(0.14 -0.14)">
      <defs>
       <path id="DejaVuSans-Bold-31" d="M 750 831 
L 1813 831 
L 1813 3847 
L 722 3622 
L 722 4441 
L 1806 4666 
L 2950 4666 
L 2950 831 
L 4013 831 
L 4013 0 
L 750 0 
L 750 831 
z
" transform="scale(0.015625)"/>
       <path id="DejaVuSans-Bold-20" transform="scale(0.015625)"/>
       <path id="DejaVuSans-Bold-2d" d="M 347 2297 
L 2309 2297 
L 2309 1388 
L 347 1388 
L 347 2297 
z
" transform="scale(0.015625)"/>
       <path id="DejaVuSans-Bold-53" d="M 3834 4519 
L 3834 3531 
Q 3450 3703 3084 3790 
Q 2719 3878 2394 3878 
Q 1963 3878 1756 3759 
Q 1550 3641 1550 3391 
Q 1550 3203 1689 3098 
Q 1828 2994 2194 2919 
L 2706 2816 
Q 3484 2659 3812 2340 
Q 4141 2022 4141 1434 
Q 4141 663 3683 286 
Q 3225 -91 2284 -91 
Q 1841 -91 1394 -6 
Q 947 78 500 244 
L 500 1259 
Q 947 1022 1364 901 
Q 1781 781 2169 781 
Q 2563 781 2772 912 
Q 2981 1044 2981 1288 
Q 2981 1506 2839 1625 
Q 2697 1744 2272 1838 
L 1806 1941 
Q 1106 2091 782 2419 
Q 459 2747 459 3303 
Q 459 4000 909 4375 
Q 1359 4750 2203 4750 
Q 2588 4750 2994 4692 
Q 3400 4634 3834 4519 
z
" transform="scale(0.015625)"/>
       <path id="DejaVuSans-Bold-70" d="M 1656 506 
L 1656 -1331 
L 538 -1331 
L 538 3500 
L 1656 3500 
L 1656 2988 
Q 1888 3294 2169 3439 
Q 2450 3584 2816 3584 
Q 3463 3584 3878 3070 
Q 4294 2556 4294 1747 
Q 4294 938 3878 423 
Q 3463 -91 2816 -91 
Q 2450 -91 2169 54 
Q 1888 200 1656 506 
z
M 2400 2772 
Q 2041 2772 1848 2508 
Q 1656 2244 1656 1747 
Q 1656 1250 1848 986 
Q 2041 722 2400 722 
Q 2759 722 2948 984 
Q 3138 1247 3138 1747 
Q 3138 2247 2948 2509 
Q 2759 2772 2400 2772 
z
" transform="scale(0.015625)"/>
       <path id="DejaVuSans-Bold-65" d="M 4031 1759 
L 4031 1441 
L 1416 1441 
Q 1456 1047 1700 850 
Q 1944 653 2381 653 
Q 2734 653 3104 758 
Q 3475 863 3866 1075 
L 3866 213 
Q 3469 63 3072 -14 
Q 2675 -91 2278 -91 
Q 1328 -91 801 392 
Q 275 875 275 1747 
Q 275 2603 792 3093 
Q 1309 3584 2216 3584 
Q 3041 3584 3536 3087 
Q 4031 2591 4031 1759 
z
M 2881 2131 
Q 2881 2450 2695 2645 
Q 2509 2841 2209 2841 
Q 1884 2841 1681 2658 
Q 1478 2475 1428 2131 
L 2881 2131 
z
" transform="scale(0.015625)"/>
       <path id="DejaVuSans-Bold-63" d="M 3366 3391 
L 3366 2478 
Q 3138 2634 2908 2709 
Q 2678 2784 2431 2784 
Q 1963 2784 1702 2511 
Q 1441 2238 1441 1747 
Q 1441 1256 1702 982 
Q 1963 709 2431 709 
Q 2694 709 2930 787 
Q 3166 866 3366 1019 
L 3366 103 
Q 3103 6 2833 -42 
Q 2563 -91 2291 -91 
Q 1344 -91 809 395 
Q 275 881 275 1747 
Q 275 2613 809 3098 
Q 1344 3584 2291 3584 
Q 2566 3584 2833 3536 
Q 3100 3488 3366 3391 
z
" transform="scale(0.015625)"/>
       <path id="DejaVuSans-Bold-69" d="M 538 3500 
L 1656 3500 
L 1656 0 
L 538 0 
L 538 3500 
z
M 538 4863 
L 1656 4863 
L 1656 3950 
L 538 3950 
L 538 4863 
z
" transform="scale(0.015625)"/>
       <path id="DejaVuSans-Bold-66" d="M 2841 4863 
L 2841 4128 
L 2222 4128 
Q 1984 4128 1890 4042 
Q 1797 3956 1797 3744 
L 1797 3500 
L 2753 3500 
L 2753 2700 
L 1797 2700 
L 1797 0 
L 678 0 
L 678 2700 
L 122 2700 
L 122 3500 
L 678 3500 
L 678 3744 
Q 678 4316 997 4589 
Q 1316 4863 1984 4863 
L 2841 4863 
z
" transform="scale(0.015625)"/>
       <path id="DejaVuSans-Bold-74" d="M 1759 4494 
L 1759 3500 
L 2913 3500 
L 2913 2700 
L 1759 2700 
L 1759 1216 
Q 1759 972 1856 886 
Q 1953 800 2241 800 
L 2816 800 
L 2816 0 
L 1856 0 
Q 1194 0 917 276 
Q 641 553 641 1216 
L 641 2700 
L 84 2700 
L 84 3500 
L 641 3500 
L 641 4494 
L 1759 4494 
z
" transform="scale(0.015625)"/>
       <path id="DejaVuSans-Bold-79" d="M 78 3500 
L 1197 3500 
L 2138 1125 
L 2938 3500 
L 4056 3500 
L 2584 -331 
Q 2363 -916 2067 -1148 
Q 1772 -1381 1288 -1381 
L 641 -1381 
L 641 -647 
L 991 -647 
Q 1275 -647 1404 -556 
Q 1534 -466 1606 -231 
L 1638 -134 
L 78 3500 
z
" transform="scale(0.015625)"/>
       <path id="DejaVuSans-Bold-28" d="M 2413 -844 
L 1484 -844 
Q 1006 -72 778 623 
Q 550 1319 550 2003 
Q 550 2688 779 3389 
Q 1009 4091 1484 4856 
L 2413 4856 
Q 2013 4116 1813 3408 
Q 1613 2700 1613 2009 
Q 1613 1319 1811 609 
Q 2009 -100 2413 -844 
z
" transform="scale(0.015625)"/>
       <path id="DejaVuSans-Bold-46" d="M 588 4666 
L 3834 4666 
L 3834 3756 
L 1791 3756 
L 1791 2888 
L 3713 2888 
L 3713 1978 
L 1791 1978 
L 1791 0 
L 588 0 
L 588 4666 
z
" transform="scale(0.015625)"/>
       <path id="DejaVuSans-Bold-61" d="M 2106 1575 
Q 1756 1575 1579 1456 
Q 1403 1338 1403 1106 
Q 1403 894 1545 773 
Q 1688 653 1941 653 
Q 2256 653 2472 879 
Q 2688 1106 2688 1447 
L 2688 1575 
L 2106 1575 
z
M 3816 1997 
L 3816 0 
L 2688 0 
L 2688 519 
Q 2463 200 2181 54 
Q 1900 -91 1497 -91 
Q 953 -91 614 226 
Q 275 544 275 1050 
Q 275 1666 698 1953 
Q 1122 2241 2028 2241 
L 2688 2241 
L 2688 2328 
Q 2688 2594 2478 2717 
Q 2269 2841 1825 2841 
Q 1466 2841 1156 2769 
Q 847 2697 581 2553 
L 581 3406 
Q 941 3494 1303 3539 
Q 1666 3584 2028 3584 
Q 2975 3584 3395 3211 
Q 3816 2838 3816 1997 
z
" transform="scale(0.015625)"/>
       <path id="DejaVuSans-Bold-6c" d="M 538 4863 
L 1656 4863 
L 1656 0 
L 538 0 
L 538 4863 
z
" transform="scale(0.015625)"/>
       <path id="DejaVuSans-Bold-73" d="M 3272 3391 
L 3272 2541 
Q 2913 2691 2578 2766 
Q 2244 2841 1947 2841 
Q 1628 2841 1473 2761 
Q 1319 2681 1319 2516 
Q 1319 2381 1436 2309 
Q 1553 2238 1856 2203 
L 2053 2175 
Q 2913 2066 3209 1816 
Q 3506 1566 3506 1031 
Q 3506 472 3093 190 
Q 2681 -91 1863 -91 
Q 1516 -91 1145 -36 
Q 775 19 384 128 
L 384 978 
Q 719 816 1070 734 
Q 1422 653 1784 653 
Q 2113 653 2278 743 
Q 2444 834 2444 1013 
Q 2444 1163 2330 1236 
Q 2216 1309 1875 1350 
L 1678 1375 
Q 931 1469 631 1722 
Q 331 1975 331 2491 
Q 331 3047 712 3315 
Q 1094 3584 1881 3584 
Q 2191 3584 2531 3537 
Q 2872 3491 3272 3391 
z
" transform="scale(0.015625)"/>
       <path id="DejaVuSans-Bold-50" d="M 588 4666 
L 2584 4666 
Q 3475 4666 3951 4270 
Q 4428 3875 4428 3144 
Q 4428 2409 3951 2014 
Q 3475 1619 2584 1619 
L 1791 1619 
L 1791 0 
L 588 0 
L 588 4666 
z
M 1791 3794 
L 1791 2491 
L 2456 2491 
Q 2806 2491 2997 2661 
Q 3188 2831 3188 3144 
Q 3188 3456 2997 3625 
Q 2806 3794 2456 3794 
L 1791 3794 
z
" transform="scale(0.015625)"/>
       <path id="DejaVuSans-Bold-6f" d="M 2203 2784 
Q 1831 2784 1636 2517 
Q 1441 2250 1441 1747 
Q 1441 1244 1636 976 
Q 1831 709 2203 709 
Q 2569 709 2762 976 
Q 2956 1244 2956 1747 
Q 2956 2250 2762 2517 
Q 2569 2784 2203 2784 
z
M 2203 3584 
Q 3106 3584 3614 3096 
Q 4122 2609 4122 1747 
Q 4122 884 3614 396 
Q 3106 -91 2203 -91 
Q 1297 -91 786 396 
Q 275 884 275 1747 
Q 275 2609 786 3096 
Q 1297 3584 2203 3584 
z
" transform="scale(0.015625)"/>
       <path id="DejaVuSans-Bold-76" d="M 97 3500 
L 1216 3500 
L 2088 1081 
L 2956 3500 
L 4078 3500 
L 2700 0 
L 1472 0 
L 97 3500 
z
" transform="scale(0.015625)"/>
       <path id="DejaVuSans-Bold-52" d="M 2297 2597 
Q 2675 2597 2839 2737 
Q 3003 2878 3003 3200 
Q 3003 3519 2839 3656 
Q 2675 3794 2297 3794 
L 1791 3794 
L 1791 2597 
L 2297 2597 
z
M 1791 1766 
L 1791 0 
L 588 0 
L 588 4666 
L 2425 4666 
Q 3347 4666 3776 4356 
Q 4206 4047 4206 3378 
Q 4206 2916 3982 2619 
Q 3759 2322 3309 2181 
Q 3556 2125 3751 1926 
Q 3947 1728 4147 1325 
L 4800 0 
L 3519 0 
L 2950 1159 
Q 2778 1509 2601 1637 
Q 2425 1766 2131 1766 
L 1791 1766 
z
" transform="scale(0.015625)"/>
       <path id="DejaVuSans-Bold-29" d="M 513 -844 
Q 913 -100 1113 609 
Q 1313 1319 1313 2009 
Q 1313 2700 1113 3408 
Q 913 4116 513 4856 
L 1441 4856 
Q 1916 4091 2145 3389 
Q 2375 2688 2375 2003 
Q 2375 1319 2147 623 
Q 1919 -72 1441 -844 
L 513 -844 
z
" transform="scale(0.015625)"/>
      </defs>
      <use xlink:href="#DejaVuSans-Bold-31"/>
      <use xlink:href="#DejaVuSans-Bold-20" x="69.580078"/>
      <use xlink:href="#DejaVuSans-Bold-2d" x="104.394531"/>
      <use xlink:href="#DejaVuSans-Bold-20" x="145.898438"/>
      <use xlink:href="#DejaVuSans-Bold-53" x="180.712891"/>
      <use xlink:href="#DejaVuSans-Bold-70" x="252.734375"/>
      <use xlink:href="#DejaVuSans-Bold-65" x="324.316406"/>
      <use xlink:href="#DejaVuSans-Bold-63" x="392.138672"/>
      <use xlink:href="#DejaVuSans-Bold-69" x="451.416016"/>
      <use xlink:href="#DejaVuSans-Bold-66" x="485.693359"/>
      <use xlink:href="#DejaVuSans-Bold-69" x="529.199219"/>
      <use xlink:href="#DejaVuSans-Bold-63" x="563.476562"/>
      <use xlink:href="#DejaVuSans-Bold-69" x="622.753906"/>
      <use xlink:href="#DejaVuSans-Bold-74" x="657.03125"/>
      <use xlink:href="#DejaVuSans-Bold-79" x="704.833984"/>
      <use xlink:href="#DejaVuSans-Bold-20" x="770.019531"/>
      <use xlink:href="#DejaVuSans-Bold-28" x="804.833984"/>
      <use xlink:href="#DejaVuSans-Bold-46" x="850.537109"/>
      <use xlink:href="#DejaVuSans-Bold-61" x="912.972656"/>
      <use xlink:href="#DejaVuSans-Bold-6c" x="980.453125"/>
      <use xlink:href="#DejaVuSans-Bold-73" x="1014.730469"/>
      <use xlink:href="#DejaVuSans-Bold-65" x="1074.251953"/>
      <use xlink:href="#DejaVuSans-Bold-20" x="1142.074219"/>
      <use xlink:href="#DejaVuSans-Bold-50" x="1176.888672"/>
      <use xlink:href="#DejaVuSans-Bold-6f" x="1250.179688"/>
      <use xlink:href="#DejaVuSans-Bold-73" x="1318.880859"/>
      <use xlink:href="#DejaVuSans-Bold-69" x="1378.402344"/>
      <use xlink:href="#DejaVuSans-Bold-74" x="1412.679688"/>
      <use xlink:href="#DejaVuSans-Bold-69" x="1460.482422"/>
      <use xlink:href="#DejaVuSans-Bold-76" x="1494.759766"/>
      <use xlink:href="#DejaVuSans-Bold-65" x="1559.945312"/>
      <use xlink:href="#DejaVuSans-Bold-20" x="1627.767578"/>
      <use xlink:href="#DejaVuSans-Bold-52" x="1662.582031"/>
      <use xlink:href="#DejaVuSans-Bold-61" x="1739.583984"/>
      <use xlink:href="#DejaVuSans-Bold-74" x="1807.064453"/>
      <use xlink:href="#DejaVuSans-Bold-65" x="1854.867188"/>
      <use xlink:href="#DejaVuSans-Bold-29" x="1922.689453"/>
     </g>
    </g>
   </g>
   <g id="matplotlib.axis_2">
    <g id="ytick_1">
     <g id="line2d_7">
      <defs>
       <path id="ma7024ff037" d="M 0 0 
L -3.5 0 
" style="stroke: #000000; stroke-width: 0.8"/>
      </defs>
      <g>
       <use xlink:href="#ma7024ff037" x="63.68" y="520.278462" style="stroke: #000000; stroke-width: 0.8"/>
      </g>
     </g>
     <g id="text_8">
      <!-- 0.0 -->
      <g transform="translate(37.59625 524.837524) scale(0.12 -0.12)">
       <use xlink:href="#DejaVuSans-30"/>
       <use xlink:href="#DejaVuSans-2e" x="63.623047"/>
       <use xlink:href="#DejaVuSans-30" x="95.410156"/>
      </g>
     </g>
    </g>
    <g id="ytick_2">
     <g id="line2d_8">
      <g>
       <use xlink:href="#ma7024ff037" x="63.68" y="425.863077" style="stroke: #000000; stroke-width: 0.8"/>
      </g>
     </g>
     <g id="text_9">
      <!-- 0.2 -->
      <g transform="translate(37.59625 430.422139) scale(0.12 -0.12)">
       <use xlink:href="#DejaVuSans-30"/>
       <use xlink:href="#DejaVuSans-2e" x="63.623047"/>
       <use xlink:href="#DejaVuSans-32" x="95.410156"/>
      </g>
     </g>
    </g>
    <g id="ytick_3">
     <g id="line2d_9">
      <g>
       <use xlink:href="#ma7024ff037" x="63.68" y="331.447692" style="stroke: #000000; stroke-width: 0.8"/>
      </g>
     </g>
     <g id="text_10">
      <!-- 0.4 -->
      <g transform="translate(37.59625 336.006755) scale(0.12 -0.12)">
       <use xlink:href="#DejaVuSans-30"/>
       <use xlink:href="#DejaVuSans-2e" x="63.623047"/>
       <use xlink:href="#DejaVuSans-34" x="95.410156"/>
      </g>
     </g>
    </g>
    <g id="ytick_4">
     <g id="line2d_10">
      <g>
       <use xlink:href="#ma7024ff037" x="63.68" y="237.032308" style="stroke: #000000; stroke-width: 0.8"/>
      </g>
     </g>
     <g id="text_11">
      <!-- 0.6 -->
      <g transform="translate(37.59625 241.59137) scale(0.12 -0.12)">
       <use xlink:href="#DejaVuSans-30"/>
       <use xlink:href="#DejaVuSans-2e" x="63.623047"/>
       <use xlink:href="#DejaVuSans-36" x="95.410156"/>
      </g>
     </g>
    </g>
    <g id="ytick_5">
     <g id="line2d_11">
      <g>
       <use xlink:href="#ma7024ff037" x="63.68" y="142.616923" style="stroke: #000000; stroke-width: 0.8"/>
      </g>
     </g>
     <g id="text_12">
      <!-- 0.8 -->
      <g transform="translate(37.59625 147.175986) scale(0.12 -0.12)">
       <use xlink:href="#DejaVuSans-30"/>
       <use xlink:href="#DejaVuSans-2e" x="63.623047"/>
       <use xlink:href="#DejaVuSans-38" x="95.410156"/>
      </g>
     </g>
    </g>
    <g id="ytick_6">
     <g id="line2d_12">
      <g>
       <use xlink:href="#ma7024ff037" x="63.68" y="48.201538" style="stroke: #000000; stroke-width: 0.8"/>
      </g>
     </g>
     <g id="text_13">
      <!-- 1.0 -->
      <g transform="translate(37.59625 52.760601) scale(0.12 -0.12)">
       <use xlink:href="#DejaVuSans-31"/>
       <use xlink:href="#DejaVuSans-2e" x="63.623047"/>
       <use xlink:href="#DejaVuSans-30" x="95.410156"/>
      </g>
     </g>
    </g>
    <g id="text_14">
     <!-- Sensitivity (True Positive Rate) -->
     <g transform="translate(30.575312 406.8625) rotate(-90) scale(0.14 -0.14)">
      <defs>
       <path id="DejaVuSans-Bold-6e" d="M 4056 2131 
L 4056 0 
L 2931 0 
L 2931 347 
L 2931 1631 
Q 2931 2084 2911 2256 
Q 2891 2428 2841 2509 
Q 2775 2619 2662 2680 
Q 2550 2741 2406 2741 
Q 2056 2741 1856 2470 
Q 1656 2200 1656 1722 
L 1656 0 
L 538 0 
L 538 3500 
L 1656 3500 
L 1656 2988 
Q 1909 3294 2193 3439 
Q 2478 3584 2822 3584 
Q 3428 3584 3742 3212 
Q 4056 2841 4056 2131 
z
" transform="scale(0.015625)"/>
       <path id="DejaVuSans-Bold-54" d="M 31 4666 
L 4331 4666 
L 4331 3756 
L 2784 3756 
L 2784 0 
L 1581 0 
L 1581 3756 
L 31 3756 
L 31 4666 
z
" transform="scale(0.015625)"/>
       <path id="DejaVuSans-Bold-72" d="M 3138 2547 
Q 2991 2616 2845 2648 
Q 2700 2681 2553 2681 
Q 2122 2681 1889 2404 
Q 1656 2128 1656 1613 
L 1656 0 
L 538 0 
L 538 3500 
L 1656 3500 
L 1656 2925 
Q 1872 3269 2151 3426 
Q 2431 3584 2822 3584 
Q 2878 3584 2943 3579 
Q 3009 3575 3134 3559 
L 3138 2547 
z
" transform="scale(0.015625)"/>
       <path id="DejaVuSans-Bold-75" d="M 500 1363 
L 500 3500 
L 1625 3500 
L 1625 3150 
Q 1625 2866 1622 2436 
Q 1619 2006 1619 1863 
Q 1619 1441 1641 1255 
Q 1663 1069 1716 984 
Q 1784 875 1895 815 
Q 2006 756 2150 756 
Q 2500 756 2700 1025 
Q 2900 1294 2900 1772 
L 2900 3500 
L 4019 3500 
L 4019 0 
L 2900 0 
L 2900 506 
Q 2647 200 2364 54 
Q 2081 -91 1741 -91 
Q 1134 -91 817 281 
Q 500 653 500 1363 
z
" transform="scale(0.015625)"/>
      </defs>
      <use xlink:href="#DejaVuSans-Bold-53"/>
      <use xlink:href="#DejaVuSans-Bold-65" x="72.021484"/>
      <use xlink:href="#DejaVuSans-Bold-6e" x="139.84375"/>
      <use xlink:href="#DejaVuSans-Bold-73" x="211.035156"/>
      <use xlink:href="#DejaVuSans-Bold-69" x="270.556641"/>
      <use xlink:href="#DejaVuSans-Bold-74" x="304.833984"/>
      <use xlink:href="#DejaVuSans-Bold-69" x="352.636719"/>
      <use xlink:href="#DejaVuSans-Bold-76" x="386.914062"/>
      <use xlink:href="#DejaVuSans-Bold-69" x="452.099609"/>
      <use xlink:href="#DejaVuSans-Bold-74" x="486.376953"/>
      <use xlink:href="#DejaVuSans-Bold-79" x="534.179688"/>
      <use xlink:href="#DejaVuSans-Bold-20" x="599.365234"/>
      <use xlink:href="#DejaVuSans-Bold-28" x="634.179688"/>
      <use xlink:href="#DejaVuSans-Bold-54" x="679.882812"/>
      <use xlink:href="#DejaVuSans-Bold-72" x="737.095703"/>
      <use xlink:href="#DejaVuSans-Bold-75" x="786.412109"/>
      <use xlink:href="#DejaVuSans-Bold-65" x="857.603516"/>
      <use xlink:href="#DejaVuSans-Bold-20" x="925.425781"/>
      <use xlink:href="#DejaVuSans-Bold-50" x="960.240234"/>
      <use xlink:href="#DejaVuSans-Bold-6f" x="1033.53125"/>
      <use xlink:href="#DejaVuSans-Bold-73" x="1102.232422"/>
      <use xlink:href="#DejaVuSans-Bold-69" x="1161.753906"/>
      <use xlink:href="#DejaVuSans-Bold-74" x="1196.03125"/>
      <use xlink:href="#DejaVuSans-Bold-69" x="1243.833984"/>
      <use xlink:href="#DejaVuSans-Bold-76" x="1278.111328"/>
      <use xlink:href="#DejaVuSans-Bold-65" x="1343.296875"/>
      <use xlink:href="#DejaVuSans-Bold-20" x="1411.119141"/>
      <use xlink:href="#DejaVuSans-Bold-52" x="1445.933594"/>
      <use xlink:href="#DejaVuSans-Bold-61" x="1522.935547"/>
      <use xlink:href="#DejaVuSans-Bold-74" x="1590.416016"/>
      <use xlink:href="#DejaVuSans-Bold-65" x="1638.21875"/>
      <use xlink:href="#DejaVuSans-Bold-29" x="1706.041016"/>
     </g>
    </g>
   </g>
   <g id="line2d_13">
    <path d="M 73.121538 520.278462 
L 77.889992 501.571324 
L 82.658446 492.184796 
L 87.4269 487.561491 
L 92.195354 486.18423 
L 96.963807 484.684577 
L 101.732261 483.106679 
L 106.500715 481.010697 
L 111.269169 478.043247 
L 116.037622 473.510538 
L 120.806076 467.877842 
L 125.57453 459.472639 
L 130.342984 450.862462 
L 135.111437 441.01812 
L 139.879891 429.25916 
L 144.648345 418.358105 
L 149.416799 406.907448 
L 154.185253 393.68385 
L 158.953706 380.72249 
L 163.72216 368.399841 
L 168.490614 356.784953 
L 173.259068 342.565007 
L 178.027521 328.668903 
L 182.795975 316.788258 
L 187.564429 303.911399 
L 192.332883 292.187837 
L 197.101336 279.217555 
L 201.86979 267.082641 
L 206.638244 256.835445 
L 211.406698 247.479479 
L 216.175152 238.343333 
L 220.943605 230.168854 
L 225.712059 222.605382 
L 230.480513 213.392423 
L 235.248967 207.599564 
L 240.01742 202.01173 
L 244.785874 196.095638 
L 249.554328 190.645819 
L 254.322782 185.490226 
L 259.091235 180.955947 
L 263.859689 175.788186 
L 268.628143 171.366205 
L 273.396597 166.66717 
L 278.165051 161.913206 
L 282.933504 157.225281 
L 287.701958 152.837731 
L 292.470412 148.845985 
L 297.238866 144.24871 
L 302.007319 140.870489 
L 306.775773 135.81723 
L 311.544227 133.083437 
L 316.312681 128.192485 
L 321.081134 125.244936 
L 325.849588 121.927419 
L 330.618042 118.851382 
L 335.386496 116.022869 
L 340.154949 113.874165 
L 344.923403 111.495276 
L 349.691857 109.489777 
L 354.460311 107.295679 
L 359.228765 105.348026 
L 363.997218 103.502126 
L 368.765672 101.516636 
L 373.534126 99.277992 
L 378.30258 97.320768 
L 383.071033 95.474577 
L 387.839487 92.469679 
L 392.607941 90.338049 
L 397.376395 87.660619 
L 402.144848 84.858699 
L 406.913302 81.895408 
L 411.681756 79.009421 
L 416.45021 75.872775 
L 421.218664 73.125359 
L 425.987117 69.920733 
L 430.755571 67.21747 
L 435.524025 64.723218 
L 440.292479 62.061026 
L 445.060932 60.147787 
L 449.829386 57.849408 
L 454.59784 56.363402 
L 459.366294 54.815856 
L 464.134747 53.61218 
L 468.903201 52.353365 
L 473.671655 51.33782 
L 478.440109 50.499548 
L 483.208563 49.736752 
L 487.977016 49.23913 
L 492.74547 48.821813 
L 497.513924 48.580318 
L 502.282378 48.381033 
L 507.050831 48.29505 
L 511.819285 48.237963 
L 516.587739 48.209971 
L 521.356193 48.201538 
L 526.124646 48.201538 
L 530.8931 48.201538 
L 535.661554 48.201538 
L 540.430008 48.201538 
L 545.198462 48.201538 
" clip-path="url(#p663029a16b)" style="fill: none; stroke: #e64b35; stroke-width: 1.5; stroke-linecap: square"/>
   </g>
   <g id="line2d_14">
    <path d="M 73.121538 520.278462 
L 77.889992 502.253276 
L 82.658446 487.778872 
L 87.4269 471.969402 
L 92.195354 462.599188 
L 96.963807 451.457262 
L 101.732261 437.989627 
L 106.500715 426.984119 
L 111.269169 417.476965 
L 116.037622 407.122258 
L 120.806076 398.951122 
L 125.57453 388.745572 
L 130.342984 380.688251 
L 135.111437 372.347371 
L 139.879891 363.732555 
L 144.648345 356.229274 
L 149.416799 348.957788 
L 154.185253 340.409223 
L 158.953706 332.741701 
L 163.72216 325.414059 
L 168.490614 318.202487 
L 173.259068 310.472592 
L 178.027521 302.64956 
L 182.795975 296.135887 
L 187.564429 288.894735 
L 192.332883 282.758428 
L 197.101336 276.316025 
L 201.86979 270.744299 
L 206.638244 266.215884 
L 211.406698 262.023866 
L 216.175152 258.162741 
L 220.943605 254.254155 
L 225.712059 250.283776 
L 230.480513 244.674201 
L 235.248967 241.125771 
L 240.01742 236.72862 
L 244.785874 230.787952 
L 249.554328 225.268323 
L 254.322782 219.08043 
L 259.091235 212.293218 
L 263.859689 204.272001 
L 268.628143 196.270629 
L 273.396597 188.200293 
L 278.165051 179.483493 
L 282.933504 171.081105 
L 287.701958 163.161777 
L 292.470412 155.897654 
L 297.238866 148.190703 
L 302.007319 142.423463 
L 306.775773 134.964809 
L 311.544227 131.673174 
L 316.312681 125.387604 
L 321.081134 121.805565 
L 325.849588 117.76498 
L 330.618042 114.442825 
L 335.386496 111.163112 
L 340.154949 108.562532 
L 344.923403 105.667701 
L 349.691857 102.973229 
L 354.460311 100.493739 
L 359.228765 97.639143 
L 363.997218 94.938798 
L 368.765672 91.864659 
L 373.534126 88.515531 
L 378.30258 85.696007 
L 383.071033 83.091047 
L 387.839487 79.320911 
L 392.607941 76.957812 
L 397.376395 74.453316 
L 402.144848 71.941192 
L 406.913302 69.249484 
L 411.681756 66.751994 
L 416.45021 64.068136 
L 421.218664 61.813636 
L 425.987117 59.438512 
L 430.755571 57.402589 
L 435.524025 55.525804 
L 440.292479 53.64772 
L 445.060932 52.353161 
L 449.829386 51.133437 
L 454.59784 50.349353 
L 459.366294 49.60795 
L 464.134747 49.134387 
L 468.903201 48.750252 
L 473.671655 48.561617 
L 478.440109 48.402702 
L 483.208563 48.29754 
L 487.977016 48.236769 
L 492.74547 48.218755 
L 497.513924 48.215198 
L 502.282378 48.209056 
L 507.050831 48.201538 
L 511.819285 48.201538 
L 516.587739 48.201538 
L 521.356193 48.201538 
L 526.124646 48.201538 
L 530.8931 48.201538 
L 535.661554 48.201538 
L 540.430008 48.201538 
L 545.198462 48.201538 
" clip-path="url(#p663029a16b)" style="fill: none; stroke: #4dbbd5; stroke-width: 1.5; stroke-linecap: square"/>
   </g>
   <g id="line2d_15">
    <path d="M 73.121538 520.278462 
L 77.889992 499.599754 
L 82.658446 496.440094 
L 87.4269 494.863138 
L 92.195354 494.45186 
L 96.963807 494.033943 
L 101.732261 493.554331 
L 106.500715 492.969483 
L 111.269169 492.134563 
L 116.037622 490.585887 
L 120.806076 488.763621 
L 125.57453 485.682133 
L 130.342984 482.309692 
L 135.111437 478.399294 
L 139.879891 473.179195 
L 144.648345 467.91639 
L 149.416799 462.387738 
L 154.185253 455.706646 
L 158.953706 449.048184 
L 163.72216 442.605977 
L 168.490614 436.389655 
L 173.259068 428.349601 
L 178.027521 420.900532 
L 182.795975 414.516833 
L 187.564429 407.78127 
L 192.332883 401.400495 
L 197.101336 394.1252 
L 201.86979 388.116969 
L 206.638244 382.907461 
L 211.406698 377.487135 
L 216.175152 371.843349 
L 220.943605 366.474151 
L 225.712059 360.981103 
L 230.480513 352.799851 
L 235.248967 346.745404 
L 240.01742 340.476587 
L 244.785874 332.092617 
L 249.554328 323.602585 
L 254.322782 314.148322 
L 259.091235 304.683091 
L 263.859689 293.885644 
L 268.628143 283.339159 
L 273.396597 272.750349 
L 278.165051 261.160416 
L 282.933504 248.833371 
L 287.701958 237.764317 
L 292.470412 227.598991 
L 297.238866 215.724093 
L 302.007319 206.972494 
L 306.775773 195.357836 
L 311.544227 190.04447 
L 316.312681 179.780628 
L 321.081134 174.225454 
L 325.849588 167.440368 
L 330.618042 161.762116 
L 335.386496 157.193218 
L 340.154949 152.655466 
L 344.923403 148.396338 
L 349.691857 144.875406 
L 354.460311 141.650522 
L 359.228765 138.276523 
L 363.997218 135.40602 
L 368.765672 132.530584 
L 373.534126 129.30349 
L 378.30258 126.763137 
L 383.071033 124.571735 
L 387.839487 121.46252 
L 392.607941 119.515164 
L 397.376395 117.403725 
L 402.144848 115.323351 
L 406.913302 113.124138 
L 411.681756 110.850577 
L 416.45021 108.85524 
L 421.218664 107.022358 
L 425.987117 105.114084 
L 430.755571 103.238083 
L 435.524025 101.510604 
L 440.292479 99.437413 
L 445.060932 97.533255 
L 449.829386 95.494134 
L 454.59784 93.482399 
L 459.366294 90.72806 
L 464.134747 88.02961 
L 468.903201 84.09123 
L 473.671655 80.299177 
L 478.440109 76.253702 
L 483.208563 71.46212 
L 487.977016 67.283812 
L 492.74547 62.76945 
L 497.513924 59.149984 
L 502.282378 55.650095 
L 507.050831 53.092622 
L 511.819285 51.298497 
L 516.587739 49.887192 
L 521.356193 48.978149 
L 526.124646 48.537398 
L 530.8931 48.348233 
L 535.661554 48.240274 
L 540.430008 48.201538 
L 545.198462 48.201538 
" clip-path="url(#p663029a16b)" style="fill: none; stroke: #00a087; stroke-width: 1.5; stroke-linecap: square"/>
   </g>
   <g id="line2d_16">
    <path d="M 73.121538 520.278462 
L 77.889992 510.474519 
L 82.658446 506.022233 
L 87.4269 497.322948 
L 92.195354 490.972582 
L 96.963807 482.443131 
L 101.732261 471.368698 
L 106.500715 462.159785 
L 111.269169 455.14623 
L 116.037622 448.21771 
L 120.806076 442.634479 
L 125.57453 434.775685 
L 130.342984 427.878641 
L 135.111437 419.213373 
L 139.879891 407.926217 
L 144.648345 396.747156 
L 149.416799 385.648719 
L 154.185253 370.957841 
L 158.953706 358.33777 
L 163.72216 346.525504 
L 168.490614 335.96754 
L 173.259068 323.881402 
L 178.027521 312.807121 
L 182.795975 304.190682 
L 187.564429 296.427915 
L 192.332883 289.509051 
L 197.101336 282.622271 
L 201.86979 277.020466 
L 206.638244 272.422854 
L 211.406698 267.445803 
L 216.175152 262.813056 
L 220.943605 258.578366 
L 225.712059 254.055981 
L 230.480513 248.610268 
L 235.248967 244.453606 
L 240.01742 240.183733 
L 244.785874 235.02518 
L 249.554328 230.11678 
L 254.322782 224.968904 
L 259.091235 219.792341 
L 263.859689 213.718752 
L 268.628143 207.952727 
L 273.396597 202.172898 
L 278.165051 195.944829 
L 282.933504 189.81462 
L 287.701958 184.278968 
L 292.470412 178.951355 
L 297.238866 172.878774 
L 302.007319 168.465139 
L 306.775773 162.087276 
L 311.544227 159.004603 
L 316.312681 152.884065 
L 321.081134 149.263362 
L 325.849588 145.06302 
L 330.618042 140.656625 
L 335.386496 136.550417 
L 340.154949 133.43534 
L 344.923403 129.592318 
L 349.691857 126.367809 
L 354.460311 123.364657 
L 359.228765 120.48946 
L 363.997218 118.053925 
L 368.765672 115.453234 
L 373.534126 112.920373 
L 378.30258 110.832599 
L 383.071033 109.130306 
L 387.839487 106.826509 
L 392.607941 105.336953 
L 397.376395 103.804563 
L 402.144848 101.939574 
L 406.913302 100.057161 
L 411.681756 97.942625 
L 416.45021 95.428909 
L 421.218664 92.961346 
L 425.987117 89.956617 
L 430.755571 86.918893 
L 435.524025 83.867442 
L 440.292479 80.599523 
L 445.060932 77.490441 
L 449.829386 74.047982 
L 454.59784 70.970692 
L 459.366294 67.822187 
L 464.134747 65.45709 
L 468.903201 62.687504 
L 473.671655 60.442013 
L 478.440109 58.83632 
L 483.208563 56.910845 
L 487.977016 55.29676 
L 492.74547 53.764666 
L 497.513924 52.53104 
L 502.282378 51.333188 
L 507.050831 50.436543 
L 511.819285 49.619802 
L 516.587739 48.996063 
L 521.356193 48.575383 
L 526.124646 48.432532 
L 530.8931 48.307352 
L 535.661554 48.222679 
L 540.430008 48.204972 
L 545.198462 48.201538 
" clip-path="url(#p663029a16b)" style="fill: none; stroke: #3c5488; stroke-width: 1.5; stroke-linecap: square"/>
   </g>
   <g id="line2d_17">
    <path d="M 73.121538 520.278462 
L 77.889992 482.478914 
L 82.658446 457.979319 
L 87.4269 440.84342 
L 92.195354 432.878459 
L 96.963807 424.188301 
L 101.732261 414.625866 
L 106.500715 407.417919 
L 111.269169 401.151385 
L 116.037622 394.383992 
L 120.806076 388.180072 
L 125.57453 380.185911 
L 130.342984 372.977398 
L 135.111437 364.276663 
L 139.879891 353.072501 
L 144.648345 341.813521 
L 149.416799 329.965506 
L 154.185253 315.617642 
L 158.953706 301.370295 
L 163.72216 287.604792 
L 168.490614 276.011769 
L 173.259068 263.568838 
L 178.027521 252.062767 
L 182.795975 243.333259 
L 187.564429 235.650698 
L 192.332883 228.932646 
L 197.101336 222.021819 
L 201.86979 216.251267 
L 206.638244 211.52806 
L 211.406698 206.545132 
L 216.175152 201.358362 
L 220.943605 196.326628 
L 225.712059 191.525185 
L 230.480513 184.803224 
L 235.248967 179.843511 
L 240.01742 174.86282 
L 244.785874 168.652202 
L 249.554328 163.457883 
L 254.322782 158.636389 
L 259.091235 153.903255 
L 263.859689 149.133884 
L 268.628143 144.723145 
L 273.396597 140.459478 
L 278.165051 136.551435 
L 282.933504 132.599638 
L 287.701958 128.823429 
L 292.470412 125.378593 
L 297.238866 121.826875 
L 302.007319 118.986471 
L 306.775773 115.260585 
L 311.544227 113.339242 
L 316.312681 109.586724 
L 321.081134 107.433893 
L 325.849588 104.745066 
L 330.618042 102.133808 
L 335.386496 99.841489 
L 340.154949 97.28805 
L 344.923403 94.42732 
L 349.691857 91.51293 
L 354.460311 88.50353 
L 359.228765 85.155502 
L 363.997218 82.053143 
L 368.765672 78.601527 
L 373.534126 75.133735 
L 378.30258 72.242359 
L 383.071033 69.859898 
L 387.839487 66.574443 
L 392.607941 64.706326 
L 397.376395 62.788786 
L 402.144848 61.465474 
L 406.913302 60.124157 
L 411.681756 59.222889 
L 416.45021 58.427626 
L 421.218664 57.93912 
L 425.987117 57.607639 
L 430.755571 57.328012 
L 435.524025 57.170431 
L 440.292479 57.022445 
L 445.060932 56.960927 
L 449.829386 56.835785 
L 454.59784 56.729057 
L 459.366294 56.554186 
L 464.134747 56.290568 
L 468.903201 55.769872 
L 473.671655 55.204948 
L 478.440109 54.50178 
L 483.208563 53.661045 
L 487.977016 52.803408 
L 492.74547 51.804609 
L 497.513924 50.984185 
L 502.282378 50.100326 
L 507.050831 49.477173 
L 511.819285 48.987823 
L 516.587739 48.649268 
L 521.356193 48.365876 
L 526.124646 48.281218 
L 530.8931 48.25287 
L 535.661554 48.208136 
L 540.430008 48.203166 
L 545.198462 48.201538 
" clip-path="url(#p663029a16b)" style="fill: none; stroke: #f39b7f; stroke-width: 1.5; stroke-linecap: square"/>
   </g>
   <g id="line2d_18">
    <path d="M 73.121538 520.278462 
L 77.889992 477.072758 
L 82.658446 457.668206 
L 87.4269 434.231085 
L 92.195354 420.404782 
L 96.963807 403.960633 
L 101.732261 386.101857 
L 106.500715 372.024695 
L 111.269169 360.847827 
L 116.037622 350.155806 
L 120.806076 343.551923 
L 125.57453 336.461388 
L 130.342984 331.517706 
L 135.111437 326.20818 
L 139.879891 320.721969 
L 144.648345 315.603886 
L 149.416799 310.390745 
L 154.185253 303.888881 
L 158.953706 297.484566 
L 163.72216 290.986363 
L 168.490614 284.765599 
L 173.259068 277.357069 
L 178.027521 270.21064 
L 182.795975 263.748621 
L 187.564429 257.068946 
L 192.332883 250.759206 
L 197.101336 244.397672 
L 201.86979 238.673674 
L 206.638244 233.909357 
L 211.406698 228.953221 
L 216.175152 223.849162 
L 220.943605 219.274555 
L 225.712059 214.802387 
L 230.480513 208.87263 
L 235.248967 204.786036 
L 240.01742 200.543953 
L 244.785874 195.083435 
L 249.554328 189.719011 
L 254.322782 184.57298 
L 259.091235 178.963806 
L 263.859689 172.492406 
L 268.628143 166.460336 
L 273.396597 160.802349 
L 278.165051 154.643101 
L 282.933504 148.819828 
L 287.701958 142.872122 
L 292.470412 138.148052 
L 297.238866 133.106644 
L 302.007319 128.911181 
L 306.775773 123.794918 
L 311.544227 121.250402 
L 316.312681 116.764553 
L 321.081134 114.595142 
L 325.849588 111.838075 
L 330.618042 109.445415 
L 335.386496 107.421998 
L 340.154949 105.831606 
L 344.923403 104.141065 
L 349.691857 102.80125 
L 354.460311 101.842506 
L 359.228765 100.669148 
L 363.997218 99.678412 
L 368.765672 98.630801 
L 373.534126 97.458635 
L 378.30258 96.196243 
L 383.071033 94.794995 
L 387.839487 92.811746 
L 392.607941 91.105893 
L 397.376395 89.31597 
L 402.144848 87.330601 
L 406.913302 85.213982 
L 411.681756 82.882625 
L 416.45021 80.342044 
L 421.218664 78.113333 
L 425.987117 75.619228 
L 430.755571 73.346861 
L 435.524025 71.034676 
L 440.292479 68.708347 
L 445.060932 66.554836 
L 449.829386 64.159835 
L 454.59784 62.175358 
L 459.366294 59.788884 
L 464.134747 57.808764 
L 468.903201 55.817761 
L 473.671655 54.149182 
L 478.440109 52.566622 
L 483.208563 51.260183 
L 487.977016 50.249623 
L 492.74547 49.451533 
L 497.513924 48.867812 
L 502.282378 48.596393 
L 507.050831 48.411994 
L 511.819285 48.281624 
L 516.587739 48.225123 
L 521.356193 48.213462 
L 526.124646 48.206841 
L 530.8931 48.203139 
L 535.661554 48.203139 
L 540.430008 48.201538 
L 545.198462 48.201538 
" clip-path="url(#p663029a16b)" style="fill: none; stroke: #8491b4; stroke-width: 1.5; stroke-linecap: square"/>
   </g>
   <g id="line2d_19">
    <path d="M 73.121538 520.278462 
L 77.889992 463.384591 
L 82.658446 438.537605 
L 87.4269 423.35742 
L 92.195354 417.38015 
L 96.963807 411.202308 
L 101.732261 402.570603 
L 106.500715 393.132062 
L 111.269169 381.705003 
L 116.037622 366.708372 
L 120.806076 352.429052 
L 125.57453 333.239642 
L 130.342984 317.762292 
L 135.111437 301.355593 
L 139.879891 285.2037 
L 144.648345 272.371685 
L 149.416799 261.940127 
L 154.185253 251.14066 
L 158.953706 242.792973 
L 163.72216 236.062824 
L 168.490614 230.353889 
L 173.259068 224.53507 
L 178.027521 219.304802 
L 182.795975 214.81075 
L 187.564429 210.616945 
L 192.332883 206.677428 
L 197.101336 202.149305 
L 201.86979 197.968832 
L 206.638244 194.461257 
L 211.406698 190.551477 
L 216.175152 186.819001 
L 220.943605 183.318315 
L 225.712059 180.072444 
L 230.480513 175.53913 
L 235.248967 172.745555 
L 240.01742 169.727288 
L 244.785874 166.320109 
L 249.554328 163.141969 
L 254.322782 159.972182 
L 259.091235 156.818659 
L 263.859689 153.438891 
L 268.628143 150.291999 
L 273.396597 146.553026 
L 278.165051 142.622912 
L 282.933504 138.414148 
L 287.701958 134.513446 
L 292.470412 130.59959 
L 297.238866 126.029401 
L 302.007319 122.24037 
L 306.775773 116.635725 
L 311.544227 113.94018 
L 316.312681 108.27528 
L 321.081134 105.071265 
L 325.849588 100.693756 
L 330.618042 96.847016 
L 335.386496 93.266746 
L 340.154949 90.413604 
L 344.923403 87.289883 
L 349.691857 84.631981 
L 354.460311 82.3712 
L 359.228765 80.395455 
L 363.997218 79.000222 
L 368.765672 77.51021 
L 373.534126 76.18672 
L 378.30258 74.952776 
L 383.071033 74.056783 
L 387.839487 72.86965 
L 392.607941 72.053287 
L 397.376395 71.176386 
L 402.144848 70.313947 
L 406.913302 69.24294 
L 411.681756 67.987279 
L 416.45021 66.721963 
L 421.218664 65.49804 
L 425.987117 64.195971 
L 430.755571 62.892246 
L 435.524025 61.734988 
L 440.292479 60.462088 
L 445.060932 59.455728 
L 449.829386 58.319286 
L 454.59784 57.399448 
L 459.366294 56.359218 
L 464.134747 55.404196 
L 468.903201 54.263774 
L 473.671655 53.307707 
L 478.440109 52.356829 
L 483.208563 51.400162 
L 487.977016 50.567214 
L 492.74547 49.798806 
L 497.513924 49.305957 
L 502.282378 48.85164 
L 507.050831 48.561182 
L 511.819285 48.398665 
L 516.587739 48.279404 
L 521.356193 48.243947 
L 526.124646 48.215005 
L 530.8931 48.209412 
L 535.661554 48.201538 
L 540.430008 48.201538 
L 545.198462 48.201538 
" clip-path="url(#p663029a16b)" style="fill: none; stroke: #91d1c2; stroke-width: 1.5; stroke-linecap: square"/>
   </g>
   <g id="line2d_20">
    <path d="M 73.121538 520.278462 
L 77.889992 435.64389 
L 82.658446 426.935487 
L 87.4269 418.533423 
L 92.195354 414.189536 
L 96.963807 409.543557 
L 101.732261 404.263621 
L 106.500715 399.097381 
L 111.269169 393.794999 
L 116.037622 386.96153 
L 120.806076 380.949851 
L 125.57453 371.991083 
L 130.342984 364.000202 
L 135.111437 355.013504 
L 139.879891 344.858321 
L 144.648345 336.008341 
L 149.416799 326.711562 
L 154.185253 315.474438 
L 158.953706 305.227394 
L 163.72216 295.939665 
L 168.490614 287.275552 
L 173.259068 277.067972 
L 178.027521 266.789445 
L 182.795975 258.269063 
L 187.564429 249.906312 
L 192.332883 242.28981 
L 197.101336 233.582335 
L 201.86979 226.017539 
L 206.638244 219.616374 
L 211.406698 213.250185 
L 216.175152 207.60442 
L 220.943605 202.921961 
L 225.712059 198.430774 
L 230.480513 193.024882 
L 235.248967 189.882289 
L 240.01742 187.002893 
L 244.785874 183.496961 
L 249.554328 180.752543 
L 254.322782 178.27181 
L 259.091235 175.870157 
L 263.859689 173.33567 
L 268.628143 170.901433 
L 273.396597 168.263041 
L 278.165051 165.520963 
L 282.933504 162.712215 
L 287.701958 159.733453 
L 292.470412 156.859869 
L 297.238866 153.211212 
L 302.007319 150.351627 
L 306.775773 146.01882 
L 311.544227 143.447479 
L 316.312681 138.663825 
L 321.081134 135.383613 
L 325.849588 131.221646 
L 330.618042 127.074606 
L 335.386496 123.182102 
L 340.154949 119.329074 
L 344.923403 115.089989 
L 349.691857 111.212906 
L 354.460311 107.396588 
L 359.228765 103.324049 
L 363.997218 99.900908 
L 368.765672 96.510031 
L 373.534126 92.51661 
L 378.30258 89.086781 
L 383.071033 86.024242 
L 387.839487 81.978648 
L 392.607941 79.42741 
L 397.376395 76.861569 
L 402.144848 74.337928 
L 406.913302 71.884276 
L 411.681756 69.470813 
L 416.45021 67.110808 
L 421.218664 65.235477 
L 425.987117 63.274707 
L 430.755571 61.743713 
L 435.524025 60.424055 
L 440.292479 59.295622 
L 445.060932 58.508223 
L 449.829386 57.750285 
L 454.59784 57.13213 
L 459.366294 56.406914 
L 464.134747 55.815257 
L 468.903201 54.994652 
L 473.671655 54.21801 
L 478.440109 53.441067 
L 483.208563 52.555319 
L 487.977016 51.587154 
L 492.74547 50.66451 
L 497.513924 49.993229 
L 502.282378 49.418437 
L 507.050831 48.982006 
L 511.819285 48.666771 
L 516.587739 48.431154 
L 521.356193 48.293688 
L 526.124646 48.230706 
L 530.8931 48.216551 
L 535.661554 48.201538 
L 540.430008 48.201538 
L 545.198462 48.201538 
" clip-path="url(#p663029a16b)" style="fill: none; stroke: #dc0000; stroke-width: 1.5; stroke-linecap: square"/>
   </g>
   <g id="line2d_21">
    <path d="M 73.121538 520.278462 
L 77.889992 368.913658 
L 82.658446 246.693488 
L 87.4269 183.778936 
L 92.195354 163.1497 
L 96.963807 145.873659 
L 101.732261 135.113358 
L 106.500715 128.006281 
L 111.269169 123.953861 
L 116.037622 120.600592 
L 120.806076 118.502076 
L 125.57453 116.35968 
L 130.342984 114.772628 
L 135.111437 113.269892 
L 139.879891 111.658569 
L 144.648345 110.234483 
L 149.416799 108.923601 
L 154.185253 107.407861 
L 158.953706 106.198066 
L 163.72216 105.123092 
L 168.490614 104.054745 
L 173.259068 103.189222 
L 178.027521 102.274917 
L 182.795975 101.720678 
L 187.564429 101.184778 
L 192.332883 100.68063 
L 197.101336 100.178654 
L 201.86979 99.660061 
L 206.638244 99.157153 
L 211.406698 98.605048 
L 216.175152 98.049629 
L 220.943605 97.519632 
L 225.712059 96.846207 
L 230.480513 96.131226 
L 235.248967 95.519326 
L 240.01742 94.96246 
L 244.785874 94.350882 
L 249.554328 93.924334 
L 254.322782 93.490174 
L 259.091235 93.084356 
L 263.859689 92.798189 
L 268.628143 92.564225 
L 273.396597 92.369192 
L 278.165051 92.220355 
L 282.933504 92.079934 
L 287.701958 91.993861 
L 292.470412 91.945517 
L 297.238866 91.917748 
L 302.007319 91.888616 
L 306.775773 91.820521 
L 311.544227 91.766906 
L 316.312681 91.654927 
L 321.081134 91.571672 
L 325.849588 91.407323 
L 330.618042 91.202948 
L 335.386496 90.940453 
L 340.154949 90.682002 
L 344.923403 90.229257 
L 349.691857 89.740873 
L 354.460311 89.127435 
L 359.228765 88.275564 
L 363.997218 87.506701 
L 368.765672 86.62762 
L 373.534126 85.355926 
L 378.30258 84.158162 
L 383.071033 83.022483 
L 387.839487 81.157095 
L 392.607941 79.870713 
L 397.376395 78.364346 
L 402.144848 76.704885 
L 406.913302 75.065148 
L 411.681756 73.62825 
L 416.45021 72.068037 
L 421.218664 70.896924 
L 425.987117 69.468778 
L 430.755571 68.446325 
L 435.524025 67.573144 
L 440.292479 66.772385 
L 445.060932 66.19984 
L 449.829386 65.586615 
L 454.59784 64.995121 
L 459.366294 64.307511 
L 464.134747 63.651513 
L 468.903201 62.762655 
L 473.671655 61.899102 
L 478.440109 61.06465 
L 483.208563 60.074967 
L 487.977016 59.25478 
L 492.74547 58.599453 
L 497.513924 58.028106 
L 502.282378 57.579827 
L 507.050831 57.294384 
L 511.819285 57.123371 
L 516.587739 57.012136 
L 521.356193 56.933084 
L 526.124646 56.894321 
L 530.8931 56.890724 
L 535.661554 56.887523 
L 540.430008 56.887523 
L 545.198462 48.201538 
" clip-path="url(#p663029a16b)" style="fill: none; stroke: #7e6148; stroke-width: 1.5; stroke-linecap: square"/>
   </g>
   <g id="line2d_22">
    <path d="M 73.121538 520.278462 
L 77.889992 450.867738 
L 82.658446 436.947592 
L 87.4269 420.266464 
L 92.195354 409.082508 
L 96.963807 393.553904 
L 101.732261 373.83104 
L 106.500715 355.863763 
L 111.269169 338.976947 
L 116.037622 320.952831 
L 120.806076 305.971052 
L 125.57453 287.36713 
L 130.342984 272.277537 
L 135.111437 256.394355 
L 139.879891 240.243346 
L 144.648345 226.967415 
L 149.416799 215.444533 
L 154.185253 201.993938 
L 158.953706 191.873682 
L 163.72216 183.956034 
L 168.490614 177.492754 
L 173.259068 171.062156 
L 178.027521 165.874939 
L 182.795975 162.243613 
L 187.564429 159.163655 
L 192.332883 156.20887 
L 197.101336 153.794695 
L 201.86979 151.908801 
L 206.638244 150.43666 
L 211.406698 149.141075 
L 216.175152 148.022466 
L 220.943605 147.116537 
L 225.712059 146.243778 
L 230.480513 145.229475 
L 235.248967 144.602571 
L 240.01742 143.955101 
L 244.785874 143.15058 
L 249.554328 142.206501 
L 254.322782 141.37723 
L 259.091235 140.374054 
L 263.859689 139.29092 
L 268.628143 138.009227 
L 273.396597 136.582188 
L 278.165051 134.987666 
L 282.933504 133.489446 
L 287.701958 131.803678 
L 292.470412 130.31372 
L 297.238866 128.575246 
L 302.007319 127.196819 
L 306.775773 125.347558 
L 311.544227 124.448489 
L 316.312681 122.653187 
L 321.081134 121.643051 
L 325.849588 120.344609 
L 330.618042 119.094225 
L 335.386496 117.913557 
L 340.154949 117.054117 
L 344.923403 115.943813 
L 349.691857 114.971393 
L 354.460311 114.190542 
L 359.228765 113.295109 
L 363.997218 112.556403 
L 368.765672 111.841339 
L 373.534126 111.144862 
L 378.30258 110.590047 
L 383.071033 110.156195 
L 387.839487 109.355375 
L 392.607941 108.879272 
L 397.376395 108.301145 
L 402.144848 107.714417 
L 406.913302 107.022639 
L 411.681756 106.371441 
L 416.45021 105.539574 
L 421.218664 104.821574 
L 425.987117 103.841134 
L 430.755571 102.994836 
L 435.524025 102.145476 
L 440.292479 101.139855 
L 445.060932 100.110072 
L 449.829386 98.811664 
L 454.59784 97.608752 
L 459.366294 95.929485 
L 464.134747 94.413573 
L 468.903201 92.425386 
L 473.671655 90.721028 
L 478.440109 89.082549 
L 483.208563 87.436622 
L 487.977016 86.147342 
L 492.74547 85.143282 
L 497.513924 84.361799 
L 502.282378 83.782955 
L 507.050831 83.321466 
L 511.819285 82.946237 
L 516.587739 82.401135 
L 521.356193 81.082802 
L 526.124646 79.391973 
L 530.8931 77.477299 
L 535.661554 73.117021 
L 540.430008 68.200393 
L 545.198462 48.201538 
" clip-path="url(#p663029a16b)" style="fill: none; stroke: #b09c85; stroke-width: 1.5; stroke-linecap: square"/>
   </g>
   <g id="line2d_23">
    <path d="M 73.121538 520.278462 
L 545.198462 48.201538 
" clip-path="url(#p663029a16b)" style="fill: none; stroke-dasharray: 3.7,1.6; stroke-dashoffset: 0; stroke: #999999"/>
   </g>
   <g id="patch_3">
    <path d="M 63.68 529.72 
L 63.68 38.76 
" style="fill: none; stroke: #000000; stroke-width: 1.5; stroke-linejoin: miter; stroke-linecap: square"/>
   </g>
   <g id="patch_4">
    <path d="M 554.64 529.72 
L 554.64 38.76 
" style="fill: none; stroke: #000000; stroke-width: 1.5; stroke-linejoin: miter; stroke-linecap: square"/>
   </g>
   <g id="patch_5">
    <path d="M 63.68 529.72 
L 554.64 529.72 
" style="fill: none; stroke: #000000; stroke-width: 1.5; stroke-linejoin: miter; stroke-linecap: square"/>
   </g>
   <g id="patch_6">
    <path d="M 63.68 38.76 
L 554.64 38.76 
" style="fill: none; stroke: #000000; stroke-width: 1.5; stroke-linejoin: miter; stroke-linecap: square"/>
   </g>
   <g id="text_15">
    <!-- ROC Curve (GSE225846 Validation - Bootstrap Smoothed) -->
    <g transform="translate(49.795 23.76) scale(0.16 -0.16)">
     <defs>
      <path id="DejaVuSans-Bold-4f" d="M 2719 3878 
Q 2169 3878 1866 3472 
Q 1563 3066 1563 2328 
Q 1563 1594 1866 1187 
Q 2169 781 2719 781 
Q 3272 781 3575 1187 
Q 3878 1594 3878 2328 
Q 3878 3066 3575 3472 
Q 3272 3878 2719 3878 
z
M 2719 4750 
Q 3844 4750 4481 4106 
Q 5119 3463 5119 2328 
Q 5119 1197 4481 553 
Q 3844 -91 2719 -91 
Q 1597 -91 958 553 
Q 319 1197 319 2328 
Q 319 3463 958 4106 
Q 1597 4750 2719 4750 
z
" transform="scale(0.015625)"/>
      <path id="DejaVuSans-Bold-43" d="M 4288 256 
Q 3956 84 3597 -3 
Q 3238 -91 2847 -91 
Q 1681 -91 1000 561 
Q 319 1213 319 2328 
Q 319 3447 1000 4098 
Q 1681 4750 2847 4750 
Q 3238 4750 3597 4662 
Q 3956 4575 4288 4403 
L 4288 3438 
Q 3953 3666 3628 3772 
Q 3303 3878 2944 3878 
Q 2300 3878 1931 3465 
Q 1563 3053 1563 2328 
Q 1563 1606 1931 1193 
Q 2300 781 2944 781 
Q 3303 781 3628 887 
Q 3953 994 4288 1222 
L 4288 256 
z
" transform="scale(0.015625)"/>
      <path id="DejaVuSans-Bold-47" d="M 4781 347 
Q 4331 128 3847 18 
Q 3363 -91 2847 -91 
Q 1681 -91 1000 561 
Q 319 1213 319 2328 
Q 319 3456 1012 4103 
Q 1706 4750 2913 4750 
Q 3378 4750 3804 4662 
Q 4231 4575 4609 4403 
L 4609 3438 
Q 4219 3659 3833 3768 
Q 3447 3878 3059 3878 
Q 2341 3878 1952 3476 
Q 1563 3075 1563 2328 
Q 1563 1588 1938 1184 
Q 2313 781 3003 781 
Q 3191 781 3352 804 
Q 3513 828 3641 878 
L 3641 1784 
L 2906 1784 
L 2906 2591 
L 4781 2591 
L 4781 347 
z
" transform="scale(0.015625)"/>
      <path id="DejaVuSans-Bold-45" d="M 588 4666 
L 3834 4666 
L 3834 3756 
L 1791 3756 
L 1791 2888 
L 3713 2888 
L 3713 1978 
L 1791 1978 
L 1791 909 
L 3903 909 
L 3903 0 
L 588 0 
L 588 4666 
z
" transform="scale(0.015625)"/>
      <path id="DejaVuSans-Bold-32" d="M 1844 884 
L 3897 884 
L 3897 0 
L 506 0 
L 506 884 
L 2209 2388 
Q 2438 2594 2547 2791 
Q 2656 2988 2656 3200 
Q 2656 3528 2436 3728 
Q 2216 3928 1850 3928 
Q 1569 3928 1234 3808 
Q 900 3688 519 3450 
L 519 4475 
Q 925 4609 1322 4679 
Q 1719 4750 2100 4750 
Q 2938 4750 3402 4381 
Q 3866 4013 3866 3353 
Q 3866 2972 3669 2642 
Q 3472 2313 2841 1759 
L 1844 884 
z
" transform="scale(0.015625)"/>
      <path id="DejaVuSans-Bold-35" d="M 678 4666 
L 3669 4666 
L 3669 3781 
L 1638 3781 
L 1638 3059 
Q 1775 3097 1914 3117 
Q 2053 3138 2203 3138 
Q 3056 3138 3531 2711 
Q 4006 2284 4006 1522 
Q 4006 766 3489 337 
Q 2972 -91 2053 -91 
Q 1656 -91 1267 -14 
Q 878 63 494 219 
L 494 1166 
Q 875 947 1217 837 
Q 1559 728 1863 728 
Q 2300 728 2551 942 
Q 2803 1156 2803 1522 
Q 2803 1891 2551 2103 
Q 2300 2316 1863 2316 
Q 1603 2316 1309 2248 
Q 1016 2181 678 2041 
L 678 4666 
z
" transform="scale(0.015625)"/>
      <path id="DejaVuSans-Bold-38" d="M 2228 2088 
Q 1891 2088 1709 1903 
Q 1528 1719 1528 1375 
Q 1528 1031 1709 848 
Q 1891 666 2228 666 
Q 2563 666 2741 848 
Q 2919 1031 2919 1375 
Q 2919 1722 2741 1905 
Q 2563 2088 2228 2088 
z
M 1350 2484 
Q 925 2613 709 2878 
Q 494 3144 494 3541 
Q 494 4131 934 4440 
Q 1375 4750 2228 4750 
Q 3075 4750 3515 4442 
Q 3956 4134 3956 3541 
Q 3956 3144 3739 2878 
Q 3522 2613 3097 2484 
Q 3572 2353 3814 2058 
Q 4056 1763 4056 1313 
Q 4056 619 3595 264 
Q 3134 -91 2228 -91 
Q 1319 -91 855 264 
Q 391 619 391 1313 
Q 391 1763 633 2058 
Q 875 2353 1350 2484 
z
M 1631 3419 
Q 1631 3141 1786 2991 
Q 1941 2841 2228 2841 
Q 2509 2841 2662 2991 
Q 2816 3141 2816 3419 
Q 2816 3697 2662 3845 
Q 2509 3994 2228 3994 
Q 1941 3994 1786 3844 
Q 1631 3694 1631 3419 
z
" transform="scale(0.015625)"/>
      <path id="DejaVuSans-Bold-34" d="M 2356 3675 
L 1038 1722 
L 2356 1722 
L 2356 3675 
z
M 2156 4666 
L 3494 4666 
L 3494 1722 
L 4159 1722 
L 4159 850 
L 3494 850 
L 3494 0 
L 2356 0 
L 2356 850 
L 288 850 
L 288 1881 
L 2156 4666 
z
" transform="scale(0.015625)"/>
      <path id="DejaVuSans-Bold-36" d="M 2316 2303 
Q 2000 2303 1842 2098 
Q 1684 1894 1684 1484 
Q 1684 1075 1842 870 
Q 2000 666 2316 666 
Q 2634 666 2792 870 
Q 2950 1075 2950 1484 
Q 2950 1894 2792 2098 
Q 2634 2303 2316 2303 
z
M 3803 4544 
L 3803 3681 
Q 3506 3822 3243 3889 
Q 2981 3956 2731 3956 
Q 2194 3956 1894 3657 
Q 1594 3359 1544 2772 
Q 1750 2925 1990 3001 
Q 2231 3078 2516 3078 
Q 3231 3078 3670 2659 
Q 4109 2241 4109 1563 
Q 4109 813 3618 361 
Q 3128 -91 2303 -91 
Q 1394 -91 895 523 
Q 397 1138 397 2266 
Q 397 3422 980 4083 
Q 1563 4744 2578 4744 
Q 2900 4744 3203 4694 
Q 3506 4644 3803 4544 
z
" transform="scale(0.015625)"/>
      <path id="DejaVuSans-Bold-56" d="M 31 4666 
L 1241 4666 
L 2478 1222 
L 3713 4666 
L 4922 4666 
L 3194 0 
L 1759 0 
L 31 4666 
z
" transform="scale(0.015625)"/>
      <path id="DejaVuSans-Bold-64" d="M 2919 2988 
L 2919 4863 
L 4044 4863 
L 4044 0 
L 2919 0 
L 2919 506 
Q 2688 197 2409 53 
Q 2131 -91 1766 -91 
Q 1119 -91 703 423 
Q 288 938 288 1747 
Q 288 2556 703 3070 
Q 1119 3584 1766 3584 
Q 2128 3584 2408 3439 
Q 2688 3294 2919 2988 
z
M 2181 722 
Q 2541 722 2730 984 
Q 2919 1247 2919 1747 
Q 2919 2247 2730 2509 
Q 2541 2772 2181 2772 
Q 1825 2772 1636 2509 
Q 1447 2247 1447 1747 
Q 1447 1247 1636 984 
Q 1825 722 2181 722 
z
" transform="scale(0.015625)"/>
      <path id="DejaVuSans-Bold-42" d="M 2456 2859 
Q 2741 2859 2887 2984 
Q 3034 3109 3034 3353 
Q 3034 3594 2887 3720 
Q 2741 3847 2456 3847 
L 1791 3847 
L 1791 2859 
L 2456 2859 
z
M 2497 819 
Q 2859 819 3042 972 
Q 3225 1125 3225 1434 
Q 3225 1738 3044 1889 
Q 2863 2041 2497 2041 
L 1791 2041 
L 1791 819 
L 2497 819 
z
M 3616 2497 
Q 4003 2384 4215 2081 
Q 4428 1778 4428 1338 
Q 4428 663 3972 331 
Q 3516 0 2584 0 
L 588 0 
L 588 4666 
L 2394 4666 
Q 3366 4666 3802 4372 
Q 4238 4078 4238 3431 
Q 4238 3091 4078 2852 
Q 3919 2613 3616 2497 
z
" transform="scale(0.015625)"/>
      <path id="DejaVuSans-Bold-6d" d="M 3781 2919 
Q 3994 3244 4286 3414 
Q 4578 3584 4928 3584 
Q 5531 3584 5847 3212 
Q 6163 2841 6163 2131 
L 6163 0 
L 5038 0 
L 5038 1825 
Q 5041 1866 5042 1909 
Q 5044 1953 5044 2034 
Q 5044 2406 4934 2573 
Q 4825 2741 4581 2741 
Q 4263 2741 4089 2478 
Q 3916 2216 3909 1719 
L 3909 0 
L 2784 0 
L 2784 1825 
Q 2784 2406 2684 2573 
Q 2584 2741 2328 2741 
Q 2006 2741 1831 2477 
Q 1656 2213 1656 1722 
L 1656 0 
L 531 0 
L 531 3500 
L 1656 3500 
L 1656 2988 
Q 1863 3284 2130 3434 
Q 2397 3584 2719 3584 
Q 3081 3584 3359 3409 
Q 3638 3234 3781 2919 
z
" transform="scale(0.015625)"/>
      <path id="DejaVuSans-Bold-68" d="M 4056 2131 
L 4056 0 
L 2931 0 
L 2931 347 
L 2931 1625 
Q 2931 2084 2911 2256 
Q 2891 2428 2841 2509 
Q 2775 2619 2662 2680 
Q 2550 2741 2406 2741 
Q 2056 2741 1856 2470 
Q 1656 2200 1656 1722 
L 1656 0 
L 538 0 
L 538 4863 
L 1656 4863 
L 1656 2988 
Q 1909 3294 2193 3439 
Q 2478 3584 2822 3584 
Q 3428 3584 3742 3212 
Q 4056 2841 4056 2131 
z
" transform="scale(0.015625)"/>
     </defs>
     <use xlink:href="#DejaVuSans-Bold-52"/>
     <use xlink:href="#DejaVuSans-Bold-4f" x="77.001953"/>
     <use xlink:href="#DejaVuSans-Bold-43" x="162.011719"/>
     <use xlink:href="#DejaVuSans-Bold-20" x="235.400391"/>
     <use xlink:href="#DejaVuSans-Bold-43" x="270.214844"/>
     <use xlink:href="#DejaVuSans-Bold-75" x="343.603516"/>
     <use xlink:href="#DejaVuSans-Bold-72" x="414.794922"/>
     <use xlink:href="#DejaVuSans-Bold-76" x="464.111328"/>
     <use xlink:href="#DejaVuSans-Bold-65" x="529.296875"/>
     <use xlink:href="#DejaVuSans-Bold-20" x="597.119141"/>
     <use xlink:href="#DejaVuSans-Bold-28" x="631.933594"/>
     <use xlink:href="#DejaVuSans-Bold-47" x="677.636719"/>
     <use xlink:href="#DejaVuSans-Bold-53" x="759.716797"/>
     <use xlink:href="#DejaVuSans-Bold-45" x="831.738281"/>
     <use xlink:href="#DejaVuSans-Bold-32" x="900.048828"/>
     <use xlink:href="#DejaVuSans-Bold-32" x="969.628906"/>
     <use xlink:href="#DejaVuSans-Bold-35" x="1039.208984"/>
     <use xlink:href="#DejaVuSans-Bold-38" x="1108.789062"/>
     <use xlink:href="#DejaVuSans-Bold-34" x="1178.369141"/>
     <use xlink:href="#DejaVuSans-Bold-36" x="1247.949219"/>
     <use xlink:href="#DejaVuSans-Bold-20" x="1317.529297"/>
     <use xlink:href="#DejaVuSans-Bold-56" x="1352.34375"/>
     <use xlink:href="#DejaVuSans-Bold-61" x="1424.236328"/>
     <use xlink:href="#DejaVuSans-Bold-6c" x="1491.716797"/>
     <use xlink:href="#DejaVuSans-Bold-69" x="1525.994141"/>
     <use xlink:href="#DejaVuSans-Bold-64" x="1560.271484"/>
     <use xlink:href="#DejaVuSans-Bold-61" x="1631.853516"/>
     <use xlink:href="#DejaVuSans-Bold-74" x="1699.333984"/>
     <use xlink:href="#DejaVuSans-Bold-69" x="1747.136719"/>
     <use xlink:href="#DejaVuSans-Bold-6f" x="1781.414062"/>
     <use xlink:href="#DejaVuSans-Bold-6e" x="1850.115234"/>
     <use xlink:href="#DejaVuSans-Bold-20" x="1921.306641"/>
     <use xlink:href="#DejaVuSans-Bold-2d" x="1956.121094"/>
     <use xlink:href="#DejaVuSans-Bold-20" x="1997.625"/>
     <use xlink:href="#DejaVuSans-Bold-42" x="2032.439453"/>
     <use xlink:href="#DejaVuSans-Bold-6f" x="2108.660156"/>
     <use xlink:href="#DejaVuSans-Bold-6f" x="2177.361328"/>
     <use xlink:href="#DejaVuSans-Bold-74" x="2246.0625"/>
     <use xlink:href="#DejaVuSans-Bold-73" x="2293.865234"/>
     <use xlink:href="#DejaVuSans-Bold-74" x="2353.386719"/>
     <use xlink:href="#DejaVuSans-Bold-72" x="2401.189453"/>
     <use xlink:href="#DejaVuSans-Bold-61" x="2450.505859"/>
     <use xlink:href="#DejaVuSans-Bold-70" x="2517.986328"/>
     <use xlink:href="#DejaVuSans-Bold-20" x="2589.568359"/>
     <use xlink:href="#DejaVuSans-Bold-53" x="2624.382812"/>
     <use xlink:href="#DejaVuSans-Bold-6d" x="2696.404297"/>
     <use xlink:href="#DejaVuSans-Bold-6f" x="2800.603516"/>
     <use xlink:href="#DejaVuSans-Bold-6f" x="2869.304688"/>
     <use xlink:href="#DejaVuSans-Bold-74" x="2938.005859"/>
     <use xlink:href="#DejaVuSans-Bold-68" x="2985.808594"/>
     <use xlink:href="#DejaVuSans-Bold-65" x="3057"/>
     <use xlink:href="#DejaVuSans-Bold-64" x="3124.822266"/>
     <use xlink:href="#DejaVuSans-Bold-29" x="3196.404297"/>
    </g>
   </g>
   <g id="legend_1">
    <g id="line2d_24">
     <path d="M 326.99075 343.734969 
L 337.99075 343.734969 
L 348.99075 343.734969 
" style="fill: none; stroke: #e64b35; stroke-width: 1.5; stroke-linecap: square"/>
    </g>
    <g id="text_16">
     <!-- LR (AUC = 0.690) -->
     <g transform="translate(357.79075 347.584969) scale(0.11 -0.11)">
      <defs>
       <path id="DejaVuSans-Bold-4c" d="M 588 4666 
L 1791 4666 
L 1791 909 
L 3903 909 
L 3903 0 
L 588 0 
L 588 4666 
z
" transform="scale(0.015625)"/>
       <path id="DejaVuSans-Bold-41" d="M 3419 850 
L 1538 850 
L 1241 0 
L 31 0 
L 1759 4666 
L 3194 4666 
L 4922 0 
L 3713 0 
L 3419 850 
z
M 1838 1716 
L 3116 1716 
L 2478 3572 
L 1838 1716 
z
" transform="scale(0.015625)"/>
       <path id="DejaVuSans-Bold-55" d="M 588 4666 
L 1791 4666 
L 1791 1869 
Q 1791 1291 1980 1042 
Q 2169 794 2597 794 
Q 3028 794 3217 1042 
Q 3406 1291 3406 1869 
L 3406 4666 
L 4609 4666 
L 4609 1869 
Q 4609 878 4112 393 
Q 3616 -91 2597 -91 
Q 1581 -91 1084 393 
Q 588 878 588 1869 
L 588 4666 
z
" transform="scale(0.015625)"/>
       <path id="DejaVuSans-Bold-3d" d="M 678 3084 
L 4684 3084 
L 4684 2350 
L 678 2350 
L 678 3084 
z
M 678 1663 
L 4684 1663 
L 4684 922 
L 678 922 
L 678 1663 
z
" transform="scale(0.015625)"/>
       <path id="DejaVuSans-Bold-30" d="M 2944 2338 
Q 2944 3213 2780 3570 
Q 2616 3928 2228 3928 
Q 1841 3928 1675 3570 
Q 1509 3213 1509 2338 
Q 1509 1453 1675 1090 
Q 1841 728 2228 728 
Q 2613 728 2778 1090 
Q 2944 1453 2944 2338 
z
M 4147 2328 
Q 4147 1169 3647 539 
Q 3147 -91 2228 -91 
Q 1306 -91 806 539 
Q 306 1169 306 2328 
Q 306 3491 806 4120 
Q 1306 4750 2228 4750 
Q 3147 4750 3647 4120 
Q 4147 3491 4147 2328 
z
" transform="scale(0.015625)"/>
       <path id="DejaVuSans-Bold-2e" d="M 653 1209 
L 1778 1209 
L 1778 0 
L 653 0 
L 653 1209 
z
" transform="scale(0.015625)"/>
       <path id="DejaVuSans-Bold-39" d="M 641 103 
L 641 966 
Q 928 831 1190 764 
Q 1453 697 1709 697 
Q 2247 697 2547 995 
Q 2847 1294 2900 1881 
Q 2688 1725 2447 1647 
Q 2206 1569 1925 1569 
Q 1209 1569 770 1986 
Q 331 2403 331 3084 
Q 331 3838 820 4291 
Q 1309 4744 2131 4744 
Q 3044 4744 3544 4128 
Q 4044 3513 4044 2388 
Q 4044 1231 3459 570 
Q 2875 -91 1856 -91 
Q 1528 -91 1228 -42 
Q 928 6 641 103 
z
M 2125 2350 
Q 2441 2350 2600 2554 
Q 2759 2759 2759 3169 
Q 2759 3575 2600 3781 
Q 2441 3988 2125 3988 
Q 1809 3988 1650 3781 
Q 1491 3575 1491 3169 
Q 1491 2759 1650 2554 
Q 1809 2350 2125 2350 
z
" transform="scale(0.015625)"/>
      </defs>
      <use xlink:href="#DejaVuSans-Bold-4c"/>
      <use xlink:href="#DejaVuSans-Bold-52" x="63.720703"/>
      <use xlink:href="#DejaVuSans-Bold-20" x="140.722656"/>
      <use xlink:href="#DejaVuSans-Bold-28" x="175.537109"/>
      <use xlink:href="#DejaVuSans-Bold-41" x="221.240234"/>
      <use xlink:href="#DejaVuSans-Bold-55" x="295.507812"/>
      <use xlink:href="#DejaVuSans-Bold-43" x="376.708984"/>
      <use xlink:href="#DejaVuSans-Bold-20" x="450.097656"/>
      <use xlink:href="#DejaVuSans-Bold-3d" x="484.912109"/>
      <use xlink:href="#DejaVuSans-Bold-20" x="568.701172"/>
      <use xlink:href="#DejaVuSans-Bold-30" x="603.515625"/>
      <use xlink:href="#DejaVuSans-Bold-2e" x="673.095703"/>
      <use xlink:href="#DejaVuSans-Bold-36" x="711.083984"/>
      <use xlink:href="#DejaVuSans-Bold-39" x="780.664062"/>
      <use xlink:href="#DejaVuSans-Bold-30" x="850.244141"/>
      <use xlink:href="#DejaVuSans-Bold-29" x="919.824219"/>
     </g>
    </g>
    <g id="line2d_25">
     <path d="M 326.99075 359.880906 
L 337.99075 359.880906 
L 348.99075 359.880906 
" style="fill: none; stroke: #4dbbd5; stroke-width: 1.5; stroke-linecap: square"/>
    </g>
    <g id="text_17">
     <!-- LDA (AUC = 0.709) -->
     <g transform="translate(357.79075 363.730906) scale(0.11 -0.11)">
      <defs>
       <path id="DejaVuSans-Bold-44" d="M 1791 3756 
L 1791 909 
L 2222 909 
Q 2959 909 3348 1275 
Q 3738 1641 3738 2338 
Q 3738 3031 3350 3393 
Q 2963 3756 2222 3756 
L 1791 3756 
z
M 588 4666 
L 1856 4666 
Q 2919 4666 3439 4514 
Q 3959 4363 4331 4000 
Q 4659 3684 4818 3271 
Q 4978 2859 4978 2338 
Q 4978 1809 4818 1395 
Q 4659 981 4331 666 
Q 3956 303 3431 151 
Q 2906 0 1856 0 
L 588 0 
L 588 4666 
z
" transform="scale(0.015625)"/>
       <path id="DejaVuSans-Bold-37" d="M 428 4666 
L 3944 4666 
L 3944 3988 
L 2125 0 
L 953 0 
L 2675 3781 
L 428 3781 
L 428 4666 
z
" transform="scale(0.015625)"/>
      </defs>
      <use xlink:href="#DejaVuSans-Bold-4c"/>
      <use xlink:href="#DejaVuSans-Bold-44" x="63.720703"/>
      <use xlink:href="#DejaVuSans-Bold-41" x="146.728516"/>
      <use xlink:href="#DejaVuSans-Bold-20" x="224.121094"/>
      <use xlink:href="#DejaVuSans-Bold-28" x="258.935547"/>
      <use xlink:href="#DejaVuSans-Bold-41" x="304.638672"/>
      <use xlink:href="#DejaVuSans-Bold-55" x="378.90625"/>
      <use xlink:href="#DejaVuSans-Bold-43" x="460.107422"/>
      <use xlink:href="#DejaVuSans-Bold-20" x="533.496094"/>
      <use xlink:href="#DejaVuSans-Bold-3d" x="568.310547"/>
      <use xlink:href="#DejaVuSans-Bold-20" x="652.099609"/>
      <use xlink:href="#DejaVuSans-Bold-30" x="686.914062"/>
      <use xlink:href="#DejaVuSans-Bold-2e" x="756.494141"/>
      <use xlink:href="#DejaVuSans-Bold-37" x="794.482422"/>
      <use xlink:href="#DejaVuSans-Bold-30" x="864.0625"/>
      <use xlink:href="#DejaVuSans-Bold-39" x="933.642578"/>
      <use xlink:href="#DejaVuSans-Bold-29" x="1003.222656"/>
     </g>
    </g>
    <g id="line2d_26">
     <path d="M 326.99075 376.026844 
L 337.99075 376.026844 
L 348.99075 376.026844 
" style="fill: none; stroke: #00a087; stroke-width: 1.5; stroke-linecap: square"/>
    </g>
    <g id="text_18">
     <!-- NaiveBayes (AUC = 0.578) -->
     <g transform="translate(357.79075 379.876844) scale(0.11 -0.11)">
      <defs>
       <path id="DejaVuSans-Bold-4e" d="M 588 4666 
L 1931 4666 
L 3628 1466 
L 3628 4666 
L 4769 4666 
L 4769 0 
L 3425 0 
L 1728 3200 
L 1728 0 
L 588 0 
L 588 4666 
z
" transform="scale(0.015625)"/>
      </defs>
      <use xlink:href="#DejaVuSans-Bold-4e"/>
      <use xlink:href="#DejaVuSans-Bold-61" x="83.691406"/>
      <use xlink:href="#DejaVuSans-Bold-69" x="151.171875"/>
      <use xlink:href="#DejaVuSans-Bold-76" x="185.449219"/>
      <use xlink:href="#DejaVuSans-Bold-65" x="250.634766"/>
      <use xlink:href="#DejaVuSans-Bold-42" x="318.457031"/>
      <use xlink:href="#DejaVuSans-Bold-61" x="394.677734"/>
      <use xlink:href="#DejaVuSans-Bold-79" x="459.033203"/>
      <use xlink:href="#DejaVuSans-Bold-65" x="524.21875"/>
      <use xlink:href="#DejaVuSans-Bold-73" x="592.041016"/>
      <use xlink:href="#DejaVuSans-Bold-20" x="651.5625"/>
      <use xlink:href="#DejaVuSans-Bold-28" x="686.376953"/>
      <use xlink:href="#DejaVuSans-Bold-41" x="732.080078"/>
      <use xlink:href="#DejaVuSans-Bold-55" x="806.347656"/>
      <use xlink:href="#DejaVuSans-Bold-43" x="887.548828"/>
      <use xlink:href="#DejaVuSans-Bold-20" x="960.9375"/>
      <use xlink:href="#DejaVuSans-Bold-3d" x="995.751953"/>
      <use xlink:href="#DejaVuSans-Bold-20" x="1079.541016"/>
      <use xlink:href="#DejaVuSans-Bold-30" x="1114.355469"/>
      <use xlink:href="#DejaVuSans-Bold-2e" x="1183.935547"/>
      <use xlink:href="#DejaVuSans-Bold-35" x="1221.923828"/>
      <use xlink:href="#DejaVuSans-Bold-37" x="1291.503906"/>
      <use xlink:href="#DejaVuSans-Bold-38" x="1361.083984"/>
      <use xlink:href="#DejaVuSans-Bold-29" x="1430.664062"/>
     </g>
    </g>
    <g id="line2d_27">
     <path d="M 326.99075 392.258719 
L 337.99075 392.258719 
L 348.99075 392.258719 
" style="fill: none; stroke: #3c5488; stroke-width: 1.5; stroke-linecap: square"/>
    </g>
    <g id="text_19">
     <!-- KNN (AUC = 0.668) -->
     <g transform="translate(357.79075 396.108719) scale(0.11 -0.11)">
      <defs>
       <path id="DejaVuSans-Bold-4b" d="M 588 4666 
L 1791 4666 
L 1791 2963 
L 3525 4666 
L 4922 4666 
L 2675 2456 
L 5153 0 
L 3647 0 
L 1791 1838 
L 1791 0 
L 588 0 
L 588 4666 
z
" transform="scale(0.015625)"/>
      </defs>
      <use xlink:href="#DejaVuSans-Bold-4b"/>
      <use xlink:href="#DejaVuSans-Bold-4e" x="77.490234"/>
      <use xlink:href="#DejaVuSans-Bold-4e" x="161.181641"/>
      <use xlink:href="#DejaVuSans-Bold-20" x="244.873047"/>
      <use xlink:href="#DejaVuSans-Bold-28" x="279.6875"/>
      <use xlink:href="#DejaVuSans-Bold-41" x="325.390625"/>
      <use xlink:href="#DejaVuSans-Bold-55" x="399.658203"/>
      <use xlink:href="#DejaVuSans-Bold-43" x="480.859375"/>
      <use xlink:href="#DejaVuSans-Bold-20" x="554.248047"/>
      <use xlink:href="#DejaVuSans-Bold-3d" x="589.0625"/>
      <use xlink:href="#DejaVuSans-Bold-20" x="672.851562"/>
      <use xlink:href="#DejaVuSans-Bold-30" x="707.666016"/>
      <use xlink:href="#DejaVuSans-Bold-2e" x="777.246094"/>
      <use xlink:href="#DejaVuSans-Bold-36" x="815.234375"/>
      <use xlink:href="#DejaVuSans-Bold-36" x="884.814453"/>
      <use xlink:href="#DejaVuSans-Bold-38" x="954.394531"/>
      <use xlink:href="#DejaVuSans-Bold-29" x="1023.974609"/>
     </g>
    </g>
    <g id="line2d_28">
     <path d="M 326.99075 408.404656 
L 337.99075 408.404656 
L 348.99075 408.404656 
" style="fill: none; stroke: #f39b7f; stroke-width: 1.5; stroke-linecap: square"/>
    </g>
    <g id="text_20">
     <!-- RF (AUC = 0.754) -->
     <g transform="translate(357.79075 412.254656) scale(0.11 -0.11)">
      <use xlink:href="#DejaVuSans-Bold-52"/>
      <use xlink:href="#DejaVuSans-Bold-46" x="77.001953"/>
      <use xlink:href="#DejaVuSans-Bold-20" x="145.3125"/>
      <use xlink:href="#DejaVuSans-Bold-28" x="180.126953"/>
      <use xlink:href="#DejaVuSans-Bold-41" x="225.830078"/>
      <use xlink:href="#DejaVuSans-Bold-55" x="300.097656"/>
      <use xlink:href="#DejaVuSans-Bold-43" x="381.298828"/>
      <use xlink:href="#DejaVuSans-Bold-20" x="454.6875"/>
      <use xlink:href="#DejaVuSans-Bold-3d" x="489.501953"/>
      <use xlink:href="#DejaVuSans-Bold-20" x="573.291016"/>
      <use xlink:href="#DejaVuSans-Bold-30" x="608.105469"/>
      <use xlink:href="#DejaVuSans-Bold-2e" x="677.685547"/>
      <use xlink:href="#DejaVuSans-Bold-37" x="715.673828"/>
      <use xlink:href="#DejaVuSans-Bold-35" x="785.253906"/>
      <use xlink:href="#DejaVuSans-Bold-34" x="854.833984"/>
      <use xlink:href="#DejaVuSans-Bold-29" x="924.414062"/>
     </g>
    </g>
    <g id="line2d_29">
     <path d="M 326.99075 424.550594 
L 337.99075 424.550594 
L 348.99075 424.550594 
" style="fill: none; stroke: #8491b4; stroke-width: 1.5; stroke-linecap: square"/>
    </g>
    <g id="text_21">
     <!-- ExtraTrees (AUC = 0.740) -->
     <g transform="translate(357.79075 428.400594) scale(0.11 -0.11)">
      <defs>
       <path id="DejaVuSans-Bold-78" d="M 1422 1791 
L 159 3500 
L 1344 3500 
L 2059 2463 
L 2784 3500 
L 3969 3500 
L 2706 1797 
L 4031 0 
L 2847 0 
L 2059 1106 
L 1281 0 
L 97 0 
L 1422 1791 
z
" transform="scale(0.015625)"/>
      </defs>
      <use xlink:href="#DejaVuSans-Bold-45"/>
      <use xlink:href="#DejaVuSans-Bold-78" x="68.310547"/>
      <use xlink:href="#DejaVuSans-Bold-74" x="132.8125"/>
      <use xlink:href="#DejaVuSans-Bold-72" x="180.615234"/>
      <use xlink:href="#DejaVuSans-Bold-61" x="229.931641"/>
      <use xlink:href="#DejaVuSans-Bold-54" x="297.412109"/>
      <use xlink:href="#DejaVuSans-Bold-72" x="354.625"/>
      <use xlink:href="#DejaVuSans-Bold-65" x="403.941406"/>
      <use xlink:href="#DejaVuSans-Bold-65" x="471.763672"/>
      <use xlink:href="#DejaVuSans-Bold-73" x="539.585938"/>
      <use xlink:href="#DejaVuSans-Bold-20" x="599.107422"/>
      <use xlink:href="#DejaVuSans-Bold-28" x="633.921875"/>
      <use xlink:href="#DejaVuSans-Bold-41" x="679.625"/>
      <use xlink:href="#DejaVuSans-Bold-55" x="753.892578"/>
      <use xlink:href="#DejaVuSans-Bold-43" x="835.09375"/>
      <use xlink:href="#DejaVuSans-Bold-20" x="908.482422"/>
      <use xlink:href="#DejaVuSans-Bold-3d" x="943.296875"/>
      <use xlink:href="#DejaVuSans-Bold-20" x="1027.085938"/>
      <use xlink:href="#DejaVuSans-Bold-30" x="1061.900391"/>
      <use xlink:href="#DejaVuSans-Bold-2e" x="1131.480469"/>
      <use xlink:href="#DejaVuSans-Bold-37" x="1169.46875"/>
      <use xlink:href="#DejaVuSans-Bold-34" x="1239.048828"/>
      <use xlink:href="#DejaVuSans-Bold-30" x="1308.628906"/>
      <use xlink:href="#DejaVuSans-Bold-29" x="1378.208984"/>
     </g>
    </g>
    <g id="line2d_30">
     <path d="M 326.99075 440.696531 
L 337.99075 440.696531 
L 348.99075 440.696531 
" style="fill: none; stroke: #91d1c2; stroke-width: 1.5; stroke-linecap: square"/>
    </g>
    <g id="text_22">
     <!-- AdaBoost (AUC = 0.775) -->
     <g transform="translate(357.79075 444.546531) scale(0.11 -0.11)">
      <use xlink:href="#DejaVuSans-Bold-41"/>
      <use xlink:href="#DejaVuSans-Bold-64" x="77.392578"/>
      <use xlink:href="#DejaVuSans-Bold-61" x="148.974609"/>
      <use xlink:href="#DejaVuSans-Bold-42" x="216.455078"/>
      <use xlink:href="#DejaVuSans-Bold-6f" x="292.675781"/>
      <use xlink:href="#DejaVuSans-Bold-6f" x="361.376953"/>
      <use xlink:href="#DejaVuSans-Bold-73" x="430.078125"/>
      <use xlink:href="#DejaVuSans-Bold-74" x="489.599609"/>
      <use xlink:href="#DejaVuSans-Bold-20" x="537.402344"/>
      <use xlink:href="#DejaVuSans-Bold-28" x="572.216797"/>
      <use xlink:href="#DejaVuSans-Bold-41" x="617.919922"/>
      <use xlink:href="#DejaVuSans-Bold-55" x="692.1875"/>
      <use xlink:href="#DejaVuSans-Bold-43" x="773.388672"/>
      <use xlink:href="#DejaVuSans-Bold-20" x="846.777344"/>
      <use xlink:href="#DejaVuSans-Bold-3d" x="881.591797"/>
      <use xlink:href="#DejaVuSans-Bold-20" x="965.380859"/>
      <use xlink:href="#DejaVuSans-Bold-30" x="1000.195312"/>
      <use xlink:href="#DejaVuSans-Bold-2e" x="1069.775391"/>
      <use xlink:href="#DejaVuSans-Bold-37" x="1107.763672"/>
      <use xlink:href="#DejaVuSans-Bold-37" x="1177.34375"/>
      <use xlink:href="#DejaVuSans-Bold-35" x="1246.923828"/>
      <use xlink:href="#DejaVuSans-Bold-29" x="1316.503906"/>
     </g>
    </g>
    <g id="line2d_31">
     <path d="M 326.99075 456.842469 
L 337.99075 456.842469 
L 348.99075 456.842469 
" style="fill: none; stroke: #dc0000; stroke-width: 1.5; stroke-linecap: square"/>
    </g>
    <g id="text_23">
     <!-- XGB (AUC = 0.737) -->
     <g transform="translate(357.79075 460.692469) scale(0.11 -0.11)">
      <defs>
       <path id="DejaVuSans-Bold-58" d="M 3188 2381 
L 4806 0 
L 3553 0 
L 2463 1594 
L 1381 0 
L 122 0 
L 1741 2381 
L 184 4666 
L 1441 4666 
L 2463 3163 
L 3481 4666 
L 4744 4666 
L 3188 2381 
z
" transform="scale(0.015625)"/>
       <path id="DejaVuSans-Bold-33" d="M 2981 2516 
Q 3453 2394 3698 2092 
Q 3944 1791 3944 1325 
Q 3944 631 3412 270 
Q 2881 -91 1863 -91 
Q 1503 -91 1142 -33 
Q 781 25 428 141 
L 428 1069 
Q 766 900 1098 814 
Q 1431 728 1753 728 
Q 2231 728 2486 893 
Q 2741 1059 2741 1369 
Q 2741 1688 2480 1852 
Q 2219 2016 1709 2016 
L 1228 2016 
L 1228 2791 
L 1734 2791 
Q 2188 2791 2409 2933 
Q 2631 3075 2631 3366 
Q 2631 3634 2415 3781 
Q 2200 3928 1806 3928 
Q 1516 3928 1219 3862 
Q 922 3797 628 3669 
L 628 4550 
Q 984 4650 1334 4700 
Q 1684 4750 2022 4750 
Q 2931 4750 3382 4451 
Q 3834 4153 3834 3553 
Q 3834 3144 3618 2883 
Q 3403 2622 2981 2516 
z
" transform="scale(0.015625)"/>
      </defs>
      <use xlink:href="#DejaVuSans-Bold-58"/>
      <use xlink:href="#DejaVuSans-Bold-47" x="77.099609"/>
      <use xlink:href="#DejaVuSans-Bold-42" x="159.179688"/>
      <use xlink:href="#DejaVuSans-Bold-20" x="235.400391"/>
      <use xlink:href="#DejaVuSans-Bold-28" x="270.214844"/>
      <use xlink:href="#DejaVuSans-Bold-41" x="315.917969"/>
      <use xlink:href="#DejaVuSans-Bold-55" x="390.185547"/>
      <use xlink:href="#DejaVuSans-Bold-43" x="471.386719"/>
      <use xlink:href="#DejaVuSans-Bold-20" x="544.775391"/>
      <use xlink:href="#DejaVuSans-Bold-3d" x="579.589844"/>
      <use xlink:href="#DejaVuSans-Bold-20" x="663.378906"/>
      <use xlink:href="#DejaVuSans-Bold-30" x="698.193359"/>
      <use xlink:href="#DejaVuSans-Bold-2e" x="767.773438"/>
      <use xlink:href="#DejaVuSans-Bold-37" x="805.761719"/>
      <use xlink:href="#DejaVuSans-Bold-33" x="875.341797"/>
      <use xlink:href="#DejaVuSans-Bold-37" x="944.921875"/>
      <use xlink:href="#DejaVuSans-Bold-29" x="1014.501953"/>
     </g>
    </g>
    <g id="line2d_32">
     <path d="M 326.99075 472.988406 
L 337.99075 472.988406 
L 348.99075 472.988406 
" style="fill: none; stroke: #7e6148; stroke-width: 1.5; stroke-linecap: square"/>
    </g>
    <g id="text_24">
     <!-- MLP (AUC = 0.901) -->
     <g transform="translate(357.79075 476.838406) scale(0.11 -0.11)">
      <defs>
       <path id="DejaVuSans-Bold-4d" d="M 588 4666 
L 2119 4666 
L 3181 2169 
L 4250 4666 
L 5778 4666 
L 5778 0 
L 4641 0 
L 4641 3413 
L 3566 897 
L 2803 897 
L 1728 3413 
L 1728 0 
L 588 0 
L 588 4666 
z
" transform="scale(0.015625)"/>
      </defs>
      <use xlink:href="#DejaVuSans-Bold-4d"/>
      <use xlink:href="#DejaVuSans-Bold-4c" x="99.511719"/>
      <use xlink:href="#DejaVuSans-Bold-50" x="163.232422"/>
      <use xlink:href="#DejaVuSans-Bold-20" x="236.523438"/>
      <use xlink:href="#DejaVuSans-Bold-28" x="271.337891"/>
      <use xlink:href="#DejaVuSans-Bold-41" x="317.041016"/>
      <use xlink:href="#DejaVuSans-Bold-55" x="391.308594"/>
      <use xlink:href="#DejaVuSans-Bold-43" x="472.509766"/>
      <use xlink:href="#DejaVuSans-Bold-20" x="545.898438"/>
      <use xlink:href="#DejaVuSans-Bold-3d" x="580.712891"/>
      <use xlink:href="#DejaVuSans-Bold-20" x="664.501953"/>
      <use xlink:href="#DejaVuSans-Bold-30" x="699.316406"/>
      <use xlink:href="#DejaVuSans-Bold-2e" x="768.896484"/>
      <use xlink:href="#DejaVuSans-Bold-39" x="806.884766"/>
      <use xlink:href="#DejaVuSans-Bold-30" x="876.464844"/>
      <use xlink:href="#DejaVuSans-Bold-31" x="946.044922"/>
      <use xlink:href="#DejaVuSans-Bold-29" x="1015.625"/>
     </g>
    </g>
    <g id="line2d_33">
     <path d="M 326.99075 489.134344 
L 337.99075 489.134344 
L 348.99075 489.134344 
" style="fill: none; stroke: #b09c85; stroke-width: 1.5; stroke-linecap: square"/>
    </g>
    <g id="text_25">
     <!-- CNN (AUC = 0.772) -->
     <g transform="translate(357.79075 492.984344) scale(0.11 -0.11)">
      <use xlink:href="#DejaVuSans-Bold-43"/>
      <use xlink:href="#DejaVuSans-Bold-4e" x="73.388672"/>
      <use xlink:href="#DejaVuSans-Bold-4e" x="157.080078"/>
      <use xlink:href="#DejaVuSans-Bold-20" x="240.771484"/>
      <use xlink:href="#DejaVuSans-Bold-28" x="275.585938"/>
      <use xlink:href="#DejaVuSans-Bold-41" x="321.289062"/>
      <use xlink:href="#DejaVuSans-Bold-55" x="395.556641"/>
      <use xlink:href="#DejaVuSans-Bold-43" x="476.757812"/>
      <use xlink:href="#DejaVuSans-Bold-20" x="550.146484"/>
      <use xlink:href="#DejaVuSans-Bold-3d" x="584.960938"/>
      <use xlink:href="#DejaVuSans-Bold-20" x="668.75"/>
      <use xlink:href="#DejaVuSans-Bold-30" x="703.564453"/>
      <use xlink:href="#DejaVuSans-Bold-2e" x="773.144531"/>
      <use xlink:href="#DejaVuSans-Bold-37" x="811.132812"/>
      <use xlink:href="#DejaVuSans-Bold-37" x="880.712891"/>
      <use xlink:href="#DejaVuSans-Bold-32" x="950.292969"/>
      <use xlink:href="#DejaVuSans-Bold-29" x="1019.873047"/>
     </g>
    </g>
   </g>
  </g>
 </g>
 <defs>
  <clipPath id="p663029a16b">
   <rect x="63.68" y="38.76" width="490.96" height="490.96"/>
  </clipPath>
 </defs>
</svg>
