<?xml version="1.0" encoding="utf-8" standalone="no"?>
<!DOCTYPE svg PUBLIC "-//W3C//DTD SVG 1.1//EN"
  "http://www.w3.org/Graphics/SVG/1.1/DTD/svg11.dtd">
<svg xmlns:xlink="http://www.w3.org/1999/xlink" width="576pt" height="576pt" viewBox="0 0 576 576" xmlns="http://www.w3.org/2000/svg" version="1.1">
 <metadata>
  <rdf:RDF xmlns:dc="http://purl.org/dc/elements/1.1/" xmlns:cc="http://creativecommons.org/ns#" xmlns:rdf="http://www.w3.org/1999/02/22-rdf-syntax-ns#">
   <cc:Work>
    <dc:type rdf:resource="http://purl.org/dc/dcmitype/StillImage"/>
    <dc:date>2026-03-28T16:07:27.593441</dc:date>
    <dc:format>image/svg+xml</dc:format>
    <dc:creator>
     <cc:Agent>
      <dc:title>Matplotlib v3.9.4, https://matplotlib.org/</dc:title>
     </cc:Agent>
    </dc:creator>
   </cc:Work>
  </rdf:RDF>
 </metadata>
 <defs>
  <style type="text/css">*{stroke-linejoin: round; stroke-linecap: butt}</style>
 </defs>
 <g id="figure_1">
  <g id="patch_1">
   <path d="M 0 576 
L 576 576 
L 576 0 
L 0 0 
z
" style="fill: #ffffff"/>
  </g>
  <g id="axes_1">
   <g id="patch_2">
    <path d="M 63.68 529.72 
L 554.64 529.72 
L 554.64 38.76 
L 63.68 38.76 
z
" style="fill: #ffffff"/>
   </g>
   <g id="matplotlib.axis_1">
    <g id="xtick_1">
     <g id="line2d_1">
      <defs>
       <path id="mab5d9b4e70" d="M 0 0 
L 0 3.5 
" style="stroke: #000000; stroke-width: 0.8"/>
      </defs>
      <g>
       <use xlink:href="#mab5d9b4e70" x="73.121538" y="529.72" style="stroke: #000000; stroke-width: 0.8"/>
      </g>
     </g>
     <g id="text_1">
      <!-- 0.0 -->
      <g transform="translate(63.579663 545.838125) scale(0.12 -0.12)">
       <defs>
        <path id="DejaVuSans-30" d="M 2034 4250 
Q 1547 4250 1301 3770 
Q 1056 3291 1056 2328 
Q 1056 1369 1301 889 
Q 1547 409 2034 409 
Q 2525 409 2770 889 
Q 3016 1369 3016 2328 
Q 3016 3291 2770 3770 
Q 2525 4250 2034 4250 
z
M 2034 4750 
Q 2819 4750 3233 4129 
Q 3647 3509 3647 2328 
Q 3647 1150 3233 529 
Q 2819 -91 2034 -91 
Q 1250 -91 836 529 
Q 422 1150 422 2328 
Q 422 3509 836 4129 
Q 1250 4750 2034 4750 
z
" transform="scale(0.015625)"/>
        <path id="DejaVuSans-2e" d="M 684 794 
L 1344 794 
L 1344 0 
L 684 0 
L 684 794 
z
" transform="scale(0.015625)"/>
       </defs>
       <use xlink:href="#DejaVuSans-30"/>
       <use xlink:href="#DejaVuSans-2e" x="63.623047"/>
       <use xlink:href="#DejaVuSans-30" x="95.410156"/>
      </g>
     </g>
    </g>
    <g id="xtick_2">
     <g id="line2d_2">
      <g>
       <use xlink:href="#mab5d9b4e70" x="167.536923" y="529.72" style="stroke: #000000; stroke-width: 0.8"/>
      </g>
     </g>
     <g id="text_2">
      <!-- 0.2 -->
      <g transform="translate(157.995048 545.838125) scale(0.12 -0.12)">
       <defs>
        <path id="DejaVuSans-32" d="M 1228 531 
L 3431 531 
L 3431 0 
L 469 0 
L 469 531 
Q 828 903 1448 1529 
Q 2069 2156 2228 2338 
Q 2531 2678 2651 2914 
Q 2772 3150 2772 3378 
Q 2772 3750 2511 3984 
Q 2250 4219 1831 4219 
Q 1534 4219 1204 4116 
Q 875 4013 500 3803 
L 500 4441 
Q 881 4594 1212 4672 
Q 1544 4750 1819 4750 
Q 2544 4750 2975 4387 
Q 3406 4025 3406 3419 
Q 3406 3131 3298 2873 
Q 3191 2616 2906 2266 
Q 2828 2175 2409 1742 
Q 1991 1309 1228 531 
z
" transform="scale(0.015625)"/>
       </defs>
       <use xlink:href="#DejaVuSans-30"/>
       <use xlink:href="#DejaVuSans-2e" x="63.623047"/>
       <use xlink:href="#DejaVuSans-32" x="95.410156"/>
      </g>
     </g>
    </g>
    <g id="xtick_3">
     <g id="line2d_3">
      <g>
       <use xlink:href="#mab5d9b4e70" x="261.952308" y="529.72" style="stroke: #000000; stroke-width: 0.8"/>
      </g>
     </g>
     <g id="text_3">
      <!-- 0.4 -->
      <g transform="translate(252.410433 545.838125) scale(0.12 -0.12)">
       <defs>
        <path id="DejaVuSans-34" d="M 2419 4116 
L 825 1625 
L 2419 1625 
L 2419 4116 
z
M 2253 4666 
L 3047 4666 
L 3047 1625 
L 3713 1625 
L 3713 1100 
L 3047 1100 
L 3047 0 
L 2419 0 
L 2419 1100 
L 313 1100 
L 313 1709 
L 2253 4666 
z
" transform="scale(0.015625)"/>
       </defs>
       <use xlink:href="#DejaVuSans-30"/>
       <use xlink:href="#DejaVuSans-2e" x="63.623047"/>
       <use xlink:href="#DejaVuSans-34" x="95.410156"/>
      </g>
     </g>
    </g>
    <g id="xtick_4">
     <g id="line2d_4">
      <g>
       <use xlink:href="#mab5d9b4e70" x="356.367692" y="529.72" style="stroke: #000000; stroke-width: 0.8"/>
      </g>
     </g>
     <g id="text_4">
      <!-- 0.6 -->
      <g transform="translate(346.825817 545.838125) scale(0.12 -0.12)">
       <defs>
        <path id="DejaVuSans-36" d="M 2113 2584 
Q 1688 2584 1439 2293 
Q 1191 2003 1191 1497 
Q 1191 994 1439 701 
Q 1688 409 2113 409 
Q 2538 409 2786 701 
Q 3034 994 3034 1497 
Q 3034 2003 2786 2293 
Q 2538 2584 2113 2584 
z
M 3366 4563 
L 3366 3988 
Q 3128 4100 2886 4159 
Q 2644 4219 2406 4219 
Q 1781 4219 1451 3797 
Q 1122 3375 1075 2522 
Q 1259 2794 1537 2939 
Q 1816 3084 2150 3084 
Q 2853 3084 3261 2657 
Q 3669 2231 3669 1497 
Q 3669 778 3244 343 
Q 2819 -91 2113 -91 
Q 1303 -91 875 529 
Q 447 1150 447 2328 
Q 447 3434 972 4092 
Q 1497 4750 2381 4750 
Q 2619 4750 2861 4703 
Q 3103 4656 3366 4563 
z
" transform="scale(0.015625)"/>
       </defs>
       <use xlink:href="#DejaVuSans-30"/>
       <use xlink:href="#DejaVuSans-2e" x="63.623047"/>
       <use xlink:href="#DejaVuSans-36" x="95.410156"/>
      </g>
     </g>
    </g>
    <g id="xtick_5">
     <g id="line2d_5">
      <g>
       <use xlink:href="#mab5d9b4e70" x="450.783077" y="529.72" style="stroke: #000000; stroke-width: 0.8"/>
      </g>
     </g>
     <g id="text_5">
      <!-- 0.8 -->
      <g transform="translate(441.241202 545.838125) scale(0.12 -0.12)">
       <defs>
        <path id="DejaVuSans-38" d="M 2034 2216 
Q 1584 2216 1326 1975 
Q 1069 1734 1069 1313 
Q 1069 891 1326 650 
Q 1584 409 2034 409 
Q 2484 409 2743 651 
Q 3003 894 3003 1313 
Q 3003 1734 2745 1975 
Q 2488 2216 2034 2216 
z
M 1403 2484 
Q 997 2584 770 2862 
Q 544 3141 544 3541 
Q 544 4100 942 4425 
Q 1341 4750 2034 4750 
Q 2731 4750 3128 4425 
Q 3525 4100 3525 3541 
Q 3525 3141 3298 2862 
Q 3072 2584 2669 2484 
Q 3125 2378 3379 2068 
Q 3634 1759 3634 1313 
Q 3634 634 3220 271 
Q 2806 -91 2034 -91 
Q 1263 -91 848 271 
Q 434 634 434 1313 
Q 434 1759 690 2068 
Q 947 2378 1403 2484 
z
M 1172 3481 
Q 1172 3119 1398 2916 
Q 1625 2713 2034 2713 
Q 2441 2713 2670 2916 
Q 2900 3119 2900 3481 
Q 2900 3844 2670 4047 
Q 2441 4250 2034 4250 
Q 1625 4250 1398 4047 
Q 1172 3844 1172 3481 
z
" transform="scale(0.015625)"/>
       </defs>
       <use xlink:href="#DejaVuSans-30"/>
       <use xlink:href="#DejaVuSans-2e" x="63.623047"/>
       <use xlink:href="#DejaVuSans-38" x="95.410156"/>
      </g>
     </g>
    </g>
    <g id="xtick_6">
     <g id="line2d_6">
      <g>
       <use xlink:href="#mab5d9b4e70" x="545.198462" y="529.72" style="stroke: #000000; stroke-width: 0.8"/>
      </g>
     </g>
     <g id="text_6">
      <!-- 1.0 -->
      <g transform="translate(535.656587 545.838125) scale(0.12 -0.12)">
       <defs>
        <path id="DejaVuSans-31" d="M 794 531 
L 1825 531 
L 1825 4091 
L 703 3866 
L 703 4441 
L 1819 4666 
L 2450 4666 
L 2450 531 
L 3481 531 
L 3481 0 
L 794 0 
L 794 531 
z
" transform="scale(0.015625)"/>
       </defs>
       <use xlink:href="#DejaVuSans-31"/>
       <use xlink:href="#DejaVuSans-2e" x="63.623047"/>
       <use xlink:href="#DejaVuSans-30" x="95.410156"/>
      </g>
     </g>
    </g>
    <g id="text_7">
     <!-- 1 - Specificity (False Positive Rate) -->
     <g transform="translate(171.371562 562.971563) scale(0.14 -0.14)">
      <defs>
       <path id="DejaVuSans-Bold-31" d="M 750 831 
L 1813 831 
L 1813 3847 
L 722 3622 
L 722 4441 
L 1806 4666 
L 2950 4666 
L 2950 831 
L 4013 831 
L 4013 0 
L 750 0 
L 750 831 
z
" transform="scale(0.015625)"/>
       <path id="DejaVuSans-Bold-20" transform="scale(0.015625)"/>
       <path id="DejaVuSans-Bold-2d" d="M 347 2297 
L 2309 2297 
L 2309 1388 
L 347 1388 
L 347 2297 
z
" transform="scale(0.015625)"/>
       <path id="DejaVuSans-Bold-53" d="M 3834 4519 
L 3834 3531 
Q 3450 3703 3084 3790 
Q 2719 3878 2394 3878 
Q 1963 3878 1756 3759 
Q 1550 3641 1550 3391 
Q 1550 3203 1689 3098 
Q 1828 2994 2194 2919 
L 2706 2816 
Q 3484 2659 3812 2340 
Q 4141 2022 4141 1434 
Q 4141 663 3683 286 
Q 3225 -91 2284 -91 
Q 1841 -91 1394 -6 
Q 947 78 500 244 
L 500 1259 
Q 947 1022 1364 901 
Q 1781 781 2169 781 
Q 2563 781 2772 912 
Q 2981 1044 2981 1288 
Q 2981 1506 2839 1625 
Q 2697 1744 2272 1838 
L 1806 1941 
Q 1106 2091 782 2419 
Q 459 2747 459 3303 
Q 459 4000 909 4375 
Q 1359 4750 2203 4750 
Q 2588 4750 2994 4692 
Q 3400 4634 3834 4519 
z
" transform="scale(0.015625)"/>
       <path id="DejaVuSans-Bold-70" d="M 1656 506 
L 1656 -1331 
L 538 -1331 
L 538 3500 
L 1656 3500 
L 1656 2988 
Q 1888 3294 2169 3439 
Q 2450 3584 2816 3584 
Q 3463 3584 3878 3070 
Q 4294 2556 4294 1747 
Q 4294 938 3878 423 
Q 3463 -91 2816 -91 
Q 2450 -91 2169 54 
Q 1888 200 1656 506 
z
M 2400 2772 
Q 2041 2772 1848 2508 
Q 1656 2244 1656 1747 
Q 1656 1250 1848 986 
Q 2041 722 2400 722 
Q 2759 722 2948 984 
Q 3138 1247 3138 1747 
Q 3138 2247 2948 2509 
Q 2759 2772 2400 2772 
z
" transform="scale(0.015625)"/>
       <path id="DejaVuSans-Bold-65" d="M 4031 1759 
L 4031 1441 
L 1416 1441 
Q 1456 1047 1700 850 
Q 1944 653 2381 653 
Q 2734 653 3104 758 
Q 3475 863 3866 1075 
L 3866 213 
Q 3469 63 3072 -14 
Q 2675 -91 2278 -91 
Q 1328 -91 801 392 
Q 275 875 275 1747 
Q 275 2603 792 3093 
Q 1309 3584 2216 3584 
Q 3041 3584 3536 3087 
Q 4031 2591 4031 1759 
z
M 2881 2131 
Q 2881 2450 2695 2645 
Q 2509 2841 2209 2841 
Q 1884 2841 1681 2658 
Q 1478 2475 1428 2131 
L 2881 2131 
z
" transform="scale(0.015625)"/>
       <path id="DejaVuSans-Bold-63" d="M 3366 3391 
L 3366 2478 
Q 3138 2634 2908 2709 
Q 2678 2784 2431 2784 
Q 1963 2784 1702 2511 
Q 1441 2238 1441 1747 
Q 1441 1256 1702 982 
Q 1963 709 2431 709 
Q 2694 709 2930 787 
Q 3166 866 3366 1019 
L 3366 103 
Q 3103 6 2833 -42 
Q 2563 -91 2291 -91 
Q 1344 -91 809 395 
Q 275 881 275 1747 
Q 275 2613 809 3098 
Q 1344 3584 2291 3584 
Q 2566 3584 2833 3536 
Q 3100 3488 3366 3391 
z
" transform="scale(0.015625)"/>
       <path id="DejaVuSans-Bold-69" d="M 538 3500 
L 1656 3500 
L 1656 0 
L 538 0 
L 538 3500 
z
M 538 4863 
L 1656 4863 
L 1656 3950 
L 538 3950 
L 538 4863 
z
" transform="scale(0.015625)"/>
       <path id="DejaVuSans-Bold-66" d="M 2841 4863 
L 2841 4128 
L 2222 4128 
Q 1984 4128 1890 4042 
Q 1797 3956 1797 3744 
L 1797 3500 
L 2753 3500 
L 2753 2700 
L 1797 2700 
L 1797 0 
L 678 0 
L 678 2700 
L 122 2700 
L 122 3500 
L 678 3500 
L 678 3744 
Q 678 4316 997 4589 
Q 1316 4863 1984 4863 
L 2841 4863 
z
" transform="scale(0.015625)"/>
       <path id="DejaVuSans-Bold-74" d="M 1759 4494 
L 1759 3500 
L 2913 3500 
L 2913 2700 
L 1759 2700 
L 1759 1216 
Q 1759 972 1856 886 
Q 1953 800 2241 800 
L 2816 800 
L 2816 0 
L 1856 0 
Q 1194 0 917 276 
Q 641 553 641 1216 
L 641 2700 
L 84 2700 
L 84 3500 
L 641 3500 
L 641 4494 
L 1759 4494 
z
" transform="scale(0.015625)"/>
       <path id="DejaVuSans-Bold-79" d="M 78 3500 
L 1197 3500 
L 2138 1125 
L 2938 3500 
L 4056 3500 
L 2584 -331 
Q 2363 -916 2067 -1148 
Q 1772 -1381 1288 -1381 
L 641 -1381 
L 641 -647 
L 991 -647 
Q 1275 -647 1404 -556 
Q 1534 -466 1606 -231 
L 1638 -134 
L 78 3500 
z
" transform="scale(0.015625)"/>
       <path id="DejaVuSans-Bold-28" d="M 2413 -844 
L 1484 -844 
Q 1006 -72 778 623 
Q 550 1319 550 2003 
Q 550 2688 779 3389 
Q 1009 4091 1484 4856 
L 2413 4856 
Q 2013 4116 1813 3408 
Q 1613 2700 1613 2009 
Q 1613 1319 1811 609 
Q 2009 -100 2413 -844 
z
" transform="scale(0.015625)"/>
       <path id="DejaVuSans-Bold-46" d="M 588 4666 
L 3834 4666 
L 3834 3756 
L 1791 3756 
L 1791 2888 
L 3713 2888 
L 3713 1978 
L 1791 1978 
L 1791 0 
L 588 0 
L 588 4666 
z
" transform="scale(0.015625)"/>
       <path id="DejaVuSans-Bold-61" d="M 2106 1575 
Q 1756 1575 1579 1456 
Q 1403 1338 1403 1106 
Q 1403 894 1545 773 
Q 1688 653 1941 653 
Q 2256 653 2472 879 
Q 2688 1106 2688 1447 
L 2688 1575 
L 2106 1575 
z
M 3816 1997 
L 3816 0 
L 2688 0 
L 2688 519 
Q 2463 200 2181 54 
Q 1900 -91 1497 -91 
Q 953 -91 614 226 
Q 275 544 275 1050 
Q 275 1666 698 1953 
Q 1122 2241 2028 2241 
L 2688 2241 
L 2688 2328 
Q 2688 2594 2478 2717 
Q 2269 2841 1825 2841 
Q 1466 2841 1156 2769 
Q 847 2697 581 2553 
L 581 3406 
Q 941 3494 1303 3539 
Q 1666 3584 2028 3584 
Q 2975 3584 3395 3211 
Q 3816 2838 3816 1997 
z
" transform="scale(0.015625)"/>
       <path id="DejaVuSans-Bold-6c" d="M 538 4863 
L 1656 4863 
L 1656 0 
L 538 0 
L 538 4863 
z
" transform="scale(0.015625)"/>
       <path id="DejaVuSans-Bold-73" d="M 3272 3391 
L 3272 2541 
Q 2913 2691 2578 2766 
Q 2244 2841 1947 2841 
Q 1628 2841 1473 2761 
Q 1319 2681 1319 2516 
Q 1319 2381 1436 2309 
Q 1553 2238 1856 2203 
L 2053 2175 
Q 2913 2066 3209 1816 
Q 3506 1566 3506 1031 
Q 3506 472 3093 190 
Q 2681 -91 1863 -91 
Q 1516 -91 1145 -36 
Q 775 19 384 128 
L 384 978 
Q 719 816 1070 734 
Q 1422 653 1784 653 
Q 2113 653 2278 743 
Q 2444 834 2444 1013 
Q 2444 1163 2330 1236 
Q 2216 1309 1875 1350 
L 1678 1375 
Q 931 1469 631 1722 
Q 331 1975 331 2491 
Q 331 3047 712 3315 
Q 1094 3584 1881 3584 
Q 2191 3584 2531 3537 
Q 2872 3491 3272 3391 
z
" transform="scale(0.015625)"/>
       <path id="DejaVuSans-Bold-50" d="M 588 4666 
L 2584 4666 
Q 3475 4666 3951 4270 
Q 4428 3875 4428 3144 
Q 4428 2409 3951 2014 
Q 3475 1619 2584 1619 
L 1791 1619 
L 1791 0 
L 588 0 
L 588 4666 
z
M 1791 3794 
L 1791 2491 
L 2456 2491 
Q 2806 2491 2997 2661 
Q 3188 2831 3188 3144 
Q 3188 3456 2997 3625 
Q 2806 3794 2456 3794 
L 1791 3794 
z
" transform="scale(0.015625)"/>
       <path id="DejaVuSans-Bold-6f" d="M 2203 2784 
Q 1831 2784 1636 2517 
Q 1441 2250 1441 1747 
Q 1441 1244 1636 976 
Q 1831 709 2203 709 
Q 2569 709 2762 976 
Q 2956 1244 2956 1747 
Q 2956 2250 2762 2517 
Q 2569 2784 2203 2784 
z
M 2203 3584 
Q 3106 3584 3614 3096 
Q 4122 2609 4122 1747 
Q 4122 884 3614 396 
Q 3106 -91 2203 -91 
Q 1297 -91 786 396 
Q 275 884 275 1747 
Q 275 2609 786 3096 
Q 1297 3584 2203 3584 
z
" transform="scale(0.015625)"/>
       <path id="DejaVuSans-Bold-76" d="M 97 3500 
L 1216 3500 
L 2088 1081 
L 2956 3500 
L 4078 3500 
L 2700 0 
L 1472 0 
L 97 3500 
z
" transform="scale(0.015625)"/>
       <path id="DejaVuSans-Bold-52" d="M 2297 2597 
Q 2675 2597 2839 2737 
Q 3003 2878 3003 3200 
Q 3003 3519 2839 3656 
Q 2675 3794 2297 3794 
L 1791 3794 
L 1791 2597 
L 2297 2597 
z
M 1791 1766 
L 1791 0 
L 588 0 
L 588 4666 
L 2425 4666 
Q 3347 4666 3776 4356 
Q 4206 4047 4206 3378 
Q 4206 2916 3982 2619 
Q 3759 2322 3309 2181 
Q 3556 2125 3751 1926 
Q 3947 1728 4147 1325 
L 4800 0 
L 3519 0 
L 2950 1159 
Q 2778 1509 2601 1637 
Q 2425 1766 2131 1766 
L 1791 1766 
z
" transform="scale(0.015625)"/>
       <path id="DejaVuSans-Bold-29" d="M 513 -844 
Q 913 -100 1113 609 
Q 1313 1319 1313 2009 
Q 1313 2700 1113 3408 
Q 913 4116 513 4856 
L 1441 4856 
Q 1916 4091 2145 3389 
Q 2375 2688 2375 2003 
Q 2375 1319 2147 623 
Q 1919 -72 1441 -844 
L 513 -844 
z
" transform="scale(0.015625)"/>
      </defs>
      <use xlink:href="#DejaVuSans-Bold-31"/>
      <use xlink:href="#DejaVuSans-Bold-20" x="69.580078"/>
      <use xlink:href="#DejaVuSans-Bold-2d" x="104.394531"/>
      <use xlink:href="#DejaVuSans-Bold-20" x="145.898438"/>
      <use xlink:href="#DejaVuSans-Bold-53" x="180.712891"/>
      <use xlink:href="#DejaVuSans-Bold-70" x="252.734375"/>
      <use xlink:href="#DejaVuSans-Bold-65" x="324.316406"/>
      <use xlink:href="#DejaVuSans-Bold-63" x="392.138672"/>
      <use xlink:href="#DejaVuSans-Bold-69" x="451.416016"/>
      <use xlink:href="#DejaVuSans-Bold-66" x="485.693359"/>
      <use xlink:href="#DejaVuSans-Bold-69" x="529.199219"/>
      <use xlink:href="#DejaVuSans-Bold-63" x="563.476562"/>
      <use xlink:href="#DejaVuSans-Bold-69" x="622.753906"/>
      <use xlink:href="#DejaVuSans-Bold-74" x="657.03125"/>
      <use xlink:href="#DejaVuSans-Bold-79" x="704.833984"/>
      <use xlink:href="#DejaVuSans-Bold-20" x="770.019531"/>
      <use xlink:href="#DejaVuSans-Bold-28" x="804.833984"/>
      <use xlink:href="#DejaVuSans-Bold-46" x="850.537109"/>
      <use xlink:href="#DejaVuSans-Bold-61" x="912.972656"/>
      <use xlink:href="#DejaVuSans-Bold-6c" x="980.453125"/>
      <use xlink:href="#DejaVuSans-Bold-73" x="1014.730469"/>
      <use xlink:href="#DejaVuSans-Bold-65" x="1074.251953"/>
      <use xlink:href="#DejaVuSans-Bold-20" x="1142.074219"/>
      <use xlink:href="#DejaVuSans-Bold-50" x="1176.888672"/>
      <use xlink:href="#DejaVuSans-Bold-6f" x="1250.179688"/>
      <use xlink:href="#DejaVuSans-Bold-73" x="1318.880859"/>
      <use xlink:href="#DejaVuSans-Bold-69" x="1378.402344"/>
      <use xlink:href="#DejaVuSans-Bold-74" x="1412.679688"/>
      <use xlink:href="#DejaVuSans-Bold-69" x="1460.482422"/>
      <use xlink:href="#DejaVuSans-Bold-76" x="1494.759766"/>
      <use xlink:href="#DejaVuSans-Bold-65" x="1559.945312"/>
      <use xlink:href="#DejaVuSans-Bold-20" x="1627.767578"/>
      <use xlink:href="#DejaVuSans-Bold-52" x="1662.582031"/>
      <use xlink:href="#DejaVuSans-Bold-61" x="1739.583984"/>
      <use xlink:href="#DejaVuSans-Bold-74" x="1807.064453"/>
      <use xlink:href="#DejaVuSans-Bold-65" x="1854.867188"/>
      <use xlink:href="#DejaVuSans-Bold-29" x="1922.689453"/>
     </g>
    </g>
   </g>
   <g id="matplotlib.axis_2">
    <g id="ytick_1">
     <g id="line2d_7">
      <defs>
       <path id="m6c7299fe15" d="M 0 0 
L -3.5 0 
" style="stroke: #000000; stroke-width: 0.8"/>
      </defs>
      <g>
       <use xlink:href="#m6c7299fe15" x="63.68" y="520.278462" style="stroke: #000000; stroke-width: 0.8"/>
      </g>
     </g>
     <g id="text_8">
      <!-- 0.0 -->
      <g transform="translate(37.59625 524.837524) scale(0.12 -0.12)">
       <use xlink:href="#DejaVuSans-30"/>
       <use xlink:href="#DejaVuSans-2e" x="63.623047"/>
       <use xlink:href="#DejaVuSans-30" x="95.410156"/>
      </g>
     </g>
    </g>
    <g id="ytick_2">
     <g id="line2d_8">
      <g>
       <use xlink:href="#m6c7299fe15" x="63.68" y="425.863077" style="stroke: #000000; stroke-width: 0.8"/>
      </g>
     </g>
     <g id="text_9">
      <!-- 0.2 -->
      <g transform="translate(37.59625 430.422139) scale(0.12 -0.12)">
       <use xlink:href="#DejaVuSans-30"/>
       <use xlink:href="#DejaVuSans-2e" x="63.623047"/>
       <use xlink:href="#DejaVuSans-32" x="95.410156"/>
      </g>
     </g>
    </g>
    <g id="ytick_3">
     <g id="line2d_9">
      <g>
       <use xlink:href="#m6c7299fe15" x="63.68" y="331.447692" style="stroke: #000000; stroke-width: 0.8"/>
      </g>
     </g>
     <g id="text_10">
      <!-- 0.4 -->
      <g transform="translate(37.59625 336.006755) scale(0.12 -0.12)">
       <use xlink:href="#DejaVuSans-30"/>
       <use xlink:href="#DejaVuSans-2e" x="63.623047"/>
       <use xlink:href="#DejaVuSans-34" x="95.410156"/>
      </g>
     </g>
    </g>
    <g id="ytick_4">
     <g id="line2d_10">
      <g>
       <use xlink:href="#m6c7299fe15" x="63.68" y="237.032308" style="stroke: #000000; stroke-width: 0.8"/>
      </g>
     </g>
     <g id="text_11">
      <!-- 0.6 -->
      <g transform="translate(37.59625 241.59137) scale(0.12 -0.12)">
       <use xlink:href="#DejaVuSans-30"/>
       <use xlink:href="#DejaVuSans-2e" x="63.623047"/>
       <use xlink:href="#DejaVuSans-36" x="95.410156"/>
      </g>
     </g>
    </g>
    <g id="ytick_5">
     <g id="line2d_11">
      <g>
       <use xlink:href="#m6c7299fe15" x="63.68" y="142.616923" style="stroke: #000000; stroke-width: 0.8"/>
      </g>
     </g>
     <g id="text_12">
      <!-- 0.8 -->
      <g transform="translate(37.59625 147.175986) scale(0.12 -0.12)">
       <use xlink:href="#DejaVuSans-30"/>
       <use xlink:href="#DejaVuSans-2e" x="63.623047"/>
       <use xlink:href="#DejaVuSans-38" x="95.410156"/>
      </g>
     </g>
    </g>
    <g id="ytick_6">
     <g id="line2d_12">
      <g>
       <use xlink:href="#m6c7299fe15" x="63.68" y="48.201538" style="stroke: #000000; stroke-width: 0.8"/>
      </g>
     </g>
     <g id="text_13">
      <!-- 1.0 -->
      <g transform="translate(37.59625 52.760601) scale(0.12 -0.12)">
       <use xlink:href="#DejaVuSans-31"/>
       <use xlink:href="#DejaVuSans-2e" x="63.623047"/>
       <use xlink:href="#DejaVuSans-30" x="95.410156"/>
      </g>
     </g>
    </g>
    <g id="text_14">
     <!-- Sensitivity (True Positive Rate) -->
     <g transform="translate(30.575312 406.8625) rotate(-90) scale(0.14 -0.14)">
      <defs>
       <path id="DejaVuSans-Bold-6e" d="M 4056 2131 
L 4056 0 
L 2931 0 
L 2931 347 
L 2931 1631 
Q 2931 2084 2911 2256 
Q 2891 2428 2841 2509 
Q 2775 2619 2662 2680 
Q 2550 2741 2406 2741 
Q 2056 2741 1856 2470 
Q 1656 2200 1656 1722 
L 1656 0 
L 538 0 
L 538 3500 
L 1656 3500 
L 1656 2988 
Q 1909 3294 2193 3439 
Q 2478 3584 2822 3584 
Q 3428 3584 3742 3212 
Q 4056 2841 4056 2131 
z
" transform="scale(0.015625)"/>
       <path id="DejaVuSans-Bold-54" d="M 31 4666 
L 4331 4666 
L 4331 3756 
L 2784 3756 
L 2784 0 
L 1581 0 
L 1581 3756 
L 31 3756 
L 31 4666 
z
" transform="scale(0.015625)"/>
       <path id="DejaVuSans-Bold-72" d="M 3138 2547 
Q 2991 2616 2845 2648 
Q 2700 2681 2553 2681 
Q 2122 2681 1889 2404 
Q 1656 2128 1656 1613 
L 1656 0 
L 538 0 
L 538 3500 
L 1656 3500 
L 1656 2925 
Q 1872 3269 2151 3426 
Q 2431 3584 2822 3584 
Q 2878 3584 2943 3579 
Q 3009 3575 3134 3559 
L 3138 2547 
z
" transform="scale(0.015625)"/>
       <path id="DejaVuSans-Bold-75" d="M 500 1363 
L 500 3500 
L 1625 3500 
L 1625 3150 
Q 1625 2866 1622 2436 
Q 1619 2006 1619 1863 
Q 1619 1441 1641 1255 
Q 1663 1069 1716 984 
Q 1784 875 1895 815 
Q 2006 756 2150 756 
Q 2500 756 2700 1025 
Q 2900 1294 2900 1772 
L 2900 3500 
L 4019 3500 
L 4019 0 
L 2900 0 
L 2900 506 
Q 2647 200 2364 54 
Q 2081 -91 1741 -91 
Q 1134 -91 817 281 
Q 500 653 500 1363 
z
" transform="scale(0.015625)"/>
      </defs>
      <use xlink:href="#DejaVuSans-Bold-53"/>
      <use xlink:href="#DejaVuSans-Bold-65" x="72.021484"/>
      <use xlink:href="#DejaVuSans-Bold-6e" x="139.84375"/>
      <use xlink:href="#DejaVuSans-Bold-73" x="211.035156"/>
      <use xlink:href="#DejaVuSans-Bold-69" x="270.556641"/>
      <use xlink:href="#DejaVuSans-Bold-74" x="304.833984"/>
      <use xlink:href="#DejaVuSans-Bold-69" x="352.636719"/>
      <use xlink:href="#DejaVuSans-Bold-76" x="386.914062"/>
      <use xlink:href="#DejaVuSans-Bold-69" x="452.099609"/>
      <use xlink:href="#DejaVuSans-Bold-74" x="486.376953"/>
      <use xlink:href="#DejaVuSans-Bold-79" x="534.179688"/>
      <use xlink:href="#DejaVuSans-Bold-20" x="599.365234"/>
      <use xlink:href="#DejaVuSans-Bold-28" x="634.179688"/>
      <use xlink:href="#DejaVuSans-Bold-54" x="679.882812"/>
      <use xlink:href="#DejaVuSans-Bold-72" x="737.095703"/>
      <use xlink:href="#DejaVuSans-Bold-75" x="786.412109"/>
      <use xlink:href="#DejaVuSans-Bold-65" x="857.603516"/>
      <use xlink:href="#DejaVuSans-Bold-20" x="925.425781"/>
      <use xlink:href="#DejaVuSans-Bold-50" x="960.240234"/>
      <use xlink:href="#DejaVuSans-Bold-6f" x="1033.53125"/>
      <use xlink:href="#DejaVuSans-Bold-73" x="1102.232422"/>
      <use xlink:href="#DejaVuSans-Bold-69" x="1161.753906"/>
      <use xlink:href="#DejaVuSans-Bold-74" x="1196.03125"/>
      <use xlink:href="#DejaVuSans-Bold-69" x="1243.833984"/>
      <use xlink:href="#DejaVuSans-Bold-76" x="1278.111328"/>
      <use xlink:href="#DejaVuSans-Bold-65" x="1343.296875"/>
      <use xlink:href="#DejaVuSans-Bold-20" x="1411.119141"/>
      <use xlink:href="#DejaVuSans-Bold-52" x="1445.933594"/>
      <use xlink:href="#DejaVuSans-Bold-61" x="1522.935547"/>
      <use xlink:href="#DejaVuSans-Bold-74" x="1590.416016"/>
      <use xlink:href="#DejaVuSans-Bold-65" x="1638.21875"/>
      <use xlink:href="#DejaVuSans-Bold-29" x="1706.041016"/>
     </g>
    </g>
   </g>
   <g id="line2d_13">
    <path d="M 73.121538 520.278462 
L 77.889992 99.584067 
L 82.658446 99.584067 
L 87.4269 99.584067 
L 92.195354 99.584067 
L 96.963807 99.584067 
L 101.732261 99.584067 
L 106.500715 99.584067 
L 111.269169 99.584067 
L 116.037622 99.30082 
L 120.806076 98.781536 
L 125.57453 97.302361 
L 130.342984 97.302361 
L 135.111437 94.16305 
L 139.879891 94.16305 
L 144.648345 88.27153 
L 149.416799 88.27153 
L 154.185253 81.615245 
L 158.953706 81.615245 
L 163.72216 81.615245 
L 168.490614 74.864545 
L 173.259068 74.864545 
L 178.027521 73.825976 
L 182.795975 73.825976 
L 187.564429 73.825976 
L 192.332883 67.287711 
L 197.101336 67.287711 
L 201.86979 67.287711 
L 206.638244 67.287711 
L 211.406698 63.832108 
L 216.175152 63.643277 
L 220.943605 63.643277 
L 225.712059 63.643277 
L 230.480513 57.800014 
L 235.248967 57.800014 
L 240.01742 57.800014 
L 244.785874 57.800014 
L 249.554328 57.800014 
L 254.322782 56.808652 
L 259.091235 56.808652 
L 263.859689 54.07735 
L 268.628143 54.07735 
L 273.396597 54.07735 
L 278.165051 52.736651 
L 282.933504 52.547821 
L 287.701958 52.547821 
L 292.470412 52.547821 
L 297.238866 52.547821 
L 302.007319 52.547821 
L 306.775773 52.547821 
L 311.544227 49.643761 
L 316.312681 49.643761 
L 321.081134 49.643761 
L 325.849588 49.643761 
L 330.618042 49.643761 
L 335.386496 49.580817 
L 340.154949 49.580817 
L 344.923403 49.429753 
L 349.691857 49.429753 
L 354.460311 49.429753 
L 359.228765 49.146506 
L 363.997218 49.146506 
L 368.765672 49.122903 
L 373.534126 49.122903 
L 378.30258 49.122903 
L 383.071033 49.122903 
L 387.839487 48.540674 
L 392.607941 48.540674 
L 397.376395 48.540674 
L 402.144848 48.540674 
L 406.913302 48.540674 
L 411.681756 48.502908 
L 416.45021 48.502908 
L 421.218664 48.502908 
L 425.987117 48.502908 
L 430.755571 48.396691 
L 435.524025 48.396691 
L 440.292479 48.396691 
L 445.060932 48.396691 
L 449.829386 48.396691 
L 454.59784 48.356227 
L 459.366294 48.356227 
L 464.134747 48.356227 
L 468.903201 48.340491 
L 473.671655 48.340491 
L 478.440109 48.340491 
L 483.208563 48.340491 
L 487.977016 48.340491 
L 492.74547 48.340491 
L 497.513924 48.340491 
L 502.282378 48.340491 
L 507.050831 48.340491 
L 511.819285 48.340491 
L 516.587739 48.340491 
L 521.356193 48.340491 
L 526.124646 48.340491 
L 530.8931 48.340491 
L 535.661554 48.340491 
L 540.430008 48.340491 
L 545.198462 48.201538 
" clip-path="url(#pd5a9c55802)" style="fill: none; stroke: #e64b35; stroke-width: 1.5; stroke-linecap: square"/>
   </g>
   <g id="line2d_14">
    <path d="M 73.121538 520.278462 
L 77.889992 117.722631 
L 82.658446 117.722631 
L 87.4269 117.722631 
L 92.195354 117.722631 
L 96.963807 117.722631 
L 101.732261 117.722631 
L 106.500715 117.722631 
L 111.269169 117.722631 
L 116.037622 117.722631 
L 120.806076 117.581008 
L 125.57453 117.045988 
L 130.342984 117.045988 
L 135.111437 115.535341 
L 139.879891 115.535341 
L 144.648345 112.740646 
L 149.416799 112.740646 
L 154.185253 107.705159 
L 158.953706 107.610743 
L 163.72216 107.610743 
L 168.490614 102.23581 
L 173.259068 102.23581 
L 178.027521 101.228713 
L 182.795975 101.228713 
L 187.564429 101.228713 
L 192.332883 95.079911 
L 197.101336 95.079911 
L 201.86979 94.985496 
L 206.638244 94.985496 
L 211.406698 90.831219 
L 216.175152 90.59518 
L 220.943605 90.59518 
L 225.712059 90.59518 
L 230.480513 82.09255 
L 235.248967 82.09255 
L 240.01742 82.09255 
L 244.785874 81.998135 
L 249.554328 81.998135 
L 254.322782 79.425316 
L 259.091235 79.425316 
L 263.859689 74.057127 
L 268.628143 74.057127 
L 273.396597 74.057127 
L 278.165051 70.072798 
L 282.933504 69.128644 
L 287.701958 69.128644 
L 292.470412 69.128644 
L 297.238866 69.128644 
L 302.007319 69.128644 
L 306.775773 69.128644 
L 311.544227 59.805911 
L 316.312681 59.805911 
L 321.081134 59.805911 
L 325.849588 59.805911 
L 330.618042 59.711496 
L 335.386496 59.145004 
L 340.154949 59.145004 
L 344.923403 57.313345 
L 349.691857 57.313345 
L 354.460311 57.313345 
L 359.228765 54.824825 
L 363.997218 54.824825 
L 368.765672 54.305541 
L 373.534126 54.305541 
L 378.30258 54.305541 
L 383.071033 54.305541 
L 387.839487 51.845495 
L 392.607941 51.845495 
L 397.376395 51.845495 
L 402.144848 51.845495 
L 406.913302 51.845495 
L 411.681756 51.203471 
L 416.45021 51.203471 
L 421.218664 51.203471 
L 425.987117 51.203471 
L 430.755571 49.928863 
L 435.524025 49.928863 
L 440.292479 49.897391 
L 445.060932 49.897391 
L 449.829386 49.897391 
L 454.59784 49.19602 
L 459.366294 49.19602 
L 464.134747 49.19602 
L 468.903201 48.92851 
L 473.671655 48.92851 
L 478.440109 48.739679 
L 483.208563 48.739679 
L 487.977016 48.739679 
L 492.74547 48.739679 
L 497.513924 48.739679 
L 502.282378 48.739679 
L 507.050831 48.739679 
L 511.819285 48.739679 
L 516.587739 48.739679 
L 521.356193 48.739679 
L 526.124646 48.739679 
L 530.8931 48.739679 
L 535.661554 48.739679 
L 540.430008 48.739679 
L 545.198462 48.201538 
" clip-path="url(#pd5a9c55802)" style="fill: none; stroke: #4dbbd5; stroke-width: 1.5; stroke-linecap: square"/>
   </g>
   <g id="line2d_15">
    <path d="M 73.121538 520.278462 
L 77.889992 99.954494 
L 82.658446 99.954494 
L 87.4269 99.954494 
L 92.195354 99.954494 
L 96.963807 99.954494 
L 101.732261 99.954494 
L 106.500715 99.954494 
L 111.269169 99.954494 
L 116.037622 99.954494 
L 120.806076 99.576832 
L 125.57453 98.31796 
L 130.342984 98.31796 
L 135.111437 95.013422 
L 139.879891 95.013422 
L 144.648345 88.819773 
L 149.416799 88.819773 
L 154.185253 81.030503 
L 158.953706 80.747257 
L 163.72216 80.747257 
L 168.490614 73.91563 
L 173.259068 73.91563 
L 178.027521 72.625286 
L 182.795975 72.625286 
L 187.564429 72.625286 
L 192.332883 66.287653 
L 197.101336 66.287653 
L 201.86979 66.287653 
L 206.638244 66.287653 
L 211.406698 62.850933 
L 216.175152 62.662103 
L 220.943605 62.662103 
L 225.712059 62.662103 
L 230.480513 57.165029 
L 235.248967 57.165029 
L 240.01742 57.165029 
L 244.785874 57.165029 
L 249.554328 57.165029 
L 254.322782 56.291687 
L 259.091235 56.291687 
L 263.859689 53.668288 
L 268.628143 53.668288 
L 273.396597 53.668288 
L 278.165051 52.440888 
L 282.933504 52.252057 
L 287.701958 52.157642 
L 292.470412 52.157642 
L 297.238866 52.157642 
L 302.007319 52.157642 
L 306.775773 52.157642 
L 311.544227 49.584823 
L 316.312681 49.584823 
L 321.081134 49.584823 
L 325.849588 49.584823 
L 330.618042 49.584823 
L 335.386496 49.553351 
L 340.154949 49.553351 
L 344.923403 49.383403 
L 349.691857 49.383403 
L 354.460311 49.383403 
L 359.228765 48.897838 
L 363.997218 48.897838 
L 368.765672 48.874234 
L 373.534126 48.874234 
L 378.30258 48.874234 
L 383.071033 48.874234 
L 387.839487 48.538535 
L 392.607941 48.538535 
L 397.376395 48.538535 
L 402.144848 48.538535 
L 406.913302 48.538535 
L 411.681756 48.463003 
L 416.45021 48.463003 
L 421.218664 48.463003 
L 425.987117 48.463003 
L 430.755571 48.309578 
L 435.524025 48.309578 
L 440.292479 48.309578 
L 445.060932 48.309578 
L 449.829386 48.309578 
L 454.59784 48.282602 
L 459.366294 48.282602 
L 464.134747 48.282602 
L 468.903201 48.282602 
L 473.671655 48.282602 
L 478.440109 48.282602 
L 483.208563 48.282602 
L 487.977016 48.282602 
L 492.74547 48.282602 
L 497.513924 48.282602 
L 502.282378 48.282602 
L 507.050831 48.282602 
L 511.819285 48.282602 
L 516.587739 48.282602 
L 521.356193 48.282602 
L 526.124646 48.282602 
L 530.8931 48.282602 
L 535.661554 48.282602 
L 540.430008 48.282602 
L 545.198462 48.201538 
" clip-path="url(#pd5a9c55802)" style="fill: none; stroke: #00a087; stroke-width: 1.5; stroke-linecap: square"/>
   </g>
   <g id="line2d_16">
    <path d="M 73.121538 520.278462 
L 77.889992 241.003977 
L 82.658446 241.003977 
L 87.4269 241.003977 
L 92.195354 241.003977 
L 96.963807 241.003977 
L 101.732261 241.003977 
L 106.500715 241.003977 
L 111.269169 241.003977 
L 116.037622 240.909561 
L 120.806076 239.870992 
L 125.57453 237.227361 
L 130.342984 237.227361 
L 135.111437 230.358642 
L 139.879891 230.358642 
L 144.648345 217.952461 
L 149.416799 217.952461 
L 154.185253 200.973427 
L 158.953706 200.690181 
L 163.72216 200.690181 
L 168.490614 184.03261 
L 173.259068 184.03261 
L 178.027521 181.168676 
L 182.795975 181.168676 
L 187.564429 181.168676 
L 192.332883 161.341446 
L 197.101336 161.341446 
L 201.86979 161.24703 
L 206.638244 161.24703 
L 211.406698 148.406538 
L 216.175152 146.848684 
L 220.943605 146.848684 
L 225.712059 146.848684 
L 230.480513 124.115557 
L 235.248967 124.115557 
L 240.01742 124.115557 
L 244.785874 124.115557 
L 249.554328 124.115557 
L 254.322782 118.757484 
L 259.091235 118.757484 
L 263.859689 105.687698 
L 268.628143 105.687698 
L 273.396597 105.687698 
L 278.165051 97.246962 
L 282.933504 95.075408 
L 287.701958 94.980993 
L 292.470412 94.980993 
L 297.238866 94.980993 
L 302.007319 94.980993 
L 306.775773 94.980993 
L 311.544227 73.227688 
L 316.312681 73.227688 
L 321.081134 73.227688 
L 325.849588 73.227688 
L 330.618042 73.133273 
L 335.386496 72.189119 
L 340.154949 72.189119 
L 344.923403 66.939624 
L 349.691857 66.939624 
L 354.460311 66.939624 
L 359.228765 61.173541 
L 363.997218 61.173541 
L 368.765672 59.56848 
L 373.534126 59.56848 
L 378.30258 59.56848 
L 383.071033 59.56848 
L 387.839487 54.994579 
L 392.607941 54.994579 
L 397.376395 54.994579 
L 402.144848 54.994579 
L 406.913302 54.994579 
L 411.681756 54.14484 
L 416.45021 54.14484 
L 421.218664 54.14484 
L 425.987117 54.14484 
L 430.755571 51.701842 
L 435.524025 51.701842 
L 440.292479 51.575955 
L 445.060932 51.575955 
L 449.829386 51.575955 
L 454.59784 50.51041 
L 459.366294 50.51041 
L 464.134747 50.51041 
L 468.903201 49.833767 
L 473.671655 49.833767 
L 478.440109 49.512754 
L 483.208563 49.512754 
L 487.977016 49.512754 
L 492.74547 49.512754 
L 497.513924 49.512754 
L 502.282378 49.512754 
L 507.050831 49.512754 
L 511.819285 49.512754 
L 516.587739 49.512754 
L 521.356193 49.512754 
L 526.124646 49.512754 
L 530.8931 49.512754 
L 535.661554 49.512754 
L 540.430008 49.512754 
L 545.198462 48.201538 
" clip-path="url(#pd5a9c55802)" style="fill: none; stroke: #3c5488; stroke-width: 1.5; stroke-linecap: square"/>
   </g>
   <g id="line2d_17">
    <path d="M 73.121538 520.278462 
L 77.889992 119.954417 
L 82.658446 119.954417 
L 87.4269 119.954417 
L 92.195354 119.954417 
L 96.963807 119.954417 
L 101.732261 119.954417 
L 106.500715 119.954417 
L 111.269169 119.954417 
L 116.037622 119.954417 
L 120.806076 119.860002 
L 125.57453 119.387925 
L 130.342984 119.387925 
L 135.111437 117.94809 
L 139.879891 117.94809 
L 144.648345 114.398072 
L 149.416799 114.398072 
L 154.185253 109.519944 
L 158.953706 109.331113 
L 163.72216 109.331113 
L 168.490614 103.95618 
L 173.259068 103.95618 
L 178.027521 103.232329 
L 182.795975 103.232329 
L 187.564429 103.232329 
L 192.332883 96.36361 
L 197.101336 96.36361 
L 201.86979 96.174779 
L 206.638244 96.174779 
L 211.406698 91.775022 
L 216.175152 91.350153 
L 220.943605 91.350153 
L 225.712059 91.350153 
L 230.480513 82.789824 
L 235.248967 82.789824 
L 240.01742 82.789824 
L 244.785874 82.789824 
L 249.554328 82.789824 
L 254.322782 80.405836 
L 259.091235 80.405836 
L 263.859689 74.619522 
L 268.628143 74.619522 
L 273.396597 74.619522 
L 278.165051 70.616309 
L 282.933504 69.672156 
L 287.701958 69.672156 
L 292.470412 69.672156 
L 297.238866 69.672156 
L 302.007319 69.672156 
L 306.775773 69.672156 
L 311.544227 60.473737 
L 316.312681 60.473737 
L 321.081134 60.473737 
L 325.849588 60.473737 
L 330.618042 60.473737 
L 335.386496 59.907244 
L 340.154949 59.907244 
L 344.923403 57.716807 
L 349.691857 57.716807 
L 354.460311 57.716807 
L 359.228765 55.106896 
L 363.997218 55.106896 
L 368.765672 54.540404 
L 373.534126 54.540404 
L 378.30258 54.540404 
L 383.071033 54.540404 
L 387.839487 51.597791 
L 392.607941 51.597791 
L 397.376395 51.597791 
L 402.144848 51.597791 
L 406.913302 51.597791 
L 411.681756 51.201247 
L 416.45021 51.201247 
L 421.218664 51.201247 
L 425.987117 51.201247 
L 430.755571 49.773214 
L 435.524025 49.773214 
L 440.292479 49.773214 
L 445.060932 49.773214 
L 449.829386 49.773214 
L 454.59784 49.314625 
L 459.366294 49.314625 
L 464.134747 49.314625 
L 468.903201 48.984171 
L 473.671655 48.984171 
L 478.440109 48.833107 
L 483.208563 48.833107 
L 487.977016 48.833107 
L 492.74547 48.801635 
L 497.513924 48.801635 
L 502.282378 48.801635 
L 507.050831 48.801635 
L 511.819285 48.801635 
L 516.587739 48.801635 
L 521.356193 48.801635 
L 526.124646 48.801635 
L 530.8931 48.801635 
L 535.661554 48.801635 
L 540.430008 48.801635 
L 545.198462 48.201538 
" clip-path="url(#pd5a9c55802)" style="fill: none; stroke: #f39b7f; stroke-width: 1.5; stroke-linecap: square"/>
   </g>
   <g id="line2d_18">
    <path d="M 73.121538 520.278462 
L 77.889992 150.974343 
L 82.658446 150.974343 
L 87.4269 150.974343 
L 92.195354 150.974343 
L 96.963807 150.974343 
L 101.732261 150.974343 
L 106.500715 150.974343 
L 111.269169 150.974343 
L 116.037622 150.974343 
L 120.806076 149.935774 
L 125.57453 147.134784 
L 130.342984 147.134784 
L 135.111437 139.8648 
L 139.879891 139.8648 
L 144.648345 127.855163 
L 149.416799 127.855163 
L 154.185253 113.425345 
L 158.953706 113.142099 
L 163.72216 113.142099 
L 168.490614 99.849761 
L 173.259068 99.849761 
L 178.027521 97.111715 
L 182.795975 97.111715 
L 187.564429 97.111715 
L 192.332883 84.578073 
L 197.101336 84.578073 
L 201.86979 84.578073 
L 206.638244 84.578073 
L 211.406698 77.44027 
L 216.175152 77.015401 
L 220.943605 77.015401 
L 225.712059 77.015401 
L 230.480513 65.989782 
L 235.248967 65.989782 
L 240.01742 65.989782 
L 244.785874 65.989782 
L 249.554328 65.989782 
L 254.322782 64.030663 
L 259.091235 64.030663 
L 263.859689 58.743401 
L 268.628143 58.743401 
L 273.396597 58.743401 
L 278.165051 56.34525 
L 282.933504 55.936117 
L 287.701958 55.841702 
L 292.470412 55.841702 
L 297.238866 55.841702 
L 302.007319 55.841702 
L 306.775773 55.841702 
L 311.544227 50.921086 
L 316.312681 50.921086 
L 321.081134 50.921086 
L 325.849588 50.921086 
L 330.618042 50.921086 
L 335.386496 50.858143 
L 340.154949 50.858143 
L 344.923403 50.480481 
L 349.691857 50.480481 
L 354.460311 50.480481 
L 359.228765 49.630743 
L 363.997218 49.630743 
L 368.765672 49.559931 
L 373.534126 49.559931 
L 378.30258 49.559931 
L 383.071033 49.559931 
L 387.839487 48.846571 
L 392.607941 48.846571 
L 397.376395 48.846571 
L 402.144848 48.846571 
L 406.913302 48.846571 
L 411.681756 48.733272 
L 416.45021 48.733272 
L 421.218664 48.733272 
L 425.987117 48.733272 
L 430.755571 48.41462 
L 435.524025 48.41462 
L 440.292479 48.41462 
L 445.060932 48.41462 
L 449.829386 48.41462 
L 454.59784 48.374156 
L 459.366294 48.374156 
L 464.134747 48.374156 
L 468.903201 48.374156 
L 473.671655 48.374156 
L 478.440109 48.374156 
L 483.208563 48.374156 
L 487.977016 48.374156 
L 492.74547 48.374156 
L 497.513924 48.374156 
L 502.282378 48.374156 
L 507.050831 48.374156 
L 511.819285 48.374156 
L 516.587739 48.374156 
L 521.356193 48.374156 
L 526.124646 48.374156 
L 530.8931 48.374156 
L 535.661554 48.374156 
L 540.430008 48.374156 
L 545.198462 48.201538 
" clip-path="url(#pd5a9c55802)" style="fill: none; stroke: #8491b4; stroke-width: 1.5; stroke-linecap: square"/>
   </g>
   <g id="line2d_19">
    <path d="M 73.121538 520.278462 
L 77.889992 48.201538 
L 82.658446 48.201538 
L 87.4269 48.201538 
L 92.195354 48.201538 
L 96.963807 48.201538 
L 101.732261 48.201538 
L 106.500715 48.201538 
L 111.269169 48.201538 
L 116.037622 48.201538 
L 120.806076 48.201538 
L 125.57453 48.201538 
L 130.342984 48.201538 
L 135.111437 48.201538 
L 139.879891 48.201538 
L 144.648345 48.201538 
L 149.416799 48.201538 
L 154.185253 48.201538 
L 158.953706 48.201538 
L 163.72216 48.201538 
L 168.490614 48.201538 
L 173.259068 48.201538 
L 178.027521 48.201538 
L 182.795975 48.201538 
L 187.564429 48.201538 
L 192.332883 48.201538 
L 197.101336 48.201538 
L 201.86979 48.201538 
L 206.638244 48.201538 
L 211.406698 48.201538 
L 216.175152 48.201538 
L 220.943605 48.201538 
L 225.712059 48.201538 
L 230.480513 48.201538 
L 235.248967 48.201538 
L 240.01742 48.201538 
L 244.785874 48.201538 
L 249.554328 48.201538 
L 254.322782 48.201538 
L 259.091235 48.201538 
L 263.859689 48.201538 
L 268.628143 48.201538 
L 273.396597 48.201538 
L 278.165051 48.201538 
L 282.933504 48.201538 
L 287.701958 48.201538 
L 292.470412 48.201538 
L 297.238866 48.201538 
L 302.007319 48.201538 
L 306.775773 48.201538 
L 311.544227 48.201538 
L 316.312681 48.201538 
L 321.081134 48.201538 
L 325.849588 48.201538 
L 330.618042 48.201538 
L 335.386496 48.201538 
L 340.154949 48.201538 
L 344.923403 48.201538 
L 349.691857 48.201538 
L 354.460311 48.201538 
L 359.228765 48.201538 
L 363.997218 48.201538 
L 368.765672 48.201538 
L 373.534126 48.201538 
L 378.30258 48.201538 
L 383.071033 48.201538 
L 387.839487 48.201538 
L 392.607941 48.201538 
L 397.376395 48.201538 
L 402.144848 48.201538 
L 406.913302 48.201538 
L 411.681756 48.201538 
L 416.45021 48.201538 
L 421.218664 48.201538 
L 425.987117 48.201538 
L 430.755571 48.201538 
L 435.524025 48.201538 
L 440.292479 48.201538 
L 445.060932 48.201538 
L 449.829386 48.201538 
L 454.59784 48.201538 
L 459.366294 48.201538 
L 464.134747 48.201538 
L 468.903201 48.201538 
L 473.671655 48.201538 
L 478.440109 48.201538 
L 483.208563 48.201538 
L 487.977016 48.201538 
L 492.74547 48.201538 
L 497.513924 48.201538 
L 502.282378 48.201538 
L 507.050831 48.201538 
L 511.819285 48.201538 
L 516.587739 48.201538 
L 521.356193 48.201538 
L 526.124646 48.201538 
L 530.8931 48.201538 
L 535.661554 48.201538 
L 540.430008 48.201538 
L 545.198462 48.201538 
" clip-path="url(#pd5a9c55802)" style="fill: none; stroke: #91d1c2; stroke-width: 1.5; stroke-linecap: square"/>
   </g>
   <g id="line2d_20">
    <path d="M 73.121538 520.278462 
L 77.889992 48.201538 
L 82.658446 48.201538 
L 87.4269 48.201538 
L 92.195354 48.201538 
L 96.963807 48.201538 
L 101.732261 48.201538 
L 106.500715 48.201538 
L 111.269169 48.201538 
L 116.037622 48.201538 
L 120.806076 48.201538 
L 125.57453 48.201538 
L 130.342984 48.201538 
L 135.111437 48.201538 
L 139.879891 48.201538 
L 144.648345 48.201538 
L 149.416799 48.201538 
L 154.185253 48.201538 
L 158.953706 48.201538 
L 163.72216 48.201538 
L 168.490614 48.201538 
L 173.259068 48.201538 
L 178.027521 48.201538 
L 182.795975 48.201538 
L 187.564429 48.201538 
L 192.332883 48.201538 
L 197.101336 48.201538 
L 201.86979 48.201538 
L 206.638244 48.201538 
L 211.406698 48.201538 
L 216.175152 48.201538 
L 220.943605 48.201538 
L 225.712059 48.201538 
L 230.480513 48.201538 
L 235.248967 48.201538 
L 240.01742 48.201538 
L 244.785874 48.201538 
L 249.554328 48.201538 
L 254.322782 48.201538 
L 259.091235 48.201538 
L 263.859689 48.201538 
L 268.628143 48.201538 
L 273.396597 48.201538 
L 278.165051 48.201538 
L 282.933504 48.201538 
L 287.701958 48.201538 
L 292.470412 48.201538 
L 297.238866 48.201538 
L 302.007319 48.201538 
L 306.775773 48.201538 
L 311.544227 48.201538 
L 316.312681 48.201538 
L 321.081134 48.201538 
L 325.849588 48.201538 
L 330.618042 48.201538 
L 335.386496 48.201538 
L 340.154949 48.201538 
L 344.923403 48.201538 
L 349.691857 48.201538 
L 354.460311 48.201538 
L 359.228765 48.201538 
L 363.997218 48.201538 
L 368.765672 48.201538 
L 373.534126 48.201538 
L 378.30258 48.201538 
L 383.071033 48.201538 
L 387.839487 48.201538 
L 392.607941 48.201538 
L 397.376395 48.201538 
L 402.144848 48.201538 
L 406.913302 48.201538 
L 411.681756 48.201538 
L 416.45021 48.201538 
L 421.218664 48.201538 
L 425.987117 48.201538 
L 430.755571 48.201538 
L 435.524025 48.201538 
L 440.292479 48.201538 
L 445.060932 48.201538 
L 449.829386 48.201538 
L 454.59784 48.201538 
L 459.366294 48.201538 
L 464.134747 48.201538 
L 468.903201 48.201538 
L 473.671655 48.201538 
L 478.440109 48.201538 
L 483.208563 48.201538 
L 487.977016 48.201538 
L 492.74547 48.201538 
L 497.513924 48.201538 
L 502.282378 48.201538 
L 507.050831 48.201538 
L 511.819285 48.201538 
L 516.587739 48.201538 
L 521.356193 48.201538 
L 526.124646 48.201538 
L 530.8931 48.201538 
L 535.661554 48.201538 
L 540.430008 48.201538 
L 545.198462 48.201538 
" clip-path="url(#pd5a9c55802)" style="fill: none; stroke: #dc0000; stroke-width: 1.5; stroke-linecap: square"/>
   </g>
   <g id="line2d_21">
    <path d="M 73.121538 520.278462 
L 77.889992 200.498448 
L 82.658446 200.498448 
L 87.4269 200.498448 
L 92.195354 200.498448 
L 96.963807 200.498448 
L 101.732261 200.498448 
L 106.500715 200.498448 
L 111.269169 200.498448 
L 116.037622 200.120787 
L 120.806076 198.704556 
L 125.57453 194.015259 
L 130.342984 194.015259 
L 135.111437 184.432097 
L 139.879891 184.432097 
L 144.648345 167.361796 
L 149.416799 167.361796 
L 154.185253 147.754867 
L 158.953706 147.566037 
L 163.72216 147.566037 
L 168.490614 126.7407 
L 173.259068 126.7407 
L 178.027521 123.089972 
L 182.795975 123.089972 
L 187.564429 123.089972 
L 192.332883 103.427968 
L 197.101336 103.427968 
L 201.86979 103.427968 
L 206.638244 103.427968 
L 211.406698 93.325522 
L 216.175152 92.853445 
L 220.943605 92.853445 
L 225.712059 92.853445 
L 230.480513 76.603508 
L 235.248967 76.603508 
L 240.01742 76.603508 
L 244.785874 76.603508 
L 249.554328 76.603508 
L 254.322782 73.535008 
L 259.091235 73.535008 
L 263.859689 65.374822 
L 268.628143 65.374822 
L 273.396597 65.374822 
L 278.165051 61.56044 
L 282.933504 60.962476 
L 287.701958 60.962476 
L 292.470412 60.962476 
L 297.238866 60.962476 
L 302.007319 60.962476 
L 306.775773 60.962476 
L 311.544227 52.581537 
L 316.312681 52.581537 
L 321.081134 52.581537 
L 325.849588 52.581537 
L 330.618042 52.487122 
L 335.386496 52.392706 
L 340.154949 52.392706 
L 344.923403 51.769565 
L 349.691857 51.769565 
L 354.460311 51.769565 
L 359.228765 50.906338 
L 363.997218 50.906338 
L 368.765672 50.859131 
L 373.534126 50.859131 
L 378.30258 50.859131 
L 383.071033 50.859131 
L 387.839487 49.280296 
L 392.607941 49.280296 
L 397.376395 49.280296 
L 402.144848 49.280296 
L 406.913302 49.280296 
L 411.681756 49.18588 
L 416.45021 49.18588 
L 421.218664 49.18588 
L 425.987117 49.18588 
L 430.755571 48.867228 
L 435.524025 48.867228 
L 440.292479 48.867228 
L 445.060932 48.867228 
L 449.829386 48.867228 
L 454.59784 48.705373 
L 459.366294 48.705373 
L 464.134747 48.705373 
L 468.903201 48.626694 
L 473.671655 48.626694 
L 478.440109 48.626694 
L 483.208563 48.626694 
L 487.977016 48.626694 
L 492.74547 48.626694 
L 497.513924 48.626694 
L 502.282378 48.626694 
L 507.050831 48.626694 
L 511.819285 48.626694 
L 516.587739 48.626694 
L 521.356193 48.626694 
L 526.124646 48.626694 
L 530.8931 48.626694 
L 535.661554 48.626694 
L 540.430008 48.626694 
L 545.198462 48.201538 
" clip-path="url(#pd5a9c55802)" style="fill: none; stroke: #7e6148; stroke-width: 1.5; stroke-linecap: square"/>
   </g>
   <g id="line2d_22">
    <path d="M 73.121538 520.278462 
L 77.889992 240.215179 
L 82.658446 240.215179 
L 87.4269 240.215179 
L 92.195354 240.215179 
L 96.963807 240.215179 
L 101.732261 240.215179 
L 106.500715 240.215179 
L 111.269169 240.215179 
L 116.037622 239.931933 
L 120.806076 239.271025 
L 125.57453 236.72181 
L 130.342984 236.72181 
L 135.111437 230.089129 
L 139.879891 230.089129 
L 144.648345 217.607415 
L 149.416799 217.607415 
L 154.185253 201.006043 
L 158.953706 200.911628 
L 163.72216 200.911628 
L 168.490614 183.181768 
L 173.259068 183.181768 
L 178.027521 180.286362 
L 182.795975 180.286362 
L 187.564429 180.286362 
L 192.332883 161.249861 
L 197.101336 161.249861 
L 201.86979 161.155445 
L 206.638244 161.155445 
L 211.406698 148.503784 
L 216.175152 147.323591 
L 220.943605 147.323591 
L 225.712059 147.323591 
L 230.480513 125.151712 
L 235.248967 125.151712 
L 240.01742 125.151712 
L 244.785874 125.151712 
L 249.554328 125.151712 
L 254.322782 118.471823 
L 259.091235 118.471823 
L 263.859689 104.693921 
L 268.628143 104.693921 
L 273.396597 104.693921 
L 278.165051 95.686693 
L 282.933504 93.294837 
L 287.701958 93.200422 
L 292.470412 93.200422 
L 297.238866 93.200422 
L 302.007319 93.200422 
L 306.775773 93.200422 
L 311.544227 72.043508 
L 316.312681 72.043508 
L 321.081134 72.043508 
L 325.849588 72.043508 
L 330.618042 72.043508 
L 335.386496 71.288184 
L 340.154949 71.288184 
L 344.923403 67.624868 
L 349.691857 67.624868 
L 354.460311 67.624868 
L 359.228765 62.492717 
L 363.997218 62.492717 
L 368.765672 61.265317 
L 373.534126 61.170902 
L 378.30258 61.170902 
L 383.071033 61.170902 
L 387.839487 55.427299 
L 392.607941 55.427299 
L 397.376395 55.427299 
L 402.144848 55.427299 
L 406.913302 55.380091 
L 411.681756 54.398171 
L 416.45021 54.398171 
L 421.218664 54.398171 
L 425.987117 54.398171 
L 430.755571 52.037787 
L 435.524025 52.037787 
L 440.292479 51.817484 
L 445.060932 51.817484 
L 449.829386 51.817484 
L 454.59784 50.306838 
L 459.366294 50.306838 
L 464.134747 50.306838 
L 468.903201 49.567251 
L 473.671655 49.567251 
L 478.440109 49.265122 
L 483.208563 49.265122 
L 487.977016 49.147102 
L 492.74547 49.147102 
L 497.513924 49.147102 
L 502.282378 49.147102 
L 507.050831 49.147102 
L 511.819285 49.147102 
L 516.587739 49.147102 
L 521.356193 49.147102 
L 526.124646 49.147102 
L 530.8931 49.147102 
L 535.661554 49.147102 
L 540.430008 49.147102 
L 545.198462 48.201538 
" clip-path="url(#pd5a9c55802)" style="fill: none; stroke: #b09c85; stroke-width: 1.5; stroke-linecap: square"/>
   </g>
   <g id="line2d_23">
    <path d="M 73.121538 520.278462 
L 545.198462 48.201538 
" clip-path="url(#pd5a9c55802)" style="fill: none; stroke-dasharray: 3.7,1.6; stroke-dashoffset: 0; stroke: #999999"/>
   </g>
   <g id="patch_3">
    <path d="M 63.68 529.72 
L 63.68 38.76 
" style="fill: none; stroke: #000000; stroke-width: 1.5; stroke-linejoin: miter; stroke-linecap: square"/>
   </g>
   <g id="patch_4">
    <path d="M 554.64 529.72 
L 554.64 38.76 
" style="fill: none; stroke: #000000; stroke-width: 1.5; stroke-linejoin: miter; stroke-linecap: square"/>
   </g>
   <g id="patch_5">
    <path d="M 63.68 529.72 
L 554.64 529.72 
" style="fill: none; stroke: #000000; stroke-width: 1.5; stroke-linejoin: miter; stroke-linecap: square"/>
   </g>
   <g id="patch_6">
    <path d="M 63.68 38.76 
L 554.64 38.76 
" style="fill: none; stroke: #000000; stroke-width: 1.5; stroke-linejoin: miter; stroke-linecap: square"/>
   </g>
   <g id="text_15">
    <!-- ROC Curve (GSE229571 Validation - Bootstrap Smoothed) -->
    <g transform="translate(49.795 23.76) scale(0.16 -0.16)">
     <defs>
      <path id="DejaVuSans-Bold-4f" d="M 2719 3878 
Q 2169 3878 1866 3472 
Q 1563 3066 1563 2328 
Q 1563 1594 1866 1187 
Q 2169 781 2719 781 
Q 3272 781 3575 1187 
Q 3878 1594 3878 2328 
Q 3878 3066 3575 3472 
Q 3272 3878 2719 3878 
z
M 2719 4750 
Q 3844 4750 4481 4106 
Q 5119 3463 5119 2328 
Q 5119 1197 4481 553 
Q 3844 -91 2719 -91 
Q 1597 -91 958 553 
Q 319 1197 319 2328 
Q 319 3463 958 4106 
Q 1597 4750 2719 4750 
z
" transform="scale(0.015625)"/>
      <path id="DejaVuSans-Bold-43" d="M 4288 256 
Q 3956 84 3597 -3 
Q 3238 -91 2847 -91 
Q 1681 -91 1000 561 
Q 319 1213 319 2328 
Q 319 3447 1000 4098 
Q 1681 4750 2847 4750 
Q 3238 4750 3597 4662 
Q 3956 4575 4288 4403 
L 4288 3438 
Q 3953 3666 3628 3772 
Q 3303 3878 2944 3878 
Q 2300 3878 1931 3465 
Q 1563 3053 1563 2328 
Q 1563 1606 1931 1193 
Q 2300 781 2944 781 
Q 3303 781 3628 887 
Q 3953 994 4288 1222 
L 4288 256 
z
" transform="scale(0.015625)"/>
      <path id="DejaVuSans-Bold-47" d="M 4781 347 
Q 4331 128 3847 18 
Q 3363 -91 2847 -91 
Q 1681 -91 1000 561 
Q 319 1213 319 2328 
Q 319 3456 1012 4103 
Q 1706 4750 2913 4750 
Q 3378 4750 3804 4662 
Q 4231 4575 4609 4403 
L 4609 3438 
Q 4219 3659 3833 3768 
Q 3447 3878 3059 3878 
Q 2341 3878 1952 3476 
Q 1563 3075 1563 2328 
Q 1563 1588 1938 1184 
Q 2313 781 3003 781 
Q 3191 781 3352 804 
Q 3513 828 3641 878 
L 3641 1784 
L 2906 1784 
L 2906 2591 
L 4781 2591 
L 4781 347 
z
" transform="scale(0.015625)"/>
      <path id="DejaVuSans-Bold-45" d="M 588 4666 
L 3834 4666 
L 3834 3756 
L 1791 3756 
L 1791 2888 
L 3713 2888 
L 3713 1978 
L 1791 1978 
L 1791 909 
L 3903 909 
L 3903 0 
L 588 0 
L 588 4666 
z
" transform="scale(0.015625)"/>
      <path id="DejaVuSans-Bold-32" d="M 1844 884 
L 3897 884 
L 3897 0 
L 506 0 
L 506 884 
L 2209 2388 
Q 2438 2594 2547 2791 
Q 2656 2988 2656 3200 
Q 2656 3528 2436 3728 
Q 2216 3928 1850 3928 
Q 1569 3928 1234 3808 
Q 900 3688 519 3450 
L 519 4475 
Q 925 4609 1322 4679 
Q 1719 4750 2100 4750 
Q 2938 4750 3402 4381 
Q 3866 4013 3866 3353 
Q 3866 2972 3669 2642 
Q 3472 2313 2841 1759 
L 1844 884 
z
" transform="scale(0.015625)"/>
      <path id="DejaVuSans-Bold-39" d="M 641 103 
L 641 966 
Q 928 831 1190 764 
Q 1453 697 1709 697 
Q 2247 697 2547 995 
Q 2847 1294 2900 1881 
Q 2688 1725 2447 1647 
Q 2206 1569 1925 1569 
Q 1209 1569 770 1986 
Q 331 2403 331 3084 
Q 331 3838 820 4291 
Q 1309 4744 2131 4744 
Q 3044 4744 3544 4128 
Q 4044 3513 4044 2388 
Q 4044 1231 3459 570 
Q 2875 -91 1856 -91 
Q 1528 -91 1228 -42 
Q 928 6 641 103 
z
M 2125 2350 
Q 2441 2350 2600 2554 
Q 2759 2759 2759 3169 
Q 2759 3575 2600 3781 
Q 2441 3988 2125 3988 
Q 1809 3988 1650 3781 
Q 1491 3575 1491 3169 
Q 1491 2759 1650 2554 
Q 1809 2350 2125 2350 
z
" transform="scale(0.015625)"/>
      <path id="DejaVuSans-Bold-35" d="M 678 4666 
L 3669 4666 
L 3669 3781 
L 1638 3781 
L 1638 3059 
Q 1775 3097 1914 3117 
Q 2053 3138 2203 3138 
Q 3056 3138 3531 2711 
Q 4006 2284 4006 1522 
Q 4006 766 3489 337 
Q 2972 -91 2053 -91 
Q 1656 -91 1267 -14 
Q 878 63 494 219 
L 494 1166 
Q 875 947 1217 837 
Q 1559 728 1863 728 
Q 2300 728 2551 942 
Q 2803 1156 2803 1522 
Q 2803 1891 2551 2103 
Q 2300 2316 1863 2316 
Q 1603 2316 1309 2248 
Q 1016 2181 678 2041 
L 678 4666 
z
" transform="scale(0.015625)"/>
      <path id="DejaVuSans-Bold-37" d="M 428 4666 
L 3944 4666 
L 3944 3988 
L 2125 0 
L 953 0 
L 2675 3781 
L 428 3781 
L 428 4666 
z
" transform="scale(0.015625)"/>
      <path id="DejaVuSans-Bold-56" d="M 31 4666 
L 1241 4666 
L 2478 1222 
L 3713 4666 
L 4922 4666 
L 3194 0 
L 1759 0 
L 31 4666 
z
" transform="scale(0.015625)"/>
      <path id="DejaVuSans-Bold-64" d="M 2919 2988 
L 2919 4863 
L 4044 4863 
L 4044 0 
L 2919 0 
L 2919 506 
Q 2688 197 2409 53 
Q 2131 -91 1766 -91 
Q 1119 -91 703 423 
Q 288 938 288 1747 
Q 288 2556 703 3070 
Q 1119 3584 1766 3584 
Q 2128 3584 2408 3439 
Q 2688 3294 2919 2988 
z
M 2181 722 
Q 2541 722 2730 984 
Q 2919 1247 2919 1747 
Q 2919 2247 2730 2509 
Q 2541 2772 2181 2772 
Q 1825 2772 1636 2509 
Q 1447 2247 1447 1747 
Q 1447 1247 1636 984 
Q 1825 722 2181 722 
z
" transform="scale(0.015625)"/>
      <path id="DejaVuSans-Bold-42" d="M 2456 2859 
Q 2741 2859 2887 2984 
Q 3034 3109 3034 3353 
Q 3034 3594 2887 3720 
Q 2741 3847 2456 3847 
L 1791 3847 
L 1791 2859 
L 2456 2859 
z
M 2497 819 
Q 2859 819 3042 972 
Q 3225 1125 3225 1434 
Q 3225 1738 3044 1889 
Q 2863 2041 2497 2041 
L 1791 2041 
L 1791 819 
L 2497 819 
z
M 3616 2497 
Q 4003 2384 4215 2081 
Q 4428 1778 4428 1338 
Q 4428 663 3972 331 
Q 3516 0 2584 0 
L 588 0 
L 588 4666 
L 2394 4666 
Q 3366 4666 3802 4372 
Q 4238 4078 4238 3431 
Q 4238 3091 4078 2852 
Q 3919 2613 3616 2497 
z
" transform="scale(0.015625)"/>
      <path id="DejaVuSans-Bold-6d" d="M 3781 2919 
Q 3994 3244 4286 3414 
Q 4578 3584 4928 3584 
Q 5531 3584 5847 3212 
Q 6163 2841 6163 2131 
L 6163 0 
L 5038 0 
L 5038 1825 
Q 5041 1866 5042 1909 
Q 5044 1953 5044 2034 
Q 5044 2406 4934 2573 
Q 4825 2741 4581 2741 
Q 4263 2741 4089 2478 
Q 3916 2216 3909 1719 
L 3909 0 
L 2784 0 
L 2784 1825 
Q 2784 2406 2684 2573 
Q 2584 2741 2328 2741 
Q 2006 2741 1831 2477 
Q 1656 2213 1656 1722 
L 1656 0 
L 531 0 
L 531 3500 
L 1656 3500 
L 1656 2988 
Q 1863 3284 2130 3434 
Q 2397 3584 2719 3584 
Q 3081 3584 3359 3409 
Q 3638 3234 3781 2919 
z
" transform="scale(0.015625)"/>
      <path id="DejaVuSans-Bold-68" d="M 4056 2131 
L 4056 0 
L 2931 0 
L 2931 347 
L 2931 1625 
Q 2931 2084 2911 2256 
Q 2891 2428 2841 2509 
Q 2775 2619 2662 2680 
Q 2550 2741 2406 2741 
Q 2056 2741 1856 2470 
Q 1656 2200 1656 1722 
L 1656 0 
L 538 0 
L 538 4863 
L 1656 4863 
L 1656 2988 
Q 1909 3294 2193 3439 
Q 2478 3584 2822 3584 
Q 3428 3584 3742 3212 
Q 4056 2841 4056 2131 
z
" transform="scale(0.015625)"/>
     </defs>
     <use xlink:href="#DejaVuSans-Bold-52"/>
     <use xlink:href="#DejaVuSans-Bold-4f" x="77.001953"/>
     <use xlink:href="#DejaVuSans-Bold-43" x="162.011719"/>
     <use xlink:href="#DejaVuSans-Bold-20" x="235.400391"/>
     <use xlink:href="#DejaVuSans-Bold-43" x="270.214844"/>
     <use xlink:href="#DejaVuSans-Bold-75" x="343.603516"/>
     <use xlink:href="#DejaVuSans-Bold-72" x="414.794922"/>
     <use xlink:href="#DejaVuSans-Bold-76" x="464.111328"/>
     <use xlink:href="#DejaVuSans-Bold-65" x="529.296875"/>
     <use xlink:href="#DejaVuSans-Bold-20" x="597.119141"/>
     <use xlink:href="#DejaVuSans-Bold-28" x="631.933594"/>
     <use xlink:href="#DejaVuSans-Bold-47" x="677.636719"/>
     <use xlink:href="#DejaVuSans-Bold-53" x="759.716797"/>
     <use xlink:href="#DejaVuSans-Bold-45" x="831.738281"/>
     <use xlink:href="#DejaVuSans-Bold-32" x="900.048828"/>
     <use xlink:href="#DejaVuSans-Bold-32" x="969.628906"/>
     <use xlink:href="#DejaVuSans-Bold-39" x="1039.208984"/>
     <use xlink:href="#DejaVuSans-Bold-35" x="1108.789062"/>
     <use xlink:href="#DejaVuSans-Bold-37" x="1178.369141"/>
     <use xlink:href="#DejaVuSans-Bold-31" x="1247.949219"/>
     <use xlink:href="#DejaVuSans-Bold-20" x="1317.529297"/>
     <use xlink:href="#DejaVuSans-Bold-56" x="1352.34375"/>
     <use xlink:href="#DejaVuSans-Bold-61" x="1424.236328"/>
     <use xlink:href="#DejaVuSans-Bold-6c" x="1491.716797"/>
     <use xlink:href="#DejaVuSans-Bold-69" x="1525.994141"/>
     <use xlink:href="#DejaVuSans-Bold-64" x="1560.271484"/>
     <use xlink:href="#DejaVuSans-Bold-61" x="1631.853516"/>
     <use xlink:href="#DejaVuSans-Bold-74" x="1699.333984"/>
     <use xlink:href="#DejaVuSans-Bold-69" x="1747.136719"/>
     <use xlink:href="#DejaVuSans-Bold-6f" x="1781.414062"/>
     <use xlink:href="#DejaVuSans-Bold-6e" x="1850.115234"/>
     <use xlink:href="#DejaVuSans-Bold-20" x="1921.306641"/>
     <use xlink:href="#DejaVuSans-Bold-2d" x="1956.121094"/>
     <use xlink:href="#DejaVuSans-Bold-20" x="1997.625"/>
     <use xlink:href="#DejaVuSans-Bold-42" x="2032.439453"/>
     <use xlink:href="#DejaVuSans-Bold-6f" x="2108.660156"/>
     <use xlink:href="#DejaVuSans-Bold-6f" x="2177.361328"/>
     <use xlink:href="#DejaVuSans-Bold-74" x="2246.0625"/>
     <use xlink:href="#DejaVuSans-Bold-73" x="2293.865234"/>
     <use xlink:href="#DejaVuSans-Bold-74" x="2353.386719"/>
     <use xlink:href="#DejaVuSans-Bold-72" x="2401.189453"/>
     <use xlink:href="#DejaVuSans-Bold-61" x="2450.505859"/>
     <use xlink:href="#DejaVuSans-Bold-70" x="2517.986328"/>
     <use xlink:href="#DejaVuSans-Bold-20" x="2589.568359"/>
     <use xlink:href="#DejaVuSans-Bold-53" x="2624.382812"/>
     <use xlink:href="#DejaVuSans-Bold-6d" x="2696.404297"/>
     <use xlink:href="#DejaVuSans-Bold-6f" x="2800.603516"/>
     <use xlink:href="#DejaVuSans-Bold-6f" x="2869.304688"/>
     <use xlink:href="#DejaVuSans-Bold-74" x="2938.005859"/>
     <use xlink:href="#DejaVuSans-Bold-68" x="2985.808594"/>
     <use xlink:href="#DejaVuSans-Bold-65" x="3057"/>
     <use xlink:href="#DejaVuSans-Bold-64" x="3124.822266"/>
     <use xlink:href="#DejaVuSans-Bold-29" x="3196.404297"/>
    </g>
   </g>
   <g id="legend_1">
    <g id="line2d_24">
     <path d="M 326.99075 343.734969 
L 337.99075 343.734969 
L 348.99075 343.734969 
" style="fill: none; stroke: #e64b35; stroke-width: 1.5; stroke-linecap: square"/>
    </g>
    <g id="text_16">
     <!-- LR (AUC = 0.972) -->
     <g transform="translate(357.79075 347.584969) scale(0.11 -0.11)">
      <defs>
       <path id="DejaVuSans-Bold-4c" d="M 588 4666 
L 1791 4666 
L 1791 909 
L 3903 909 
L 3903 0 
L 588 0 
L 588 4666 
z
" transform="scale(0.015625)"/>
       <path id="DejaVuSans-Bold-41" d="M 3419 850 
L 1538 850 
L 1241 0 
L 31 0 
L 1759 4666 
L 3194 4666 
L 4922 0 
L 3713 0 
L 3419 850 
z
M 1838 1716 
L 3116 1716 
L 2478 3572 
L 1838 1716 
z
" transform="scale(0.015625)"/>
       <path id="DejaVuSans-Bold-55" d="M 588 4666 
L 1791 4666 
L 1791 1869 
Q 1791 1291 1980 1042 
Q 2169 794 2597 794 
Q 3028 794 3217 1042 
Q 3406 1291 3406 1869 
L 3406 4666 
L 4609 4666 
L 4609 1869 
Q 4609 878 4112 393 
Q 3616 -91 2597 -91 
Q 1581 -91 1084 393 
Q 588 878 588 1869 
L 588 4666 
z
" transform="scale(0.015625)"/>
       <path id="DejaVuSans-Bold-3d" d="M 678 3084 
L 4684 3084 
L 4684 2350 
L 678 2350 
L 678 3084 
z
M 678 1663 
L 4684 1663 
L 4684 922 
L 678 922 
L 678 1663 
z
" transform="scale(0.015625)"/>
       <path id="DejaVuSans-Bold-30" d="M 2944 2338 
Q 2944 3213 2780 3570 
Q 2616 3928 2228 3928 
Q 1841 3928 1675 3570 
Q 1509 3213 1509 2338 
Q 1509 1453 1675 1090 
Q 1841 728 2228 728 
Q 2613 728 2778 1090 
Q 2944 1453 2944 2338 
z
M 4147 2328 
Q 4147 1169 3647 539 
Q 3147 -91 2228 -91 
Q 1306 -91 806 539 
Q 306 1169 306 2328 
Q 306 3491 806 4120 
Q 1306 4750 2228 4750 
Q 3147 4750 3647 4120 
Q 4147 3491 4147 2328 
z
" transform="scale(0.015625)"/>
       <path id="DejaVuSans-Bold-2e" d="M 653 1209 
L 1778 1209 
L 1778 0 
L 653 0 
L 653 1209 
z
" transform="scale(0.015625)"/>
      </defs>
      <use xlink:href="#DejaVuSans-Bold-4c"/>
      <use xlink:href="#DejaVuSans-Bold-52" x="63.720703"/>
      <use xlink:href="#DejaVuSans-Bold-20" x="140.722656"/>
      <use xlink:href="#DejaVuSans-Bold-28" x="175.537109"/>
      <use xlink:href="#DejaVuSans-Bold-41" x="221.240234"/>
      <use xlink:href="#DejaVuSans-Bold-55" x="295.507812"/>
      <use xlink:href="#DejaVuSans-Bold-43" x="376.708984"/>
      <use xlink:href="#DejaVuSans-Bold-20" x="450.097656"/>
      <use xlink:href="#DejaVuSans-Bold-3d" x="484.912109"/>
      <use xlink:href="#DejaVuSans-Bold-20" x="568.701172"/>
      <use xlink:href="#DejaVuSans-Bold-30" x="603.515625"/>
      <use xlink:href="#DejaVuSans-Bold-2e" x="673.095703"/>
      <use xlink:href="#DejaVuSans-Bold-39" x="711.083984"/>
      <use xlink:href="#DejaVuSans-Bold-37" x="780.664062"/>
      <use xlink:href="#DejaVuSans-Bold-32" x="850.244141"/>
      <use xlink:href="#DejaVuSans-Bold-29" x="919.824219"/>
     </g>
    </g>
    <g id="line2d_25">
     <path d="M 326.99075 359.880906 
L 337.99075 359.880906 
L 348.99075 359.880906 
" style="fill: none; stroke: #4dbbd5; stroke-width: 1.5; stroke-linecap: square"/>
    </g>
    <g id="text_17">
     <!-- LDA (AUC = 0.944) -->
     <g transform="translate(357.79075 363.730906) scale(0.11 -0.11)">
      <defs>
       <path id="DejaVuSans-Bold-44" d="M 1791 3756 
L 1791 909 
L 2222 909 
Q 2959 909 3348 1275 
Q 3738 1641 3738 2338 
Q 3738 3031 3350 3393 
Q 2963 3756 2222 3756 
L 1791 3756 
z
M 588 4666 
L 1856 4666 
Q 2919 4666 3439 4514 
Q 3959 4363 4331 4000 
Q 4659 3684 4818 3271 
Q 4978 2859 4978 2338 
Q 4978 1809 4818 1395 
Q 4659 981 4331 666 
Q 3956 303 3431 151 
Q 2906 0 1856 0 
L 588 0 
L 588 4666 
z
" transform="scale(0.015625)"/>
       <path id="DejaVuSans-Bold-34" d="M 2356 3675 
L 1038 1722 
L 2356 1722 
L 2356 3675 
z
M 2156 4666 
L 3494 4666 
L 3494 1722 
L 4159 1722 
L 4159 850 
L 3494 850 
L 3494 0 
L 2356 0 
L 2356 850 
L 288 850 
L 288 1881 
L 2156 4666 
z
" transform="scale(0.015625)"/>
      </defs>
      <use xlink:href="#DejaVuSans-Bold-4c"/>
      <use xlink:href="#DejaVuSans-Bold-44" x="63.720703"/>
      <use xlink:href="#DejaVuSans-Bold-41" x="146.728516"/>
      <use xlink:href="#DejaVuSans-Bold-20" x="224.121094"/>
      <use xlink:href="#DejaVuSans-Bold-28" x="258.935547"/>
      <use xlink:href="#DejaVuSans-Bold-41" x="304.638672"/>
      <use xlink:href="#DejaVuSans-Bold-55" x="378.90625"/>
      <use xlink:href="#DejaVuSans-Bold-43" x="460.107422"/>
      <use xlink:href="#DejaVuSans-Bold-20" x="533.496094"/>
      <use xlink:href="#DejaVuSans-Bold-3d" x="568.310547"/>
      <use xlink:href="#DejaVuSans-Bold-20" x="652.099609"/>
      <use xlink:href="#DejaVuSans-Bold-30" x="686.914062"/>
      <use xlink:href="#DejaVuSans-Bold-2e" x="756.494141"/>
      <use xlink:href="#DejaVuSans-Bold-39" x="794.482422"/>
      <use xlink:href="#DejaVuSans-Bold-34" x="864.0625"/>
      <use xlink:href="#DejaVuSans-Bold-34" x="933.642578"/>
      <use xlink:href="#DejaVuSans-Bold-29" x="1003.222656"/>
     </g>
    </g>
    <g id="line2d_26">
     <path d="M 326.99075 376.026844 
L 337.99075 376.026844 
L 348.99075 376.026844 
" style="fill: none; stroke: #00a087; stroke-width: 1.5; stroke-linecap: square"/>
    </g>
    <g id="text_18">
     <!-- NaiveBayes (AUC = 0.972) -->
     <g transform="translate(357.79075 379.876844) scale(0.11 -0.11)">
      <defs>
       <path id="DejaVuSans-Bold-4e" d="M 588 4666 
L 1931 4666 
L 3628 1466 
L 3628 4666 
L 4769 4666 
L 4769 0 
L 3425 0 
L 1728 3200 
L 1728 0 
L 588 0 
L 588 4666 
z
" transform="scale(0.015625)"/>
      </defs>
      <use xlink:href="#DejaVuSans-Bold-4e"/>
      <use xlink:href="#DejaVuSans-Bold-61" x="83.691406"/>
      <use xlink:href="#DejaVuSans-Bold-69" x="151.171875"/>
      <use xlink:href="#DejaVuSans-Bold-76" x="185.449219"/>
      <use xlink:href="#DejaVuSans-Bold-65" x="250.634766"/>
      <use xlink:href="#DejaVuSans-Bold-42" x="318.457031"/>
      <use xlink:href="#DejaVuSans-Bold-61" x="394.677734"/>
      <use xlink:href="#DejaVuSans-Bold-79" x="459.033203"/>
      <use xlink:href="#DejaVuSans-Bold-65" x="524.21875"/>
      <use xlink:href="#DejaVuSans-Bold-73" x="592.041016"/>
      <use xlink:href="#DejaVuSans-Bold-20" x="651.5625"/>
      <use xlink:href="#DejaVuSans-Bold-28" x="686.376953"/>
      <use xlink:href="#DejaVuSans-Bold-41" x="732.080078"/>
      <use xlink:href="#DejaVuSans-Bold-55" x="806.347656"/>
      <use xlink:href="#DejaVuSans-Bold-43" x="887.548828"/>
      <use xlink:href="#DejaVuSans-Bold-20" x="960.9375"/>
      <use xlink:href="#DejaVuSans-Bold-3d" x="995.751953"/>
      <use xlink:href="#DejaVuSans-Bold-20" x="1079.541016"/>
      <use xlink:href="#DejaVuSans-Bold-30" x="1114.355469"/>
      <use xlink:href="#DejaVuSans-Bold-2e" x="1183.935547"/>
      <use xlink:href="#DejaVuSans-Bold-39" x="1221.923828"/>
      <use xlink:href="#DejaVuSans-Bold-37" x="1291.503906"/>
      <use xlink:href="#DejaVuSans-Bold-32" x="1361.083984"/>
      <use xlink:href="#DejaVuSans-Bold-29" x="1430.664062"/>
     </g>
    </g>
    <g id="line2d_27">
     <path d="M 326.99075 392.258719 
L 337.99075 392.258719 
L 348.99075 392.258719 
" style="fill: none; stroke: #3c5488; stroke-width: 1.5; stroke-linecap: square"/>
    </g>
    <g id="text_19">
     <!-- KNN (AUC = 0.860) -->
     <g transform="translate(357.79075 396.108719) scale(0.11 -0.11)">
      <defs>
       <path id="DejaVuSans-Bold-4b" d="M 588 4666 
L 1791 4666 
L 1791 2963 
L 3525 4666 
L 4922 4666 
L 2675 2456 
L 5153 0 
L 3647 0 
L 1791 1838 
L 1791 0 
L 588 0 
L 588 4666 
z
" transform="scale(0.015625)"/>
       <path id="DejaVuSans-Bold-38" d="M 2228 2088 
Q 1891 2088 1709 1903 
Q 1528 1719 1528 1375 
Q 1528 1031 1709 848 
Q 1891 666 2228 666 
Q 2563 666 2741 848 
Q 2919 1031 2919 1375 
Q 2919 1722 2741 1905 
Q 2563 2088 2228 2088 
z
M 1350 2484 
Q 925 2613 709 2878 
Q 494 3144 494 3541 
Q 494 4131 934 4440 
Q 1375 4750 2228 4750 
Q 3075 4750 3515 4442 
Q 3956 4134 3956 3541 
Q 3956 3144 3739 2878 
Q 3522 2613 3097 2484 
Q 3572 2353 3814 2058 
Q 4056 1763 4056 1313 
Q 4056 619 3595 264 
Q 3134 -91 2228 -91 
Q 1319 -91 855 264 
Q 391 619 391 1313 
Q 391 1763 633 2058 
Q 875 2353 1350 2484 
z
M 1631 3419 
Q 1631 3141 1786 2991 
Q 1941 2841 2228 2841 
Q 2509 2841 2662 2991 
Q 2816 3141 2816 3419 
Q 2816 3697 2662 3845 
Q 2509 3994 2228 3994 
Q 1941 3994 1786 3844 
Q 1631 3694 1631 3419 
z
" transform="scale(0.015625)"/>
       <path id="DejaVuSans-Bold-36" d="M 2316 2303 
Q 2000 2303 1842 2098 
Q 1684 1894 1684 1484 
Q 1684 1075 1842 870 
Q 2000 666 2316 666 
Q 2634 666 2792 870 
Q 2950 1075 2950 1484 
Q 2950 1894 2792 2098 
Q 2634 2303 2316 2303 
z
M 3803 4544 
L 3803 3681 
Q 3506 3822 3243 3889 
Q 2981 3956 2731 3956 
Q 2194 3956 1894 3657 
Q 1594 3359 1544 2772 
Q 1750 2925 1990 3001 
Q 2231 3078 2516 3078 
Q 3231 3078 3670 2659 
Q 4109 2241 4109 1563 
Q 4109 813 3618 361 
Q 3128 -91 2303 -91 
Q 1394 -91 895 523 
Q 397 1138 397 2266 
Q 397 3422 980 4083 
Q 1563 4744 2578 4744 
Q 2900 4744 3203 4694 
Q 3506 4644 3803 4544 
z
" transform="scale(0.015625)"/>
      </defs>
      <use xlink:href="#DejaVuSans-Bold-4b"/>
      <use xlink:href="#DejaVuSans-Bold-4e" x="77.490234"/>
      <use xlink:href="#DejaVuSans-Bold-4e" x="161.181641"/>
      <use xlink:href="#DejaVuSans-Bold-20" x="244.873047"/>
      <use xlink:href="#DejaVuSans-Bold-28" x="279.6875"/>
      <use xlink:href="#DejaVuSans-Bold-41" x="325.390625"/>
      <use xlink:href="#DejaVuSans-Bold-55" x="399.658203"/>
      <use xlink:href="#DejaVuSans-Bold-43" x="480.859375"/>
      <use xlink:href="#DejaVuSans-Bold-20" x="554.248047"/>
      <use xlink:href="#DejaVuSans-Bold-3d" x="589.0625"/>
      <use xlink:href="#DejaVuSans-Bold-20" x="672.851562"/>
      <use xlink:href="#DejaVuSans-Bold-30" x="707.666016"/>
      <use xlink:href="#DejaVuSans-Bold-2e" x="777.246094"/>
      <use xlink:href="#DejaVuSans-Bold-38" x="815.234375"/>
      <use xlink:href="#DejaVuSans-Bold-36" x="884.814453"/>
      <use xlink:href="#DejaVuSans-Bold-30" x="954.394531"/>
      <use xlink:href="#DejaVuSans-Bold-29" x="1023.974609"/>
     </g>
    </g>
    <g id="line2d_28">
     <path d="M 326.99075 408.404656 
L 337.99075 408.404656 
L 348.99075 408.404656 
" style="fill: none; stroke: #f39b7f; stroke-width: 1.5; stroke-linecap: square"/>
    </g>
    <g id="text_20">
     <!-- RF (AUC = 0.943) -->
     <g transform="translate(357.79075 412.254656) scale(0.11 -0.11)">
      <defs>
       <path id="DejaVuSans-Bold-33" d="M 2981 2516 
Q 3453 2394 3698 2092 
Q 3944 1791 3944 1325 
Q 3944 631 3412 270 
Q 2881 -91 1863 -91 
Q 1503 -91 1142 -33 
Q 781 25 428 141 
L 428 1069 
Q 766 900 1098 814 
Q 1431 728 1753 728 
Q 2231 728 2486 893 
Q 2741 1059 2741 1369 
Q 2741 1688 2480 1852 
Q 2219 2016 1709 2016 
L 1228 2016 
L 1228 2791 
L 1734 2791 
Q 2188 2791 2409 2933 
Q 2631 3075 2631 3366 
Q 2631 3634 2415 3781 
Q 2200 3928 1806 3928 
Q 1516 3928 1219 3862 
Q 922 3797 628 3669 
L 628 4550 
Q 984 4650 1334 4700 
Q 1684 4750 2022 4750 
Q 2931 4750 3382 4451 
Q 3834 4153 3834 3553 
Q 3834 3144 3618 2883 
Q 3403 2622 2981 2516 
z
" transform="scale(0.015625)"/>
      </defs>
      <use xlink:href="#DejaVuSans-Bold-52"/>
      <use xlink:href="#DejaVuSans-Bold-46" x="77.001953"/>
      <use xlink:href="#DejaVuSans-Bold-20" x="145.3125"/>
      <use xlink:href="#DejaVuSans-Bold-28" x="180.126953"/>
      <use xlink:href="#DejaVuSans-Bold-41" x="225.830078"/>
      <use xlink:href="#DejaVuSans-Bold-55" x="300.097656"/>
      <use xlink:href="#DejaVuSans-Bold-43" x="381.298828"/>
      <use xlink:href="#DejaVuSans-Bold-20" x="454.6875"/>
      <use xlink:href="#DejaVuSans-Bold-3d" x="489.501953"/>
      <use xlink:href="#DejaVuSans-Bold-20" x="573.291016"/>
      <use xlink:href="#DejaVuSans-Bold-30" x="608.105469"/>
      <use xlink:href="#DejaVuSans-Bold-2e" x="677.685547"/>
      <use xlink:href="#DejaVuSans-Bold-39" x="715.673828"/>
      <use xlink:href="#DejaVuSans-Bold-34" x="785.253906"/>
      <use xlink:href="#DejaVuSans-Bold-33" x="854.833984"/>
      <use xlink:href="#DejaVuSans-Bold-29" x="924.414062"/>
     </g>
    </g>
    <g id="line2d_29">
     <path d="M 326.99075 424.550594 
L 337.99075 424.550594 
L 348.99075 424.550594 
" style="fill: none; stroke: #8491b4; stroke-width: 1.5; stroke-linecap: square"/>
    </g>
    <g id="text_21">
     <!-- ExtraTrees (AUC = 0.945) -->
     <g transform="translate(357.79075 428.400594) scale(0.11 -0.11)">
      <defs>
       <path id="DejaVuSans-Bold-78" d="M 1422 1791 
L 159 3500 
L 1344 3500 
L 2059 2463 
L 2784 3500 
L 3969 3500 
L 2706 1797 
L 4031 0 
L 2847 0 
L 2059 1106 
L 1281 0 
L 97 0 
L 1422 1791 
z
" transform="scale(0.015625)"/>
      </defs>
      <use xlink:href="#DejaVuSans-Bold-45"/>
      <use xlink:href="#DejaVuSans-Bold-78" x="68.310547"/>
      <use xlink:href="#DejaVuSans-Bold-74" x="132.8125"/>
      <use xlink:href="#DejaVuSans-Bold-72" x="180.615234"/>
      <use xlink:href="#DejaVuSans-Bold-61" x="229.931641"/>
      <use xlink:href="#DejaVuSans-Bold-54" x="297.412109"/>
      <use xlink:href="#DejaVuSans-Bold-72" x="354.625"/>
      <use xlink:href="#DejaVuSans-Bold-65" x="403.941406"/>
      <use xlink:href="#DejaVuSans-Bold-65" x="471.763672"/>
      <use xlink:href="#DejaVuSans-Bold-73" x="539.585938"/>
      <use xlink:href="#DejaVuSans-Bold-20" x="599.107422"/>
      <use xlink:href="#DejaVuSans-Bold-28" x="633.921875"/>
      <use xlink:href="#DejaVuSans-Bold-41" x="679.625"/>
      <use xlink:href="#DejaVuSans-Bold-55" x="753.892578"/>
      <use xlink:href="#DejaVuSans-Bold-43" x="835.09375"/>
      <use xlink:href="#DejaVuSans-Bold-20" x="908.482422"/>
      <use xlink:href="#DejaVuSans-Bold-3d" x="943.296875"/>
      <use xlink:href="#DejaVuSans-Bold-20" x="1027.085938"/>
      <use xlink:href="#DejaVuSans-Bold-30" x="1061.900391"/>
      <use xlink:href="#DejaVuSans-Bold-2e" x="1131.480469"/>
      <use xlink:href="#DejaVuSans-Bold-39" x="1169.46875"/>
      <use xlink:href="#DejaVuSans-Bold-34" x="1239.048828"/>
      <use xlink:href="#DejaVuSans-Bold-35" x="1308.628906"/>
      <use xlink:href="#DejaVuSans-Bold-29" x="1378.208984"/>
     </g>
    </g>
    <g id="line2d_30">
     <path d="M 326.99075 440.696531 
L 337.99075 440.696531 
L 348.99075 440.696531 
" style="fill: none; stroke: #91d1c2; stroke-width: 1.5; stroke-linecap: square"/>
    </g>
    <g id="text_22">
     <!-- AdaBoost (AUC = 1.000) -->
     <g transform="translate(357.79075 444.546531) scale(0.11 -0.11)">
      <use xlink:href="#DejaVuSans-Bold-41"/>
      <use xlink:href="#DejaVuSans-Bold-64" x="77.392578"/>
      <use xlink:href="#DejaVuSans-Bold-61" x="148.974609"/>
      <use xlink:href="#DejaVuSans-Bold-42" x="216.455078"/>
      <use xlink:href="#DejaVuSans-Bold-6f" x="292.675781"/>
      <use xlink:href="#DejaVuSans-Bold-6f" x="361.376953"/>
      <use xlink:href="#DejaVuSans-Bold-73" x="430.078125"/>
      <use xlink:href="#DejaVuSans-Bold-74" x="489.599609"/>
      <use xlink:href="#DejaVuSans-Bold-20" x="537.402344"/>
      <use xlink:href="#DejaVuSans-Bold-28" x="572.216797"/>
      <use xlink:href="#DejaVuSans-Bold-41" x="617.919922"/>
      <use xlink:href="#DejaVuSans-Bold-55" x="692.1875"/>
      <use xlink:href="#DejaVuSans-Bold-43" x="773.388672"/>
      <use xlink:href="#DejaVuSans-Bold-20" x="846.777344"/>
      <use xlink:href="#DejaVuSans-Bold-3d" x="881.591797"/>
      <use xlink:href="#DejaVuSans-Bold-20" x="965.380859"/>
      <use xlink:href="#DejaVuSans-Bold-31" x="1000.195312"/>
      <use xlink:href="#DejaVuSans-Bold-2e" x="1069.775391"/>
      <use xlink:href="#DejaVuSans-Bold-30" x="1107.763672"/>
      <use xlink:href="#DejaVuSans-Bold-30" x="1177.34375"/>
      <use xlink:href="#DejaVuSans-Bold-30" x="1246.923828"/>
      <use xlink:href="#DejaVuSans-Bold-29" x="1316.503906"/>
     </g>
    </g>
    <g id="line2d_31">
     <path d="M 326.99075 456.842469 
L 337.99075 456.842469 
L 348.99075 456.842469 
" style="fill: none; stroke: #dc0000; stroke-width: 1.5; stroke-linecap: square"/>
    </g>
    <g id="text_23">
     <!-- XGB (AUC = 1.000) -->
     <g transform="translate(357.79075 460.692469) scale(0.11 -0.11)">
      <defs>
       <path id="DejaVuSans-Bold-58" d="M 3188 2381 
L 4806 0 
L 3553 0 
L 2463 1594 
L 1381 0 
L 122 0 
L 1741 2381 
L 184 4666 
L 1441 4666 
L 2463 3163 
L 3481 4666 
L 4744 4666 
L 3188 2381 
z
" transform="scale(0.015625)"/>
      </defs>
      <use xlink:href="#DejaVuSans-Bold-58"/>
      <use xlink:href="#DejaVuSans-Bold-47" x="77.099609"/>
      <use xlink:href="#DejaVuSans-Bold-42" x="159.179688"/>
      <use xlink:href="#DejaVuSans-Bold-20" x="235.400391"/>
      <use xlink:href="#DejaVuSans-Bold-28" x="270.214844"/>
      <use xlink:href="#DejaVuSans-Bold-41" x="315.917969"/>
      <use xlink:href="#DejaVuSans-Bold-55" x="390.185547"/>
      <use xlink:href="#DejaVuSans-Bold-43" x="471.386719"/>
      <use xlink:href="#DejaVuSans-Bold-20" x="544.775391"/>
      <use xlink:href="#DejaVuSans-Bold-3d" x="579.589844"/>
      <use xlink:href="#DejaVuSans-Bold-20" x="663.378906"/>
      <use xlink:href="#DejaVuSans-Bold-31" x="698.193359"/>
      <use xlink:href="#DejaVuSans-Bold-2e" x="767.773438"/>
      <use xlink:href="#DejaVuSans-Bold-30" x="805.761719"/>
      <use xlink:href="#DejaVuSans-Bold-30" x="875.341797"/>
      <use xlink:href="#DejaVuSans-Bold-30" x="944.921875"/>
      <use xlink:href="#DejaVuSans-Bold-29" x="1014.501953"/>
     </g>
    </g>
    <g id="line2d_32">
     <path d="M 326.99075 472.988406 
L 337.99075 472.988406 
L 348.99075 472.988406 
" style="fill: none; stroke: #7e6148; stroke-width: 1.5; stroke-linecap: square"/>
    </g>
    <g id="text_24">
     <!-- MLP (AUC = 0.916) -->
     <g transform="translate(357.79075 476.838406) scale(0.11 -0.11)">
      <defs>
       <path id="DejaVuSans-Bold-4d" d="M 588 4666 
L 2119 4666 
L 3181 2169 
L 4250 4666 
L 5778 4666 
L 5778 0 
L 4641 0 
L 4641 3413 
L 3566 897 
L 2803 897 
L 1728 3413 
L 1728 0 
L 588 0 
L 588 4666 
z
" transform="scale(0.015625)"/>
      </defs>
      <use xlink:href="#DejaVuSans-Bold-4d"/>
      <use xlink:href="#DejaVuSans-Bold-4c" x="99.511719"/>
      <use xlink:href="#DejaVuSans-Bold-50" x="163.232422"/>
      <use xlink:href="#DejaVuSans-Bold-20" x="236.523438"/>
      <use xlink:href="#DejaVuSans-Bold-28" x="271.337891"/>
      <use xlink:href="#DejaVuSans-Bold-41" x="317.041016"/>
      <use xlink:href="#DejaVuSans-Bold-55" x="391.308594"/>
      <use xlink:href="#DejaVuSans-Bold-43" x="472.509766"/>
      <use xlink:href="#DejaVuSans-Bold-20" x="545.898438"/>
      <use xlink:href="#DejaVuSans-Bold-3d" x="580.712891"/>
      <use xlink:href="#DejaVuSans-Bold-20" x="664.501953"/>
      <use xlink:href="#DejaVuSans-Bold-30" x="699.316406"/>
      <use xlink:href="#DejaVuSans-Bold-2e" x="768.896484"/>
      <use xlink:href="#DejaVuSans-Bold-39" x="806.884766"/>
      <use xlink:href="#DejaVuSans-Bold-31" x="876.464844"/>
      <use xlink:href="#DejaVuSans-Bold-36" x="946.044922"/>
      <use xlink:href="#DejaVuSans-Bold-29" x="1015.625"/>
     </g>
    </g>
    <g id="line2d_33">
     <path d="M 326.99075 489.134344 
L 337.99075 489.134344 
L 348.99075 489.134344 
" style="fill: none; stroke: #b09c85; stroke-width: 1.5; stroke-linecap: square"/>
    </g>
    <g id="text_25">
     <!-- CNN (AUC = 0.861) -->
     <g transform="translate(357.79075 492.984344) scale(0.11 -0.11)">
      <use xlink:href="#DejaVuSans-Bold-43"/>
      <use xlink:href="#DejaVuSans-Bold-4e" x="73.388672"/>
      <use xlink:href="#DejaVuSans-Bold-4e" x="157.080078"/>
      <use xlink:href="#DejaVuSans-Bold-20" x="240.771484"/>
      <use xlink:href="#DejaVuSans-Bold-28" x="275.585938"/>
      <use xlink:href="#DejaVuSans-Bold-41" x="321.289062"/>
      <use xlink:href="#DejaVuSans-Bold-55" x="395.556641"/>
      <use xlink:href="#DejaVuSans-Bold-43" x="476.757812"/>
      <use xlink:href="#DejaVuSans-Bold-20" x="550.146484"/>
      <use xlink:href="#DejaVuSans-Bold-3d" x="584.960938"/>
      <use xlink:href="#DejaVuSans-Bold-20" x="668.75"/>
      <use xlink:href="#DejaVuSans-Bold-30" x="703.564453"/>
      <use xlink:href="#DejaVuSans-Bold-2e" x="773.144531"/>
      <use xlink:href="#DejaVuSans-Bold-38" x="811.132812"/>
      <use xlink:href="#DejaVuSans-Bold-36" x="880.712891"/>
      <use xlink:href="#DejaVuSans-Bold-31" x="950.292969"/>
      <use xlink:href="#DejaVuSans-Bold-29" x="1019.873047"/>
     </g>
    </g>
   </g>
  </g>
 </g>
 <defs>
  <clipPath id="pd5a9c55802">
   <rect x="63.68" y="38.76" width="490.96" height="490.96"/>
  </clipPath>
 </defs>
</svg>
